<svg width="205" height="30" viewBox="0 0 205 30" fill="none" xmlns="http://www.w3.org/2000/svg">
<path d="M23.2359 15C23.2359 16.7245 22.7073 18.3248 21.8047 19.6505L26.6052 24.451C28.7016 21.8715 29.96 18.5829 29.96 15C29.96 11.4171 28.7021 8.12843 26.6057 5.54895L21.8052 10.3495C22.7073 11.6752 23.2359 13.2755 23.2359 15Z" fill="white"/>
<path d="M19.6109 21.8447C18.2852 22.7473 16.6849 23.2759 14.9604 23.2759C10.9207 23.2759 7.56176 20.3799 6.83504 16.5518H0.0400391C0.816418 24.1066 7.20021 30 14.9604 30C18.5438 30 21.8319 28.7421 24.4114 26.6457L19.6109 21.8447Z" fill="white"/>
<path d="M6.83504 13.4483C7.56176 9.62017 10.9207 6.72414 14.9604 6.72414C16.6849 6.72414 18.2852 7.25276 19.6109 8.15534L24.4114 3.35483C21.8319 1.25793 18.5433 0 14.9604 0C7.20021 0 0.816418 5.89293 0.0400391 13.4483H6.83504Z" fill="#F9DB6D"/>
<path fill-rule="evenodd" clip-rule="evenodd" d="M53.3602 9.46L57.9802 22.18C58.1802 22.72 57.9802 23 57.4002 23H55.2402C54.2202 23 53.9002 22.8 53.7402 22.16L53.2802 20.72H48.9602L48.5002 22.16C48.2802 22.8 48.0002 23 47.0402 23H44.9402C44.3802 23 44.2002 22.72 44.4002 22.18L49.0002 9.5C49.1802 8.94 49.4202 8.8 50.0402 8.8H52.3202C52.9002 8.8 53.1802 8.96 53.3602 9.46ZM52.3802 17.58L51.6402 15.24C51.4002 14.44 51.2402 13.38 51.2202 12.84L51.2002 12.44H51.0002C51.0202 13.4 50.8802 14.32 50.6202 15.22L49.8802 17.58H52.3802ZM59.6188 8.7998H64.4988C68.3988 8.7998 70.6388 10.8998 70.6388 14.3998V17.3998C70.6388 20.8598 68.3988 22.9998 64.4988 22.9998H59.6188C58.9788 22.9998 58.7588 22.7798 58.7588 22.1598V9.6398C58.7588 9.0198 58.9788 8.7998 59.6188 8.7998ZM66.6802 17.34V14.46C66.6802 13.02 65.9002 12.3 64.3602 12.3H62.7202V19.5H64.3602C65.9002 19.5 66.6802 18.78 66.6802 17.34ZM71.9802 12.98C71.9802 11.64 72.5002 10.54 73.5602 9.72C74.6002 8.9 76.0602 8.5 77.9202 8.5C80.8602 8.5 82.5602 9.38 83.5002 11.3C83.7602 11.82 83.6002 12.2 83.0202 12.42L81.0202 13.28C80.4802 13.52 80.2602 13.44 79.9402 12.86C79.6002 12.16 78.9202 11.82 77.9202 11.82C76.6602 11.82 76.0202 12.16 76.0202 12.86C76.0202 13.64 76.8602 13.86 78.6402 14.08C79.8802 14.24 80.3602 14.3 81.5002 14.76C82.0402 14.98 82.4602 15.26 82.7802 15.56C83.4202 16.18 83.9602 17.3 83.9602 18.74C83.9602 20.16 83.3802 21.28 82.2402 22.08C81.0802 22.9 79.5802 23.3 77.7602 23.3C74.6402 23.3 72.7002 22.26 71.9402 20.2C71.7202 19.58 71.9002 19.32 72.4802 19.1L74.3602 18.42C74.9402 18.2 75.2402 18.3 75.5402 18.86C75.9002 19.56 76.6602 19.92 77.8002 19.92C79.2202 19.92 79.9402 19.54 79.9402 18.78C79.9402 18.06 79.1802 17.82 77.6002 17.6C76.7802 17.48 76.7802 17.5 75.9602 17.32C75.5802 17.26 75.3002 17.18 75.1002 17.12C74.6802 16.98 73.9202 16.7 73.5402 16.4C73.1602 16.1 72.6402 15.64 72.4202 15.08C72.1802 14.54 71.9802 13.84 71.9802 12.98ZM100.48 8.78H102.48C103.12 8.78 103.34 8.98 103.34 9.62V22.18C103.34 22.8 103.12 23 102.48 23H100.3C99.6602 23 99.4602 22.8 99.4602 22.18V19.32C99.4602 17.88 99.7602 16.14 100.34 14.08H100.12C100.02 14.42 99.8202 14.96 99.5202 15.7C99.2202 16.44 98.9802 17 98.7802 17.38L97.6602 19.64C97.4202 20.06 97.2002 20.22 96.7002 20.22H95.3602C94.8202 20.22 94.6202 20.1 94.4002 19.64L93.2202 17.38C92.8002 16.64 92.4002 15.54 91.9802 14.08H91.7802C92.3202 16.26 92.6002 18.02 92.6002 19.34V22.18C92.6002 22.8 92.3802 23 91.7402 23H89.7002C89.0602 23 88.8402 22.8 88.8402 22.18V9.62C88.8402 8.98 89.0602 8.78 89.7002 8.78H91.5802C92.2802 8.78 92.4602 8.9 92.7602 9.4L96.0602 15.88L99.3602 9.42C99.6202 8.88 99.8202 8.78 100.48 8.78ZM105.139 14.3798C105.859 12.9998 107.339 12.2998 109.579 12.2998C112.939 12.2998 114.239 13.8798 114.239 16.6198V21.5398C114.239 22.2598 114.099 22.4998 113.479 22.7398C112.599 23.1198 111.279 23.2998 109.519 23.2998C107.699 23.2998 106.459 23.0398 105.779 22.5198C105.099 21.9998 104.759 21.1598 104.759 19.9798C104.759 18.7198 105.139 17.8398 105.879 17.3598C106.619 16.8798 107.859 16.6398 109.619 16.6398C109.859 16.6398 110.379 16.6598 110.519 16.6598V16.1598C110.519 15.4798 110.139 15.1398 109.399 15.1398C108.859 15.1398 108.439 15.3598 108.099 15.8198C107.799 16.2198 107.659 16.2998 106.999 16.0798L105.559 15.4798C104.999 15.2398 104.879 14.9598 105.139 14.3798ZM110.52 20.6V19.18C110.34 19.16 110 19.16 109.46 19.16C108.76 19.16 108.4 19.42 108.4 19.96C108.4 20.46 108.64 20.76 109.42 20.76C109.88 20.76 110.22 20.74 110.42 20.7C110.48 20.7 110.52 20.66 110.52 20.6ZM116.54 13.04C117.82 12.54 119.24 12.3 120.8 12.3C123.82 12.3 125.3 13.84 125.3 16.62V22.24C125.3 22.8 125.12 23 124.54 23H122.34C121.78 23 121.58 22.8 121.58 22.24V16.76C121.58 16.02 121.18 15.66 120.38 15.66C120.02 15.66 119.72 15.68 119.5 15.74C119.46 15.76 119.44 15.78 119.44 15.82V22.24C119.44 22.8 119.26 23 118.68 23H116.48C115.9 23 115.72 22.8 115.72 22.24V14.24C115.72 13.58 115.88 13.3 116.54 13.04ZM126.842 14.3798C127.562 12.9998 129.042 12.2998 131.282 12.2998C134.642 12.2998 135.942 13.8798 135.942 16.6198V21.5398C135.942 22.2598 135.802 22.4998 135.182 22.7398C134.302 23.1198 132.982 23.2998 131.222 23.2998C129.402 23.2998 128.162 23.0398 127.482 22.5198C126.802 21.9998 126.462 21.1598 126.462 19.9798C126.462 18.7198 126.842 17.8398 127.582 17.3598C128.322 16.8798 129.562 16.6398 131.322 16.6398C131.562 16.6398 132.082 16.6598 132.222 16.6598V16.1598C132.222 15.4798 131.842 15.1398 131.102 15.1398C130.562 15.1398 130.142 15.3598 129.802 15.8198C129.502 16.2198 129.362 16.2998 128.702 16.0798L127.262 15.4798C126.702 15.2398 126.582 14.9598 126.842 14.3798ZM132.219 20.6002V19.1802C132.039 19.1602 131.699 19.1602 131.159 19.1602C130.459 19.1602 130.099 19.4202 130.099 19.9602C130.099 20.4602 130.339 20.7602 131.119 20.7602C131.579 20.7602 131.919 20.7402 132.119 20.7002C132.179 20.7002 132.219 20.6602 132.219 20.6002ZM137.302 18.4198V16.8198C137.302 13.8598 138.922 12.2998 142.182 12.2998C143.842 12.2998 145.162 12.5198 146.122 12.9798C146.782 13.2798 146.902 13.4798 146.902 14.1398V22.9798C146.902 25.7998 145.382 27.5998 142.082 27.5998C139.942 27.5998 138.462 26.9398 137.622 25.6198C137.322 25.1398 137.442 24.7598 138.002 24.4598L139.682 23.6398C140.142 23.4198 140.502 23.4798 140.762 23.8398C141.142 24.3198 141.562 24.5598 142.062 24.5598C142.802 24.5598 143.162 24.1798 143.162 23.3998V22.5998C142.622 22.6798 142.182 22.7198 141.802 22.7198C138.782 22.7198 137.302 21.1998 137.302 18.4198ZM143.1 15.62C142.9 15.56 142.62 15.54 142.28 15.54C141.46 15.54 141.04 15.9 141.04 16.64V18.5C141.04 19.16 141.42 19.5 142.18 19.5C142.5 19.5 143.02 19.4 143.16 19.4V15.72C143.16 15.66 143.14 15.64 143.1 15.62ZM148.099 18.6798V16.9198C148.099 13.9398 149.839 12.2998 153.099 12.2998C156.399 12.2998 158.119 14.1198 158.119 16.6798V17.7798C158.119 18.4798 157.759 18.8198 157.019 18.8198H151.819V19.1998C151.819 20.0598 152.259 20.4998 153.119 20.4998C153.799 20.4998 154.339 20.2598 154.719 19.7598C154.979 19.3598 155.179 19.2998 155.839 19.5598L157.219 20.1598C157.759 20.4198 157.879 20.7998 157.599 21.3198C156.839 22.6398 155.339 23.2998 153.079 23.2998C149.659 23.2998 148.099 21.4798 148.099 18.6798ZM154.381 16.3999V16.1399C154.381 15.3399 153.961 14.9399 153.101 14.9399C152.241 14.9399 151.821 15.3399 151.821 16.1399V16.3999H154.381ZM166.7 12.82C167.64 12.48 168.66 12.3 169.76 12.3C172.64 12.3 174.08 13.74 174.08 16.62V22.24C174.08 22.8 173.9 23 173.32 23H171.12C170.56 23 170.36 22.8 170.36 22.24V16.72C170.36 16.02 170.02 15.66 169.34 15.66C169.08 15.66 168.8 15.7 168.5 15.76C168.56 16.02 168.58 16.32 168.58 16.68V22.24C168.58 22.8 168.38 23 167.8 23H165.62C165.04 23 164.84 22.8 164.84 22.24V16.72C164.84 16.02 164.5 15.66 163.82 15.66C163.58 15.66 163.36 15.68 163.14 15.72C163.08 15.74 163.06 15.78 163.06 15.84V22.24C163.06 22.8 162.88 23 162.3 23H160.1C159.52 23 159.34 22.8 159.34 22.24V14.24C159.34 13.58 159.5 13.3 160.16 13.04C161.44 12.54 162.8 12.3 164.24 12.3C165.22 12.3 166.04 12.48 166.7 12.82ZM175.36 18.68V16.92C175.36 13.94 177.1 12.3 180.36 12.3C183.66 12.3 185.38 14.12 185.38 16.68V17.78C185.38 18.48 185.02 18.82 184.28 18.82H179.08V19.2C179.08 20.06 179.52 20.5 180.38 20.5C181.06 20.5 181.6 20.26 181.98 19.76C182.24 19.36 182.44 19.3 183.1 19.56L184.48 20.16C185.02 20.42 185.14 20.8 184.86 21.32C184.1 22.64 182.6 23.3 180.34 23.3C176.92 23.3 175.36 21.48 175.36 18.68ZM181.639 16.3999V16.1399C181.639 15.3399 181.219 14.9399 180.359 14.9399C179.499 14.9399 179.079 15.3399 179.079 16.1399V16.3999H181.639ZM187.419 13.0398C188.699 12.5398 190.119 12.2998 191.679 12.2998C194.699 12.2998 196.179 13.8398 196.179 16.6198V22.2398C196.179 22.7998 195.999 22.9998 195.419 22.9998H193.219C192.659 22.9998 192.459 22.7998 192.459 22.2398V16.7598C192.459 16.0198 192.059 15.6598 191.259 15.6598C190.899 15.6598 190.599 15.6798 190.379 15.7398C190.339 15.7598 190.319 15.7798 190.319 15.8198V22.2398C190.319 22.7998 190.139 22.9998 189.559 22.9998H187.359C186.779 22.9998 186.599 22.7998 186.599 22.2398V14.2398C186.599 13.5798 186.759 13.2998 187.419 13.0398ZM199.46 10.2H201.64C202.22 10.2 202.42 10.4 202.42 10.96V12.6H203.8C204.38 12.6 204.56 12.8 204.56 13.36V14.86C204.56 15.44 204.38 15.64 203.8 15.64H202.42V18.58C202.42 19.64 202.76 19.98 203.78 19.98C204.4 19.98 204.56 20.18 204.56 20.76V22.48C204.56 23.06 204.4 23.26 203.78 23.26C200.24 23.32 198.68 22.12 198.68 18.84V15.64H197.82C197.24 15.64 197.06 15.44 197.06 14.86V13.36C197.06 12.8 197.24 12.6 197.82 12.6H198.68V10.96C198.68 10.4 198.88 10.2 199.46 10.2Z" fill="white"/>
</svg>
