<svg width="202" height="30" viewBox="0 0 202 30" fill="none" xmlns="http://www.w3.org/2000/svg">
<path d="M23.2585 14.9999C23.2585 16.7243 22.7285 18.3247 21.8235 19.6504L26.6368 24.4509C28.7387 21.8714 30.0005 18.5828 30.0005 14.9999C30.0005 11.4169 28.7393 8.12831 26.6373 5.54883L21.824 10.3493C22.7285 11.675 23.2585 13.2754 23.2585 14.9999Z" fill="#2B2B40"/>
<path d="M19.623 21.8447C18.2937 22.7473 16.6891 23.2759 14.9601 23.2759C10.9097 23.2759 7.54175 20.3799 6.81309 16.5518H0C0.778446 24.1066 7.17923 30 14.9601 30C18.5531 30 21.8499 28.7421 24.4363 26.6457L19.623 21.8447Z" fill="#2B2B40"/>
<path d="M6.81309 13.4483C7.54175 9.62017 10.9097 6.72414 14.9601 6.72414C16.6891 6.72414 18.2937 7.25276 19.623 8.15534L24.4363 3.35483C21.8499 1.25793 18.5525 0 14.9601 0C7.17923 0 0.778446 5.89293 0 13.4483H6.81309Z" fill="#F9DB6D"/>
<path fill-rule="evenodd" clip-rule="evenodd" d="M51.0255 6.95902L55.6386 19.66C55.8383 20.1992 55.6386 20.4788 55.0594 20.4788H52.9027C51.8842 20.4788 51.5647 20.2791 51.4049 19.6401L50.9456 18.2022H46.632L46.1727 19.6401C45.953 20.2791 45.6735 20.4788 44.7149 20.4788H42.618C42.0589 20.4788 41.8791 20.1992 42.0788 19.66L46.672 6.99896C46.8517 6.43979 47.0913 6.3 47.7104 6.3H49.987C50.5662 6.3 50.8457 6.45976 51.0255 6.95902ZM50.0466 15.0664L49.3077 12.7299C49.068 11.9311 48.9083 10.8727 48.8883 10.3335L48.8683 9.93407H48.6686C48.6886 10.8926 48.5488 11.8113 48.2892 12.7099L47.5503 15.0664H50.0466ZM57.2766 6.29936H62.1494C66.0435 6.29936 68.2802 8.39623 68.2802 11.891V14.8865C68.2802 18.3414 66.0435 20.4782 62.1494 20.4782H57.2766C56.6376 20.4782 56.4179 20.2585 56.4179 19.6394V7.1381C56.4179 6.51903 56.6376 6.29936 57.2766 6.29936ZM64.3251 14.8266V11.9509C64.3251 10.5131 63.5463 9.79414 62.0086 9.79414H60.371V16.9834H62.0086C63.5463 16.9834 64.3251 16.2645 64.3251 14.8266ZM69.6149 10.4733C69.6149 9.13532 70.1342 8.03696 71.1926 7.21818C72.231 6.3994 73.6888 6 75.5461 6C78.4817 6 80.1792 6.87869 81.1178 8.79582C81.3774 9.31505 81.2176 9.69448 80.6385 9.91415L78.6414 10.7729C78.1023 11.0125 77.8826 10.9326 77.5631 10.3535C77.2236 9.65454 76.5446 9.31505 75.5461 9.31505C74.288 9.31505 73.6489 9.65454 73.6489 10.3535C73.6489 11.1323 74.4877 11.352 76.265 11.5717C77.5032 11.7314 77.9824 11.7914 79.1207 12.2507C79.6599 12.4703 80.0793 12.7499 80.3988 13.0495C81.0379 13.6685 81.5771 14.7869 81.5771 16.2247C81.5771 17.6426 80.9979 18.7609 79.8596 19.5597C78.7014 20.3785 77.2036 20.7779 75.3863 20.7779C72.271 20.7779 70.3339 19.7395 69.575 17.6826C69.3553 17.0635 69.535 16.8039 70.1142 16.5842L71.9914 15.9052C72.5705 15.6855 72.8701 15.7854 73.1696 16.3446C73.5291 17.0435 74.288 17.403 75.4263 17.403C76.8441 17.403 77.5631 17.0235 77.5631 16.2647C77.5631 15.5457 76.8042 15.3061 75.2266 15.0864C74.4078 14.9666 74.4078 14.9866 73.589 14.8068C73.2096 14.7469 72.93 14.6671 72.7303 14.6071C72.3109 14.4674 71.552 14.1878 71.1726 13.8882C70.7932 13.5887 70.2739 13.1294 70.0543 12.5702C69.8146 12.031 69.6149 11.332 69.6149 10.4733ZM98.0758 6.27937H100.073C100.712 6.27937 100.932 6.47907 100.932 7.11812V19.6594C100.932 20.2785 100.712 20.4782 100.073 20.4782H97.8961C97.257 20.4782 97.0573 20.2785 97.0573 19.6594V16.8037C97.0573 15.3658 97.3569 13.6284 97.936 11.5715H97.7163C97.6165 11.911 97.4168 12.4502 97.1172 13.189C96.8177 13.9279 96.578 14.4871 96.3783 14.8665L95.26 17.1232C95.0203 17.5425 94.8007 17.7023 94.3014 17.7023H92.9634C92.4242 17.7023 92.2245 17.5825 92.0049 17.1232L90.8266 14.8665C90.4072 14.1276 90.0078 13.0293 89.5885 11.5715H89.3888C89.928 13.7482 90.2075 15.5056 90.2075 16.8236V19.6594C90.2075 20.2785 89.9879 20.4782 89.3488 20.4782H87.3119C86.6728 20.4782 86.4531 20.2785 86.4531 19.6594V7.11812C86.4531 6.47907 86.6728 6.27937 87.3119 6.27937H89.1891C89.888 6.27937 90.0677 6.39919 90.3673 6.89844L93.6624 13.3688L96.9575 6.91841C97.2171 6.37922 97.4168 6.27937 98.0758 6.27937ZM102.727 11.8708C103.446 10.4929 104.924 9.79395 107.16 9.79395C110.515 9.79395 111.814 11.3716 111.814 14.1075V19.0202C111.814 19.7391 111.674 19.9787 111.055 20.2184C110.176 20.5978 108.858 20.7775 107.101 20.7775C105.283 20.7775 104.045 20.5179 103.366 19.9987C102.687 19.4795 102.348 18.6407 102.348 17.4625C102.348 16.2044 102.727 15.3257 103.466 14.8464C104.205 14.3671 105.443 14.1275 107.2 14.1275C107.44 14.1275 107.959 14.1474 108.099 14.1474V13.6482C108.099 12.9692 107.72 12.6297 106.981 12.6297C106.442 12.6297 106.022 12.8494 105.683 13.3087C105.383 13.7081 105.243 13.788 104.584 13.5683L103.146 12.9692C102.587 12.7296 102.467 12.45 102.727 11.8708ZM108.101 18.0819V16.664C107.921 16.644 107.582 16.644 107.043 16.644C106.344 16.644 105.984 16.9037 105.984 17.4429C105.984 17.9421 106.224 18.2417 107.003 18.2417C107.462 18.2417 107.802 18.2217 108.001 18.1817C108.061 18.1817 108.101 18.1418 108.101 18.0819ZM114.111 10.533C115.389 10.0338 116.807 9.79414 118.364 9.79414C121.38 9.79414 122.858 11.3318 122.858 14.1077V19.7193C122.858 20.2785 122.678 20.4782 122.099 20.4782H119.902C119.343 20.4782 119.143 20.2785 119.143 19.7193V14.2475C119.143 13.5086 118.744 13.1491 117.945 13.1491C117.586 13.1491 117.286 13.1691 117.066 13.229C117.026 13.249 117.006 13.2689 117.006 13.3089V19.7193C117.006 20.2785 116.827 20.4782 116.248 20.4782H114.051C113.472 20.4782 113.292 20.2785 113.292 19.7193V11.7312C113.292 11.0722 113.452 10.7926 114.111 10.533ZM124.396 11.871C125.115 10.4931 126.592 9.79414 128.829 9.79414C132.184 9.79414 133.482 11.3718 133.482 14.1077V19.0204C133.482 19.7393 133.342 19.9789 132.723 20.2186C131.844 20.598 130.526 20.7777 128.769 20.7777C126.952 20.7777 125.714 20.5181 125.035 19.9989C124.356 19.4797 124.016 18.6409 124.016 17.4627C124.016 16.2046 124.396 15.3259 125.135 14.8466C125.873 14.3673 127.112 14.1277 128.869 14.1277C129.109 14.1277 129.628 14.1476 129.768 14.1476V13.6484C129.768 12.9694 129.388 12.6299 128.649 12.6299C128.11 12.6299 127.691 12.8496 127.351 13.3089C127.052 13.7083 126.912 13.7882 126.253 13.5685L124.815 12.9694C124.256 12.7298 124.136 12.4502 124.396 11.871ZM129.768 18.0821V16.6642C129.588 16.6443 129.249 16.6443 128.71 16.6443C128.011 16.6443 127.651 16.9039 127.651 17.4431C127.651 17.9423 127.891 18.2419 128.67 18.2419C129.129 18.2419 129.469 18.2219 129.668 18.182C129.728 18.182 129.768 18.142 129.768 18.0821ZM134.84 15.905V14.3074C134.84 11.3518 136.457 9.79414 139.713 9.79414C141.37 9.79414 142.688 10.0138 143.647 10.4731C144.306 10.7727 144.426 10.9724 144.426 11.6314V20.4582C144.426 23.274 142.908 25.0713 139.613 25.0713C137.476 25.0713 135.998 24.4123 135.159 23.0943C134.86 22.615 134.98 22.2356 135.539 21.936L137.216 21.1172C137.676 20.8976 138.035 20.9575 138.295 21.3169C138.674 21.7962 139.094 22.0359 139.593 22.0359C140.332 22.0359 140.691 21.6564 140.691 20.8776V20.0788C140.152 20.1587 139.713 20.1986 139.333 20.1986C136.318 20.1986 134.84 18.6809 134.84 15.905ZM140.631 13.1094C140.432 13.0495 140.152 13.0295 139.813 13.0295C138.994 13.0295 138.575 13.389 138.575 14.1279V15.9851C138.575 16.6441 138.954 16.9836 139.713 16.9836C140.032 16.9836 140.552 16.8838 140.691 16.8838V13.2093C140.691 13.1494 140.671 13.1294 140.631 13.1094ZM145.625 16.1646V14.4072C145.625 11.4317 147.362 9.79414 150.617 9.79414C153.912 9.79414 155.63 11.6114 155.63 14.1676V15.266C155.63 15.9649 155.27 16.3044 154.531 16.3044H149.339V16.6838C149.339 17.5426 149.778 17.9819 150.637 17.9819C151.316 17.9819 151.855 17.7423 152.235 17.243C152.494 16.8436 152.694 16.7837 153.353 17.0433L154.731 17.6424C155.27 17.902 155.39 18.2815 155.11 18.8007C154.352 20.1187 152.854 20.7777 150.597 20.7777C147.182 20.7777 145.625 18.9604 145.625 16.1646ZM151.892 13.888V13.6284C151.892 12.8296 151.473 12.4302 150.614 12.4302C149.755 12.4302 149.336 12.8296 149.336 13.6284V13.888H151.892ZM164.197 10.3134C165.136 9.97387 166.154 9.79414 167.252 9.79414C170.128 9.79414 171.566 11.232 171.566 14.1077V19.7193C171.566 20.2785 171.386 20.4782 170.807 20.4782H168.61C168.051 20.4782 167.852 20.2785 167.852 19.7193V14.2075C167.852 13.5086 167.512 13.1491 166.833 13.1491C166.573 13.1491 166.294 13.1891 165.994 13.249C166.054 13.5086 166.074 13.8081 166.074 14.1676V19.7193C166.074 20.2785 165.875 20.4782 165.295 20.4782H163.119C162.54 20.4782 162.34 20.2785 162.34 19.7193V14.2075C162.34 13.5086 162 13.1491 161.321 13.1491C161.082 13.1491 160.862 13.1691 160.642 13.209C160.582 13.229 160.562 13.2689 160.562 13.3289V19.7193C160.562 20.2785 160.383 20.4782 159.804 20.4782H157.607C157.028 20.4782 156.848 20.2785 156.848 19.7193V11.7312C156.848 11.0722 157.008 10.7926 157.667 10.533C158.945 10.0338 160.303 9.79414 161.741 9.79414C162.719 9.79414 163.538 9.97387 164.197 10.3134ZM172.844 16.1646V14.4072C172.844 11.4317 174.581 9.79414 177.836 9.79414C181.131 9.79414 182.849 11.6114 182.849 14.1676V15.266C182.849 15.9649 182.489 16.3044 181.75 16.3044H176.558V16.6838C176.558 17.5426 176.997 17.9819 177.856 17.9819C178.535 17.9819 179.074 17.7423 179.454 17.243C179.713 16.8436 179.913 16.7837 180.572 17.0433L181.95 17.6424C182.489 17.902 182.609 18.2815 182.329 18.8007C181.571 20.1187 180.073 20.7777 177.816 20.7777C174.401 20.7777 172.844 18.9604 172.844 16.1646ZM179.115 13.8882V13.6285C179.115 12.8297 178.696 12.4303 177.837 12.4303C176.978 12.4303 176.559 12.8297 176.559 13.6285V13.8882H179.115ZM184.886 10.533C186.164 10.0338 187.582 9.79414 189.14 9.79414C192.155 9.79414 193.633 11.3318 193.633 14.1077V19.7193C193.633 20.2785 193.453 20.4782 192.874 20.4782H190.677C190.118 20.4782 189.918 20.2785 189.918 19.7193V14.2475C189.918 13.5086 189.519 13.1491 188.72 13.1491C188.361 13.1491 188.061 13.1691 187.841 13.229C187.802 13.249 187.782 13.2689 187.782 13.3089V19.7193C187.782 20.2785 187.602 20.4782 187.023 20.4782H184.826C184.247 20.4782 184.067 20.2785 184.067 19.7193V11.7312C184.067 11.0722 184.227 10.7926 184.886 10.533ZM196.908 7.69775H199.085C199.664 7.69775 199.864 7.89746 199.864 8.45662V10.0942H201.242C201.821 10.0942 202.001 10.2939 202.001 10.853V12.3508C202.001 12.9299 201.821 13.1296 201.242 13.1296H199.864V16.0653C199.864 17.1237 200.203 17.4632 201.222 17.4632C201.841 17.4632 202.001 17.6629 202.001 18.242V19.9594C202.001 20.5386 201.841 20.7383 201.222 20.7383C197.687 20.7982 196.129 19.6 196.129 16.3249V13.1296H195.271C194.691 13.1296 194.512 12.9299 194.512 12.3508V10.853C194.512 10.2939 194.691 10.0942 195.271 10.0942H196.129V8.45662C196.129 7.89746 196.329 7.69775 196.908 7.69775Z" fill="#2B2B40"/>
</svg>
