<svg width="205" height="30" fill="none" xmlns="http://www.w3.org/2000/svg"><path d="M23.236 15a8.234 8.234 0 01-1.431 4.65l4.8 4.801A14.934 14.934 0 0029.96 15c0-3.583-1.258-6.872-3.354-9.451l-4.8 4.8A8.238 8.238 0 0123.235 15zm-3.626 6.845a8.234 8.234 0 01-4.65 1.43c-4.04 0-7.398-2.895-8.125-6.723H.04C.816 24.107 7.2 30 14.96 30c3.584 0 6.872-1.258 9.451-3.354l-4.8-4.801z" fill="#fff"/><path d="M6.835 13.448c.727-3.828 4.086-6.724 8.125-6.724 1.725 0 3.325.529 4.65 1.431l4.801-4.8A14.931 14.931 0 0014.961 0C7.2 0 .815 5.893.04 13.448h6.795z" fill="#F9DB6D"/><path fill-rule="evenodd" clip-rule="evenodd" d="M53.36 9.46l4.62 12.72c.2.54 0 .82-.58.82h-2.16c-1.02 0-1.34-.2-1.5-.84l-.46-1.44h-4.32l-.46 1.44c-.22.64-.5.84-1.46.84h-2.1c-.56 0-.74-.28-.54-.82L49 9.5c.18-.56.42-.7 1.04-.7h2.28c.58 0 .86.16 1.04.66zm-.98 8.12l-.74-2.34c-.24-.8-.4-1.86-.42-2.4l-.02-.4H51c.02.96-.12 1.88-.38 2.78l-.74 2.36h2.5zm7.24-8.78h4.88c3.9 0 6.14 2.1 6.14 5.6v3c0 3.46-2.24 5.6-6.14 5.6h-4.88c-.64 0-.86-.22-.86-.84V9.64c0-.62.22-.84.86-.84zm7.061 8.54v-2.88c0-1.44-.78-2.16-2.32-2.16h-1.64v7.2h1.64c1.54 0 2.32-.72 2.32-2.16zm5.3-4.36c0-1.34.52-2.44 1.58-3.26 1.04-.82 2.5-1.22 4.36-1.22 2.94 0 4.64.88 5.58 2.8.26.52.1.9-.48 1.12l-2 .86c-.54.24-.76.16-1.08-.42-.34-.7-1.02-1.04-2.02-1.04-1.26 0-1.9.34-1.9 1.04 0 .78.84 1 2.62 1.22 1.24.16 1.72.22 2.86.68.54.22.96.5 1.28.8.64.62 1.18 1.74 1.18 3.18 0 1.42-.58 2.54-1.72 3.34-1.16.82-2.66 1.22-4.48 1.22-3.12 0-5.06-1.04-5.82-3.1-.22-.62-.04-.88.54-1.1l1.88-.68c.58-.22.88-.12 1.18.44.36.7 1.12 1.06 2.26 1.06 1.42 0 2.14-.38 2.14-1.14 0-.72-.76-.96-2.34-1.18-.82-.12-.82-.1-1.64-.28a6.24 6.24 0 01-.86-.2c-.42-.14-1.18-.42-1.56-.72-.38-.3-.9-.76-1.12-1.32a5.12 5.12 0 01-.44-2.1zm28.5-4.2h2c.64 0 .86.2.86.84v12.56c0 .62-.22.82-.86.82h-2.18c-.64 0-.84-.2-.84-.82v-2.86c0-1.44.3-3.18.88-5.24h-.22c-.1.34-.3.88-.6 1.62-.3.74-.54 1.3-.74 1.68l-1.12 2.26c-.24.42-.46.58-.96.58h-1.34c-.54 0-.74-.12-.96-.58l-1.18-2.26c-.42-.74-.82-1.84-1.24-3.3h-.2c.54 2.18.82 3.94.82 5.26v2.84c0 .62-.22.82-.86.82H89.7c-.64 0-.86-.2-.86-.82V9.62c0-.64.22-.84.86-.84h1.88c.7 0 .88.12 1.18.62l3.3 6.48 3.3-6.46c.26-.54.46-.64 1.12-.64zm4.659 5.6c.72-1.38 2.2-2.08 4.44-2.08 3.36 0 4.66 1.58 4.66 4.32v4.92c0 .72-.14.96-.76 1.2-.88.38-2.2.56-3.96.56-1.82 0-3.06-.26-3.74-.78-.68-.52-1.02-1.36-1.02-2.54 0-1.26.38-2.14 1.12-2.62.74-.48 1.98-.72 3.74-.72.24 0 .76.02.9.02v-.5c0-.68-.38-1.02-1.12-1.02-.54 0-.96.22-1.3.68-.3.4-.44.48-1.1.26l-1.44-.6c-.56-.24-.68-.52-.42-1.1zm5.381 6.22v-1.42c-.18-.02-.52-.02-1.06-.02-.7 0-1.06.26-1.06.8 0 .5.24.8 1.02.8.46 0 .8-.02 1-.06.06 0 .1-.04.1-.1zm6.02-7.56c1.28-.5 2.7-.74 4.26-.74 3.02 0 4.5 1.54 4.5 4.32v5.62c0 .56-.18.76-.76.76h-2.2c-.56 0-.76-.2-.76-.76v-5.48c0-.74-.4-1.1-1.2-1.1-.36 0-.66.02-.88.08-.04.02-.06.04-.06.08v6.42c0 .56-.18.76-.76.76h-2.2c-.58 0-.76-.2-.76-.76v-8c0-.66.16-.94.82-1.2zm10.302 1.34c.72-1.38 2.2-2.08 4.44-2.08 3.36 0 4.66 1.58 4.66 4.32v4.92c0 .72-.14.96-.76 1.2-.88.38-2.2.56-3.96.56-1.82 0-3.06-.26-3.74-.78-.68-.52-1.02-1.36-1.02-2.54 0-1.26.38-2.14 1.12-2.62.74-.48 1.98-.72 3.74-.72.24 0 .76.02.9.02v-.5c0-.68-.38-1.02-1.12-1.02-.54 0-.96.22-1.3.68-.3.4-.44.48-1.1.26l-1.44-.6c-.56-.24-.68-.52-.42-1.1zm5.377 6.22v-1.42c-.18-.02-.52-.02-1.06-.02-.7 0-1.06.26-1.06.8 0 .5.24.8 1.02.8.46 0 .8-.02 1-.06.06 0 .1-.04.1-.1zm5.083-2.18v-1.6c0-2.96 1.62-4.52 4.88-4.52 1.66 0 2.98.22 3.94.68.66.3.78.5.78 1.16v8.84c0 2.82-1.52 4.62-4.82 4.62-2.14 0-3.62-.66-4.46-1.98-.3-.48-.18-.86.38-1.16l1.68-.82c.46-.22.82-.16 1.08.2.38.48.8.72 1.3.72.74 0 1.1-.38 1.1-1.16v-.8c-.54.08-.98.12-1.36.12-3.02 0-4.5-1.52-4.5-4.3zm5.798-2.8c-.2-.06-.48-.08-.82-.08-.82 0-1.24.36-1.24 1.1v1.86c0 .66.38 1 1.14 1 .32 0 .84-.1.98-.1v-3.68c0-.06-.02-.08-.06-.1zm4.999 3.06v-1.76c0-2.98 1.74-4.62 5-4.62 3.3 0 5.02 1.82 5.02 4.38v1.1c0 .7-.36 1.04-1.1 1.04h-5.2v.38c0 .86.44 1.3 1.3 1.3.68 0 1.22-.24 1.6-.74.26-.4.46-.46 1.12-.2l1.38.6c.54.26.66.64.38 1.16-.76 1.32-2.26 1.98-4.52 1.98-3.42 0-4.98-1.82-4.98-4.62zm6.282-2.28v-.26c0-.8-.42-1.2-1.28-1.2-.86 0-1.28.4-1.28 1.2v.26h2.56zm12.319-3.58c.94-.34 1.96-.52 3.06-.52 2.88 0 4.32 1.44 4.32 4.32v5.62c0 .56-.18.76-.76.76h-2.2c-.56 0-.76-.2-.76-.76v-5.52c0-.7-.34-1.06-1.02-1.06-.26 0-.54.04-.84.1.06.26.08.56.08.92v5.56c0 .56-.2.76-.78.76h-2.18c-.58 0-.78-.2-.78-.76v-5.52c0-.7-.34-1.06-1.02-1.06-.24 0-.46.02-.68.06-.06.02-.08.06-.08.12v6.4c0 .56-.18.76-.76.76h-2.2c-.58 0-.76-.2-.76-.76v-8c0-.66.16-.94.82-1.2 1.28-.5 2.64-.74 4.08-.74.98 0 1.8.18 2.46.52zm8.66 5.86v-1.76c0-2.98 1.74-4.62 5-4.62 3.3 0 5.02 1.82 5.02 4.38v1.1c0 .7-.36 1.04-1.1 1.04h-5.2v.38c0 .86.44 1.3 1.3 1.3.68 0 1.22-.24 1.6-.74.26-.4.46-.46 1.12-.2l1.38.6c.54.26.66.64.38 1.16-.76 1.32-2.26 1.98-4.52 1.98-3.42 0-4.98-1.82-4.98-4.62zm6.279-2.28v-.26c0-.8-.42-1.2-1.28-1.2-.86 0-1.28.4-1.28 1.2v.26h2.56zm5.78-3.36c1.28-.5 2.7-.74 4.26-.74 3.02 0 4.5 1.54 4.5 4.32v5.62c0 .56-.18.76-.76.76h-2.2c-.56 0-.76-.2-.76-.76v-5.48c0-.74-.4-1.1-1.2-1.1-.36 0-.66.02-.88.08-.04.02-.06.04-.06.08v6.42c0 .56-.18.76-.76.76h-2.2c-.58 0-.76-.2-.76-.76v-8c0-.66.16-.94.82-1.2zm12.041-2.84h2.18c.58 0 .78.2.78.76v1.64h1.38c.58 0 .76.2.76.76v1.5c0 .58-.18.78-.76.78h-1.38v2.94c0 1.06.34 1.4 1.36 1.4.62 0 .78.2.78.78v1.72c0 .58-.16.78-.78.78-3.54.06-5.1-1.14-5.1-4.42v-3.2h-.86c-.58 0-.76-.2-.76-.78v-1.5c0-.56.18-.76.76-.76h.86v-1.64c0-.56.2-.76.78-.76z" fill="#fff"/></svg>