<svg width="202" height="30" fill="none" xmlns="http://www.w3.org/2000/svg"><path d="M23.259 15a8.22 8.22 0 01-1.436 4.65l4.814 4.8A14.91 14.91 0 0030 15c0-3.583-1.26-6.872-3.363-9.451l-4.813 4.8A8.223 8.223 0 0123.258 15zm-3.636 6.845a8.272 8.272 0 01-4.663 1.43 8.29 8.29 0 01-8.147-6.723H0C.778 24.107 7.18 30 14.96 30c3.593 0 6.89-1.258 9.476-3.354l-4.813-4.801z" fill="#2B2B40"/><path d="M6.813 13.448a8.29 8.29 0 018.147-6.724c1.73 0 3.334.529 4.663 1.431l4.813-4.8A14.996 14.996 0 0014.96 0C7.18 0 .778 5.893 0 13.448h6.813z" fill="#F9DB6D"/><path fill-rule="evenodd" clip-rule="evenodd" d="M51.026 6.959l4.613 12.701c.2.54 0 .819-.58.819h-2.156c-1.019 0-1.338-.2-1.498-.839l-.46-1.438h-4.313l-.46 1.438c-.219.64-.498.839-1.457.839h-2.097c-.56 0-.739-.28-.54-.819l4.594-12.661c.18-.56.42-.699 1.038-.699h2.277c.58 0 .859.16 1.038.659zm-.98 8.107l-.738-2.336c-.24-.799-.4-1.857-.42-2.396l-.02-.4h-.2c.02.959-.12 1.877-.379 2.776l-.739 2.356h2.497zm7.23-8.767h4.873c3.894 0 6.131 2.097 6.131 5.592v2.995c0 3.455-2.237 5.592-6.13 5.592h-4.873c-.64 0-.86-.22-.86-.839V7.14c0-.62.22-.84.86-.84zm7.05 8.528V11.95c0-1.438-.78-2.157-2.317-2.157H60.37v7.19h1.638c1.537 0 2.316-.72 2.316-2.157zm5.289-4.354c0-1.338.52-2.436 1.578-3.255C72.23 6.4 73.689 6 75.546 6c2.936 0 4.633.879 5.572 2.796.26.519.1.898-.48 1.118l-1.997.859c-.539.24-.758.16-1.078-.42-.34-.698-1.018-1.038-2.017-1.038-1.258 0-1.897.34-1.897 1.039 0 .778.839.998 2.616 1.218 1.238.16 1.717.22 2.856.679.539.22.958.499 1.278.799.639.618 1.178 1.737 1.178 3.175 0 1.418-.58 2.536-1.717 3.335-1.159.819-2.656 1.218-4.474 1.218-3.115 0-5.052-1.038-5.811-3.095-.22-.62-.04-.88.54-1.099l1.876-.679c.58-.22.88-.12 1.179.44.36.699 1.118 1.058 2.256 1.058 1.418 0 2.137-.38 2.137-1.138 0-.72-.759-.959-2.336-1.179-.82-.12-.82-.1-1.638-.28a6.246 6.246 0 01-.859-.199c-.42-.14-1.178-.42-1.557-.719-.38-.3-.9-.759-1.119-1.318a5.112 5.112 0 01-.44-2.097zm28.46-4.194h1.998c.639 0 .859.2.859.84v12.54c0 .62-.22.82-.859.82h-2.177c-.639 0-.839-.2-.839-.82v-2.855c0-1.438.3-3.176.879-5.232h-.22c-.1.339-.3.878-.599 1.617-.3.739-.539 1.298-.739 1.678l-1.118 2.256c-.24.42-.46.58-.959.58h-1.338c-.539 0-.738-.12-.958-.58l-1.178-2.257c-.42-.738-.82-1.837-1.239-3.294h-.2c.54 2.176.82 3.934.82 5.252v2.835c0 .62-.22.82-.86.82h-2.036c-.64 0-.859-.2-.859-.82V7.12c0-.64.22-.84.859-.84h1.877c.699 0 .879.12 1.178.62l3.295 6.47 3.295-6.45c.26-.54.46-.64 1.119-.64zm4.652 5.592c.719-1.378 2.197-2.077 4.433-2.077 3.355 0 4.654 1.578 4.654 4.313v4.913c0 .72-.14.959-.759 1.198-.879.38-2.197.56-3.954.56-1.818 0-3.056-.26-3.735-.78-.679-.518-1.018-1.357-1.018-2.536 0-1.258.379-2.136 1.118-2.616.739-.479 1.977-.719 3.734-.719.24 0 .759.02.899.02v-.499c0-.679-.379-1.018-1.118-1.018-.539 0-.959.22-1.298.679-.3.4-.44.479-1.099.26l-1.438-.6c-.559-.24-.679-.519-.419-1.098zm5.374 6.21v-1.417c-.18-.02-.519-.02-1.058-.02-.699 0-1.059.26-1.059.799 0 .5.24.799 1.019.799.459 0 .799-.02.998-.06.06 0 .1-.04.1-.1zm6.01-7.548c1.278-.5 2.696-.739 4.253-.739 3.016 0 4.494 1.538 4.494 4.314v5.611c0 .56-.18.76-.759.76h-2.197c-.559 0-.759-.2-.759-.76v-5.472c0-.738-.399-1.098-1.198-1.098-.359 0-.659.02-.879.08-.04.02-.06.04-.06.08v6.41c0 .56-.179.76-.758.76h-2.197c-.579 0-.759-.2-.759-.76v-7.988c0-.659.16-.938.819-1.198zm10.285 1.338c.719-1.378 2.196-2.077 4.433-2.077 3.355 0 4.653 1.578 4.653 4.314v4.912c0 .72-.14.959-.759 1.199-.879.379-2.197.559-3.954.559-1.817 0-3.055-.26-3.734-.78-.679-.518-1.019-1.357-1.019-2.535 0-1.258.38-2.137 1.119-2.616.738-.48 1.977-.72 3.734-.72.24 0 .759.02.899.02v-.499c0-.679-.38-1.018-1.119-1.018-.539 0-.958.22-1.298.679-.299.4-.439.48-1.098.26l-1.438-.6c-.559-.24-.679-.519-.419-1.098zm5.372 6.211v-1.418c-.18-.02-.519-.02-1.058-.02-.699 0-1.059.26-1.059.8 0 .498.24.798 1.019.798.459 0 .799-.02.998-.06.06 0 .1-.04.1-.1zm5.072-2.177v-1.598c0-2.955 1.617-4.513 4.873-4.513 1.657 0 2.975.22 3.934.68.659.299.779.498.779 1.157v8.827c0 2.816-1.518 4.613-4.813 4.613-2.137 0-3.615-.659-4.454-1.977-.299-.479-.179-.858.38-1.158l1.677-.819c.46-.22.819-.16 1.079.2.379.48.799.719 1.298.719.739 0 1.098-.38 1.098-1.158v-.8c-.539.08-.978.12-1.358.12-3.015 0-4.493-1.517-4.493-4.293zm5.791-2.796c-.199-.06-.479-.08-.818-.08-.819 0-1.238.36-1.238 1.099v1.857c0 .66.379.999 1.138.999.319 0 .839-.1.978-.1v-3.675c0-.06-.02-.08-.06-.1zm4.994 3.056v-1.758c0-2.975 1.737-4.613 4.992-4.613 3.295 0 5.013 1.817 5.013 4.374v1.098c0 .699-.36 1.038-1.099 1.038h-5.192v.38c0 .859.439 1.298 1.298 1.298.679 0 1.218-.24 1.598-.739.259-.4.459-.46 1.118-.2l1.378.6c.539.259.659.639.379 1.158-.758 1.318-2.256 1.977-4.513 1.977-3.415 0-4.972-1.818-4.972-4.613zm6.267-2.277v-.26c0-.798-.419-1.198-1.278-1.198s-1.278.4-1.278 1.198v.26h2.556zm12.305-3.575a8.92 8.92 0 013.055-.519c2.876 0 4.314 1.438 4.314 4.314v5.611c0 .56-.18.76-.759.76h-2.197c-.559 0-.758-.2-.758-.76v-5.512c0-.698-.34-1.058-1.019-1.058-.26 0-.539.04-.839.1.06.26.08.56.08.919v5.551c0 .56-.199.76-.779.76h-2.176c-.579 0-.779-.2-.779-.76v-5.512c0-.698-.34-1.058-1.019-1.058-.239 0-.459.02-.679.06-.06.02-.08.06-.08.12v6.39c0 .56-.179.76-.758.76h-2.197c-.579 0-.759-.2-.759-.76v-7.988c0-.659.16-.938.819-1.198 1.278-.5 2.636-.739 4.074-.739.978 0 1.797.18 2.456.52zm8.647 5.852v-1.758c0-2.975 1.737-4.613 4.992-4.613 3.295 0 5.013 1.817 5.013 4.374v1.098c0 .699-.36 1.038-1.099 1.038h-5.192v.38c0 .859.439 1.298 1.298 1.298.679 0 1.218-.24 1.598-.739.259-.4.459-.46 1.118-.2l1.378.6c.539.259.659.639.379 1.158-.758 1.318-2.256 1.977-4.513 1.977-3.415 0-4.972-1.818-4.972-4.613zm6.271-2.277v-.26c0-.798-.419-1.198-1.278-1.198s-1.278.4-1.278 1.199v.26h2.556zm5.771-3.355c1.278-.5 2.696-.739 4.254-.739 3.015 0 4.493 1.538 4.493 4.314v5.611c0 .56-.18.76-.759.76h-2.197c-.559 0-.759-.2-.759-.76v-5.472c0-.738-.399-1.098-1.198-1.098-.359 0-.659.02-.879.08-.039.02-.059.04-.059.08v6.41c0 .56-.18.76-.759.76h-2.197c-.579 0-.759-.2-.759-.76v-7.988c0-.659.16-.938.819-1.198zm12.022-2.835h2.177c.579 0 .779.2.779.759v1.637h1.378c.579 0 .759.2.759.759v1.498c0 .579-.18.779-.759.779h-1.378v2.935c0 1.059.339 1.398 1.358 1.398.619 0 .779.2.779.779v1.717c0 .58-.16.78-.779.78-3.535.06-5.093-1.139-5.093-4.414V13.13h-.858c-.58 0-.759-.2-.759-.78v-1.497c0-.56.179-.759.759-.759h.858V8.457c0-.56.2-.76.779-.76z" fill="#2B2B40"/></svg>