<svg width="1440" height="895" fill="none" xmlns="http://www.w3.org/2000/svg"><path d="M945 145.668c-290.141-38.725-363.834 84.998-653.313 20.731C176.018 140.72 81.696 140.519 0 159v727h1440V0c-222.08 69.613-195.81 185.601-495 145.668z" fill="url(#paint0_linear)"/><path opacity=".3" d="M-14.335 876.89s51.286-68.086 130.861-2.962c100.979 82.641 128.111-182.31 237.317-207.647 119.946-27.828 162.135 152.618 371.989 126.929 209.853-25.688 444.518-493.523 646.138-498.087 151.2-3.422 143.41 119.118 200.77 80.861" stroke="#8F8FB8" stroke-width="2"/><ellipse cx="328.612" cy="677.482" rx="5.949" ry="5.997" transform="rotate(-1.297 328.612 677.482)" fill="#F4F8FC"/><ellipse cx="328.608" cy="677.483" rx="4.118" ry="4.152" transform="rotate(-1.297 328.608 677.483)" fill="#50E3C2"/><ellipse cx="1327.22" cy="302.706" rx="6.94" ry="6.997" transform="rotate(-1.297 1327.22 302.706)" fill="#EAF4FB"/><ellipse cx="1327.22" cy="302.708" rx="5.09" ry="5.131" transform="rotate(-1.297 1327.22 302.708)" fill="#50E3C2"/><defs><linearGradient id="paint0_linear" x1="720" y1="0" x2="720" y2="886" gradientUnits="userSpaceOnUse"><stop offset=".339" stop-color="#EAF4FB"/><stop offset="1" stop-color="#EAF4FB" stop-opacity="0"/></linearGradient></defs></svg>