<svg width="588" height="347" fill="none" xmlns="http://www.w3.org/2000/svg"><path opacity=".2" d="M826.695 34.094C724.969 109.8 710.148 45.649 621.71 70.219c-86.261 23.966-68.109 88.519-166.235 128.334-79.91 32.424-150.5-27.317-234.436 6.342-83.937 33.658-61.26 100.25-207.49 108.643" stroke="url(#paint0_linear)" stroke-width="3"/><path d="M429.629 211.583a4.931 4.931 0 004.567-5.268 4.927 4.927 0 00-5.253-4.58 4.931 4.931 0 00-4.568 5.268 4.927 4.927 0 005.254 4.58zM158.248 254.47a4.194 4.194 0 003.884-4.479 4.189 4.189 0 00-4.467-3.894 4.193 4.193 0 00-3.884 4.479 4.19 4.19 0 004.467 3.894z" fill="#BFE3FD" stroke="#E4F3FE"/><defs><linearGradient id="paint0_linear" x1="766.008" y1="-28.085" x2="-291.949" y2="612.465" gradientUnits="userSpaceOnUse"><stop offset=".15" stop-color="#1C9BF7"/><stop offset=".341" stop-color="#76D7E4"/><stop offset=".698" stop-color="#1C9BF7" stop-opacity="0"/></linearGradient></defs></svg>