<svg width="389" height="252" fill="none" xmlns="http://www.w3.org/2000/svg"><path opacity=".2" d="M-215.799 240.908c74.479-55.14 98.857-2.094 157.443-30.713C13.99 174.854-10.972 119.282 45.356 94.809s90.607 14.672 151.908-4.873C258.566 70.39 273.925 12.99 360.253 2.334" stroke="url(#paint0_linear)" stroke-width="3"/><path d="M269.579 45.742a3.196 3.196 0 002.961-3.414 3.193 3.193 0 00-3.406-2.968 3.198 3.198 0 00-2.962 3.414 3.195 3.195 0 003.407 2.968zM70.327 91.374a3.736 3.736 0 003.461-3.99 3.733 3.733 0 00-3.98-3.47 3.736 3.736 0 00-3.462 3.99 3.733 3.733 0 003.981 3.47z" fill="#BFE3FD" stroke="#E4F3FE"/><defs><linearGradient id="paint0_linear" x1="-176.538" y1="206.062" x2="633.222" y2="-154.375" gradientUnits="userSpaceOnUse"><stop offset=".238" stop-color="#1C9BF7"/><stop offset=".401" stop-color="#7EE2DB"/><stop offset=".631" stop-color="#1C9BF7" stop-opacity="0"/></linearGradient></defs></svg>