<svg width="1440" height="677" fill="none" xmlns="http://www.w3.org/2000/svg"><path opacity=".7" d="M345.5 39.686C221 57.456 154 4.218 0 4.218v629.437c103-1.998 251 54.237 375.5 36.467 124.5-17.769 249-49.143 364.5-38.465 163 15.069 306.5 51.454 437.5 44.46s172-42.462 262.5-42.462V4.218c-67.5 0-127-2.498-292.5 32.47C982 71.657 863 17.288 700 2.22 584.5-8.459 470 21.916 345.5 39.686z" fill="url(#paint0_linear)"/><path opacity=".15" d="M.096 158c70.496 0 86.995 82.5 156.99 80 69.996-2.5 139.492-105.5 220.487-110s86.995 43.5 153.491 40c66.496-3.5 94.494-79.5 163.49-80 68.996-.5 118.993 72 178.489 70 59.497-2 91.495-47.072 171.987-44 80.5 3.072 126.5 102.765 201.99 100.5 75.5-2.265 107.49-56.5 192.99-56.5" stroke="#fff" stroke-width="2"/><circle cx="106.117" cy="222" r="3" fill="#84E5E2"/><circle cx="253.245" cy="191.333" r="3" fill="#86E1E7"/><circle cx="397.072" cy="128" r="3" fill="#89DDEC"/><circle cx="529.064" cy="168" r="3" fill="#8CD9F1"/><circle cx="694.218" cy="88.332" r="3" fill="#8ED4F5"/><circle cx="862.208" cy="157.333" r="3" fill="#91D1F9"/><circle cx="1037.2" cy="114.333" r="3" fill="#8FD4F5"/><circle cx="1237.19" cy="214.333" r="3" fill="#8ADBED"/><circle cx="1392.93" cy="164" r="3" fill="#85E3E4"/><path opacity=".15" d="M.117 203.736c67.996 0 94.995-33.956 133.992-29.999 38.998 3.956 72.496 88.632 129.992 79.816C321.598 244.737 365.095 88.81 445.59 98.427c80.495 9.617 126.493 97.309 187.489 85.87 60.996-11.44 111.993-83.128 183.989-83.128 71.996 0 122.493 92.835 209.992 87.568 87.49-5.267 104.9-39.999 179.99-43.5 75.09-3.5 92.99 58.5 232.98 58.5" stroke="#fff"/><circle cx="1312.68" cy="187.832" r="2.5" fill="#7FDFE5"/><circle cx="1204.69" cy="157.832" r="2.5" fill="#84D7EF"/><circle cx="973.703" cy="179.832" r="2.5" fill="#8ACEF8"/><circle cx="818.617" cy="101.5" r="2.5" fill="#89CEF7"/><circle cx="643.723" cy="181.832" r="2.5" fill="#86D4F2"/><circle cx="446.73" cy="98.832" r="2.5" fill="#83D9EC"/><circle cx="301.617" cy="228.5" r="2.5" fill="#80DDE7"/><circle cx="130.59" cy="173.5" r="2.5" fill="#7DE2E1"/><mask id="path-21-inside-1" fill="#fff"><path fill-rule="evenodd" clip-rule="evenodd" d="M.117 455.499l1.004.001c96.99 0 144.487 94 251.981 94 107.493 0 134.992-84.002 233.486-84.001 98.494 0 149.491 84.001 252.985 84.001 103.493 0 134.492-74.002 233.486-74.001 98.991 0 121.991 74.001 223.991 74.001 101.99 0 168.98-94 242.98-94"/></mask><path fill-rule="evenodd" clip-rule="evenodd" d="M.117 455.499l1.004.001c96.99 0 144.487 94 251.981 94 107.493 0 134.992-84.002 233.486-84.001 98.494 0 149.491 84.001 252.985 84.001 103.493 0 134.492-74.002 233.486-74.001 98.991 0 121.991 74.001 223.991 74.001 101.99 0 168.98-94 242.98-94" fill="url(#paint1_linear)" fill-opacity=".4"/><path d="M.113 458.499l1.008.001v-6l-1-.001-.008 6zm1.008.001c47.494 0 82.893 22.96 120.457 46.541 37.424 23.493 76.829 47.459 131.524 47.459v-6c-52.799 0-90.889-23.034-128.334-46.541C87.462 476.54 50.618 452.5 1.121 452.5v6zm251.981 94c54.675 0 89.056-21.438 121.742-42.478 32.665-21.028 63.48-41.524 111.744-41.523v-6c-50.23-.001-82.411 21.504-114.992 42.478-32.561 20.96-65.676 41.523-118.494 41.523v6zm233.486-84.001c48.363 0 85.087 20.581 123.166 41.626 37.969 20.985 77.211 42.375 129.819 42.375v-6c-50.887 0-88.89-20.61-126.917-41.626-37.916-20.956-75.937-42.375-126.068-42.375v6zM739.573 552.5c52.58 0 86.791-18.858 119.895-37.383 33.066-18.503 64.952-36.619 113.591-36.618v-6c-50.356-.001-83.466 18.885-116.521 37.382-33.017 18.476-66.052 36.619-116.965 36.619v6zm233.486-74.001c48.601 0 78.481 18.089 109.321 36.574 30.94 18.536 62.79 37.427 114.67 37.427v-6c-50.13 0-80.77-18.11-111.58-36.574-30.9-18.516-62.02-37.427-112.411-37.427v6zM1197.05 552.5c51.91 0 94.8-23.939 133.54-47.435 19.46-11.803 37.79-23.443 55.9-32.175 18.08-8.716 35.68-14.39 53.54-14.39v-6c-19.13 0-37.66 6.076-56.14 14.985-18.45 8.893-37.12 20.753-56.41 32.45-38.75 23.504-80.36 46.565-130.43 46.565v6z" fill="#fff" fill-opacity=".2" mask="url(#path-21-inside-1)"/><circle cx="1034.06" cy="486" r="4" fill="#A4DDF7"/><circle cx="1281.04" cy="529" r="4" fill="#90E6E9"/><circle cx="188.106" cy="537" r="4" fill="#AFECEE"/><circle cx="443.091" cy="471" r="4" fill="#96E0EF"/><defs><linearGradient id="paint0_linear" x1="-1396.44" y1="321.999" x2="2728.79" y2="-462.228" gradientUnits="userSpaceOnUse"><stop stop-color="#3CCBF8"/><stop offset=".064" stop-color="#20D5D5"/><stop offset=".22" stop-color="#3CB3F8"/><stop offset=".325" stop-color="#20D5CC"/><stop offset=".523" stop-color="#3CA9F8"/><stop offset=".58" stop-color="#30BCE5"/><stop offset=".632" stop-color="#20D5CC"/><stop offset=".851" stop-color="#20D5D5"/><stop offset="1" stop-color="#3CCBF8"/></linearGradient><linearGradient id="paint1_linear" x1="1065.55" y1="663" x2="1066.01" y2="468.993" gradientUnits="userSpaceOnUse"><stop stop-color="#A4DDF7"/><stop offset="1" stop-color="#fff" stop-opacity=".01"/></linearGradient></defs></svg>