<svg width="744" height="518" fill="none" xmlns="http://www.w3.org/2000/svg"><mask id="mask0" maskUnits="userSpaceOnUse" x="0" y="0" width="745" height="518"><path fill="#C4C4C4" d="M0 .981h744v516.515H0z"/></mask><g mask="url(#mask0)"><path opacity=".7" d="M-59.78 36.684c-91.428 13.08-140.63-26.109-253.721-26.109V473.91c75.639-1.471 184.324 39.924 275.752 26.844 91.428-13.081 182.856-36.175 267.674-28.315 119.701 11.093 225.082 37.876 321.283 32.727 96.201-5.148 126.31-31.256 192.77-31.256V10.575c-49.57 0-93.264-1.838-214.801 23.902-121.536 25.741-208.925-14.28-328.626-25.373-84.819-7.86-168.903 14.5-260.33 27.58z" fill="url(#paint0_linear)"/><path opacity=".15" d="M-313.431 123.776c51.769 0 63.885 60.729 115.288 58.888 51.402-1.84 102.437-77.659 161.916-80.972 59.48-3.312 63.886 32.021 112.718 29.445 48.832-2.577 69.393-58.52 120.061-58.889 50.667-.368 87.383 53 131.075 51.528 43.692-1.472 67.19-34.65 126.302-32.39 59.113 2.262 92.891 75.647 148.332 73.98 55.441-1.667 78.939-41.59 141.723-41.59" stroke="#fff" stroke-width="2"/><ellipse cx="75.022" cy="131.137" rx="2.203" ry="2.208" fill="#8CD9F1"/><ellipse cx="196.305" cy="72.493" rx="2.203" ry="2.208" fill="#8ED4F5"/><ellipse cx="319.67" cy="123.284" rx="2.203" ry="2.208" fill="#91D1F9"/><ellipse cx="448.175" cy="91.632" rx="2.203" ry="2.208" fill="#8FD4F5"/><ellipse cx="595.039" cy="165.243" rx="2.203" ry="2.208" fill="#8ADBED"/><ellipse cx="709.409" cy="128.192" rx="2.203" ry="2.208" fill="#85E3E4"/><path opacity=".15" d="M-313.416 157.443c49.934 0 69.761-24.995 98.399-22.083 28.638 2.912 53.238 65.243 95.461 58.753 42.223-6.489 74.166-121.269 133.278-114.19 59.113 7.08 92.891 71.631 137.685 63.21 44.793-8.421 82.243-61.19 135.114-61.19 52.871 0 89.954 68.336 154.207 64.459 64.253-3.877 77.034-29.444 132.178-32.021 55.143-2.577 68.29 43.062 171.094 43.062" stroke="#fff"/><ellipse cx="650.48" cy="145.736" rx="1.836" ry="1.84" fill="#7FDFE5"/><ellipse cx="571.174" cy="123.653" rx="1.836" ry="1.84" fill="#84D7EF"/><ellipse cx="401.547" cy="139.847" rx="1.836" ry="1.84" fill="#8ACEF8"/><ellipse cx="287.658" cy="82.186" rx="1.836" ry="1.84" fill="#89CEF7"/><ellipse cx="159.223" cy="141.319" rx="1.836" ry="1.84" fill="#86D4F2"/><ellipse cx="14.559" cy="80.222" rx="1.836" ry="1.84" fill="#83D9EC"/><mask id="path-17-inside-1" fill="#fff"><path fill-rule="evenodd" clip-rule="evenodd" d="M-313.415 342.767l.737.001c71.226 0 106.106 69.195 185.045 69.195S-28.5 350.128 43.83 350.128s109.78 61.835 185.782 61.835c76.002 0 98.765-54.474 171.463-54.474 72.697 0 89.586 54.474 164.487 54.474 74.9 0 124.099-69.195 178.439-69.195"/></mask><path fill-rule="evenodd" clip-rule="evenodd" d="M-313.415 342.767l.737.001c71.226 0 106.106 69.195 185.045 69.195S-28.5 350.128 43.83 350.128s109.78 61.835 185.782 61.835c76.002 0 98.765-54.474 171.463-54.474 72.697 0 89.586 54.474 164.487 54.474 74.9 0 124.099-69.195 178.439-69.195" fill="url(#paint1_linear)" fill-opacity=".4"/><path d="M-313.419 345.767l.5.001h.241v-6h-.218l-.515-.001-.008 6zm.741.001c34.609 0 60.412 16.757 88.032 34.137 27.48 17.291 56.593 35.058 97.013 35.058v-6c-38.52 0-66.316-16.831-93.817-34.137-27.361-17.217-54.611-35.058-91.228-35.058v6zm185.045 69.195c40.4 0 65.817-15.898 89.836-31.397 24-15.486 46.447-30.438 81.627-30.438v-6c-37.15 0-60.965 15.965-84.88 31.397-23.895 15.418-48.044 30.438-86.583 30.438v6zM43.83 353.128c35.28 0 62.074 15.038 90.06 30.542 27.875 15.442 56.859 31.293 95.722 31.293v-6c-37.139 0-64.881-15.067-92.814-30.542-27.822-15.413-55.918-31.293-92.968-31.293v6zm185.782 61.835c38.836 0 64.116-13.978 88.438-27.621 24.284-13.621 47.536-26.853 83.025-26.853v-6c-37.209 0-61.687 14.005-85.96 27.62-24.235 13.594-48.338 26.854-85.503 26.854v6zm171.463-54.474c35.453 0 57.226 13.206 79.872 26.809 22.732 13.654 46.288 27.665 84.615 27.665v-6c-36.574 0-58.913-13.226-81.525-26.809-22.698-13.633-45.718-27.665-82.962-27.665v6zm164.487 54.474c38.371 0 70.04-17.74 98.488-35.034 14.315-8.703 27.727-17.242 40.983-23.648 13.224-6.39 26.019-10.513 38.968-10.513v-6c-14.222 0-27.954 4.527-41.578 11.111-13.592 6.568-27.35 15.327-41.49 23.923-28.462 17.303-58.843 34.161-95.371 34.161v6z" fill="#fff" fill-opacity=".2" mask="url(#path-17-inside-1)"/><ellipse cx="445.868" cy="365.219" rx="2.937" ry="2.944" fill="#A4DDF7"/><ellipse cx="627.244" cy="396.872" rx="2.937" ry="2.944" fill="#90E6E9"/><ellipse cx="11.887" cy="354.178" rx="2.937" ry="2.944" fill="#96E0EF"/></g><defs><linearGradient id="paint0_linear" x1="-1339" y1="244.497" x2="1690.91" y2="-330.135" gradientUnits="userSpaceOnUse"><stop stop-color="#3CCBF8"/><stop offset=".064" stop-color="#20D5D5"/><stop offset=".22" stop-color="#3CB3F8"/><stop offset=".325" stop-color="#20D5CC"/><stop offset=".523" stop-color="#3CA9F8"/><stop offset=".58" stop-color="#30BCE5"/><stop offset=".632" stop-color="#20D5CC"/><stop offset=".851" stop-color="#20D5D5"/><stop offset="1" stop-color="#3CCBF8"/></linearGradient><linearGradient id="paint1_linear" x1="468.999" y1="495.511" x2="469.337" y2="352.7" gradientUnits="userSpaceOnUse"><stop stop-color="#A4DDF7"/><stop offset="1" stop-color="#fff" stop-opacity=".01"/></linearGradient></defs></svg>