<svg width="1440" height="847" fill="none" xmlns="http://www.w3.org/2000/svg"><mask id="path-1-inside-1" fill="#fff"><path fill-rule="evenodd" clip-rule="evenodd" d="M-21.506 770.001c111.502-81.5 187.154 9.001 251.002-26 63.848-35.001 43.746-112.963 114-160.498 54.66-36.984 107.386 66.417 163.214 41.335 38.822-17.442 62.527-153.592 148.287-178.335 85.761-24.743 124.9 41.117 204.592 13.75 67.285-23.107 90.379-128.988 160.911-181.252 70.53-52.265 242.88-3.286 311.5-35 95.58-44.18 66.63-191.271 184-244"/></mask><path fill-rule="evenodd" clip-rule="evenodd" d="M-21.506 770.001c111.502-81.5 187.154 9.001 251.002-26 63.848-35.001 43.746-112.963 114-160.498 54.66-36.984 107.386 66.417 163.214 41.335 38.822-17.442 62.527-153.592 148.287-178.335 85.761-24.743 124.9 41.117 204.592 13.75 67.285-23.107 90.379-128.988 160.911-181.252 70.53-52.265 242.88-3.286 311.5-35 95.58-44.18 66.63-191.271 184-244" fill="url(#paint0_linear)" fill-opacity=".2"/><path d="M343.496 583.503l-.561-.828.561.828zm516.093-123.25l-.324-.946.324.946zM1332 244.001l-.42-.908.42.908zM-20.916 770.808c27.753-20.285 53.238-29.843 76.837-33.341 23.61-3.5 45.387-.943 65.751 3.078 10.189 2.012 19.998 4.385 29.526 6.55 9.514 2.162 18.739 4.115 27.696 5.266 17.925 2.303 34.864 1.408 51.083-7.483l-.962-1.754c-15.705 8.61-32.165 9.528-49.866 7.253-8.856-1.138-18.002-3.072-27.508-5.232-9.493-2.158-19.355-4.543-29.582-6.562-20.468-4.042-42.5-6.642-66.431-3.094-23.941 3.548-49.727 13.241-77.725 33.705l1.18 1.614zm250.893-25.93c32.282-17.697 43.325-46.289 55.047-76.059 11.738-29.809 24.185-60.909 59.032-84.488l-1.121-1.656c-35.406 23.957-48.035 55.604-59.772 85.411-11.752 29.845-22.582 57.734-54.148 75.038l.962 1.754zm114.079-160.547c13.371-9.046 26.591-9.519 39.86-5.488 13.337 4.051 26.678 12.637 40.192 21.695 13.459 9.021 27.091 18.511 40.855 24.147 13.803 5.653 27.867 7.485 42.157 1.065l-.82-1.824c-13.624 6.121-27.086 4.434-40.579-1.091-13.532-5.542-26.966-14.888-40.499-23.958-13.478-9.034-27.058-17.797-40.724-21.948-13.735-4.171-27.603-3.7-41.563 5.746l1.121 1.656zM507.12 625.75c5.048-2.268 9.78-6.43 14.359-11.928 4.584-5.504 9.062-12.405 13.585-20.227 9.014-15.592 18.367-35.146 29.065-54.707 21.505-39.32 48.702-79.178 91.146-91.424l-.555-1.922c-43.316 12.498-70.852 53.086-92.345 92.387-10.801 19.749-20.014 39.049-29.043 54.665-4.499 7.781-8.912 14.571-13.39 19.948-4.483 5.383-8.984 9.291-13.642 11.384l.82 1.824zm148.155-178.286c42.562-12.28 73.526-2.1 103.983 7.849 30.473 9.953 60.468 19.687 100.656 5.886l-.649-1.892c-39.505 13.566-68.925 4.054-99.386-5.896-30.475-9.954-61.961-20.332-105.159-7.869l.555 1.922zm204.639 13.735c34.024-11.685 56.789-44.262 79.754-80.098 23.041-35.955 46.342-75.299 81.422-101.297l-1.19-1.607c-35.445 26.267-58.956 65.996-81.916 101.825-23.035 35.946-45.459 67.863-78.719 79.285l.649 1.892zm161.176-181.395c17.43-12.914 41.22-19.623 68.3-22.868 27.07-3.244 57.31-3.016 87.55-2.142 30.21.873 60.44 2.391 87.38 1.705 26.93-.685 50.74-3.57 68.1-11.59l-.84-1.816c-16.96 7.837-40.42 10.723-67.31 11.407-26.87.684-57-.83-87.28-1.705-30.24-.874-60.6-1.108-87.83 2.155-27.22 3.261-51.42 10.029-69.26 23.247l1.19 1.607zm311.33-34.895c48.22-22.292 65.01-70.57 84.34-119.334 19.38-48.888 41.37-98.477 99.65-124.662l-.82-1.824c-59.08 26.544-81.31 76.864-100.69 125.749-19.43 49.009-35.97 96.367-83.32 118.255l.84 1.816z" fill="#1C9BF7" fill-opacity=".1" mask="url(#path-1-inside-1)"/><defs><linearGradient id="paint0_linear" x1="1123.66" y1="362.705" x2="1074.55" y2="253.417" gradientUnits="userSpaceOnUse"><stop offset=".141" stop-color="#1C9BF7" stop-opacity=".5"/><stop offset="1" stop-color="#fff" stop-opacity=".01"/></linearGradient></defs></svg>