<svg width="1440" height="500" fill="none" xmlns="http://www.w3.org/2000/svg"><g opacity=".3"><mask id="path-1-inside-1" fill="#fff"><path fill-rule="evenodd" clip-rule="evenodd" d="M-288 330.888c189.34-27.527 131.587 185.105 248.239 168.146 92.287-13.417 118.028-95.061 223.058-105.975 105.029-10.913 176.919 60.778 258.316 48.944 81.398-11.834 167.965-111.755 273.631-127.181 105.667-15.427 108.345 32.409 234.961 32.319 172.745-.123 215.805-101.325 329.625-134.245 113.81-32.921 181.12 68.264 296.45 36.685C1691.62 218.001 1816.88 24.876 1988-.001"/></mask><path fill-rule="evenodd" clip-rule="evenodd" d="M-288 330.888c189.34-27.527 131.587 185.105 248.239 168.146 92.287-13.417 118.028-95.061 223.058-105.975 105.029-10.913 176.919 60.778 258.316 48.944 81.398-11.834 167.965-111.755 273.631-127.181 105.667-15.427 108.345 32.409 234.961 32.319 172.745-.123 215.805-101.325 329.625-134.245 113.81-32.921 181.12 68.264 296.45 36.685C1691.62 218.001 1816.88 24.876 1988-.001" fill="url(#paint0_linear)" fill-opacity=".9"/><path d="M-39.761 499.034l-.288-1.979.288 1.979zm989.966-151.893l.002 2-.002-2zm-1237.917-14.274c46.965-6.828 78.318 1.267 100.841 16.715 22.594 15.496 36.584 38.571 48.459 62.311 2.966 5.929 5.792 11.88 8.589 17.761 2.794 5.873 5.56 11.677 8.393 17.275 5.661 11.188 11.633 21.652 18.744 30.379 7.124 8.744 15.429 15.792 25.765 20.088 10.343 4.299 22.573 5.78 37.447 3.618l-.575-3.959c-14.288 2.077-25.771.623-35.337-3.352-9.573-3.979-17.374-10.545-24.199-18.921-6.837-8.392-12.656-18.552-18.276-29.659-2.807-5.548-5.553-11.309-8.35-17.188-2.793-5.872-5.636-11.861-8.623-17.832-11.935-23.857-26.299-47.719-49.774-63.82-23.545-16.148-55.975-24.31-103.68-17.375l.576 3.959zm248.238 168.147c46.73-6.794 76.633-30.906 107.668-54.309 31.047-23.413 63.369-46.259 115.309-51.657l-.413-3.978c-53.089 5.516-86.153 28.949-117.305 52.441-31.165 23.502-60.277 46.921-105.834 53.544l.575 3.959zm222.977-105.966c52.011-5.404 95.851 9.627 137.128 24.707 41.131 15.026 79.971 30.231 121.27 24.227l-.575-3.958c-40.098 5.829-77.903-8.894-119.323-24.026-41.275-15.08-85.895-30.437-138.913-24.928l.413 3.978zm258.398 48.934c20.678-3.006 41.585-11.589 62.886-22.908 21.296-11.317 43.132-25.452 65.608-39.623 45.061-28.411 92.782-57.007 145.138-64.65l-.578-3.958c-53.31 7.782-101.706 36.86-146.694 65.225-22.549 14.217-44.221 28.245-65.351 39.474-21.126 11.226-41.564 19.571-61.584 22.482l.575 3.958zm273.632-127.181c52.413-7.652 79.164.363 108.696 10.324 29.767 10.041 62.339 22.062 125.978 22.016l-.003-4c-62.978.045-95.053-11.807-124.696-21.806-29.877-10.077-57.298-18.267-110.553-10.492l.578 3.958zm234.674 32.34c86.853-.062 141.173-25.562 187.973-55.133 46.87-29.611 85.66-62.836 142.2-79.191l-1.11-3.843c-57.27 16.565-96.92 50.402-143.22 79.653-46.37 29.291-99.95 54.453-185.846 54.514l.003 4zm330.173-134.324c56.2-16.255 100.89.542 146.4 17.788 45.43 17.22 91.66 34.886 150.03 18.905l-1.06-3.858c-56.96 15.598-102.05-1.539-147.56-18.787-45.43-17.221-91.3-34.557-148.92-17.891l1.11 3.843zm296.43 36.693c29.21-7.997 58.91-26.175 89.6-49.15 30.68-22.972 62.59-50.927 96.09-78.541 67.13-55.347 140.84-109.49 225.79-121.84l-.58-3.96c-86.17 12.528-160.65 67.385-227.76 122.714-33.63 27.725-65.35 55.527-95.94 78.425-30.58 22.895-59.79 40.7-88.26 48.494l1.06 3.858z" fill="#fff" fill-opacity=".4" mask="url(#path-1-inside-1)"/></g><defs><linearGradient id="paint0_linear" x1="1362.82" y1="318.455" x2="1342.95" y2="181.738" gradientUnits="userSpaceOnUse"><stop offset=".083" stop-color="#fff"/><stop offset="1" stop-color="#fff" stop-opacity=".01"/></linearGradient></defs></svg>