<svg width="902" height="517" fill="none" xmlns="http://www.w3.org/2000/svg"><mask id="mask0" maskUnits="userSpaceOnUse" x="-182" y="0" width="1084" height="517"><path fill="#C4C4C4" d="M-181.068 0h1082.14v516.504h-1082.14z"/></mask><g mask="url(#mask0)"><mask id="path-2-inside-1" fill="#fff"><path fill-rule="evenodd" clip-rule="evenodd" d="M-1655.48 115.843c196.37-95.87 350.74 649.6 459.89 612.096 109.15-37.503 99.86-158.346 222.503-213.063 95.424-42.571 148.292 123.697 242.179 99.137 65.289-17.078 136.114-191.608 276.455-208.782 140.342-17.174 131.183 84.873 262.113 58.549C-50.31 435.223-34.528 348.803 96.23 309.726c130.758-39.077 339.24 24.293 499.144-39.011C750.616 209.257 743.849 98.492 910.838 88.038"/></mask><path fill-rule="evenodd" clip-rule="evenodd" d="M-1655.48 115.843c196.37-95.87 350.74 649.6 459.89 612.096 109.15-37.503 99.86-158.346 222.503-213.063 95.424-42.571 148.292 123.697 242.179 99.137 65.289-17.078 136.114-191.608 276.455-208.782 140.342-17.174 131.183 84.873 262.113 58.549C-50.31 435.223-34.528 348.803 96.23 309.726c130.758-39.077 339.24 24.293 499.144-39.011C750.616 209.257 743.849 98.492 910.838 88.038" fill="url(#paint0_linear)" fill-opacity=".2"/><path d="M-973.087 514.876l-.408-.913.408.913zm780.747-51.096l.197.98-.197-.98zm787.714-193.065l.368.93-.368-.93zM-1655.04 116.742c24.25-11.838 47.81-10.699 70.79.317 23.03 11.04 45.48 32.013 67.33 59.87 43.71 55.714 84.78 138.634 123.18 223.487 38.37 84.796 74.06 171.538 106.97 234.686 16.45 31.572 32.25 57.336 47.39 74.043 15.09 16.651 29.85 24.641 44.11 19.74l-.65-1.891c-13.02 4.475-26.96-2.628-41.98-19.192-14.96-16.508-30.66-42.081-47.1-73.625-32.87-63.084-68.5-149.685-106.92-234.585-38.39-84.842-79.55-167.97-123.42-223.897-21.94-27.962-44.62-49.208-68.04-60.439-23.48-11.256-47.69-12.441-72.54-.312l.88 1.798zm459.77 612.143c54.95-18.879 80.08-58.772 106.71-100.484 26.65-41.734 54.85-85.386 115.88-112.611l-.815-1.827c-61.615 27.491-90.095 71.619-116.745 113.362-26.67 41.764-51.47 81.044-105.68 99.669l.65 1.891zm222.59-213.095c23.551-10.507 44.443-8.138 64.066.977 19.686 9.145 38.069 25.066 56.524 41.667 18.408 16.558 36.888 33.795 56.648 45.327 19.798 11.556 40.981 17.447 64.787 11.22l-.506-1.935c-23.138 6.052-43.771.37-63.273-11.012-19.541-11.405-37.845-28.47-56.318-45.087-18.426-16.574-37.02-32.703-57.019-41.994-20.061-9.318-41.562-11.769-65.724-.99l.815 1.827zm242.025 99.191c16.627-4.35 33.469-18.665 51.478-37.692 9.025-9.535 18.382-20.299 28.186-31.659 9.808-11.366 20.064-23.333 30.907-35.301 43.393-47.895 95.971-95.566 165.753-104.105l-.243-1.985c-70.56 8.634-123.566 56.815-166.992 104.748-10.863 11.989-21.138 23.978-30.94 35.336-9.806 11.364-19.135 22.094-28.124 31.591-18.019 19.037-34.514 32.942-50.531 37.132l.506 1.935zm276.324-208.757c34.96-4.278 60.554-1.127 81.321 5.564 20.785 6.696 36.787 16.949 52.607 26.993 15.802 10.032 31.43 19.862 51.335 25.503 19.924 5.647 44.065 7.083 76.925.476l-.394-1.961c-32.605 6.556-56.418 5.107-75.986-.439-19.588-5.552-34.99-15.225-50.808-25.267-15.799-10.031-32.004-20.424-53.065-27.209-21.078-6.79-46.968-9.954-82.178-5.645l.243 1.985zm262.188 58.536c71.243-14.324 110.844-43.181 148.935-73.277 38.058-30.071 74.553-61.323 139.724-80.799l-.573-1.916c-65.587 19.6-102.361 51.097-140.391 81.145-37.997 30.023-77.302 58.654-148.089 72.886l.394 1.961zm288.66-154.076c32.558-9.731 69.998-13.094 110.395-13.637 40.399-.543 83.673 1.734 127.926 3.258 88.441 3.044 180.735 3.078 260.904-28.66l-.736-1.86c-79.734 31.566-171.634 31.566-260.099 28.521-44.201-1.522-87.559-3.803-128.022-3.259-40.467.544-78.122 3.912-110.942 13.721l.573 1.916zm499.225-39.039c77.84-30.815 115.107-74.033 153.648-110.67 19.27-18.318 38.847-34.985 63.992-47.734 25.136-12.745 55.888-21.599 97.518-24.205l-.125-1.996c-41.863 2.62-72.887 11.533-98.298 24.417-25.404 12.881-45.148 29.706-64.465 48.069-38.633 36.723-75.603 79.617-153.006 110.259l.736 1.86z" fill="#1C9BF7" fill-opacity=".1" mask="url(#path-2-inside-1)"/></g><defs><linearGradient id="paint0_linear" x1="334.45" y1="530.662" x2="266.065" y2="149.66" gradientUnits="userSpaceOnUse"><stop stop-color="#1C9BF7" stop-opacity=".5"/><stop offset="1" stop-color="#fff" stop-opacity=".01"/></linearGradient></defs></svg>