<svg width="1440" height="559" fill="none" xmlns="http://www.w3.org/2000/svg"><mask id="path-1-inside-1" fill="#fff"><path fill-rule="evenodd" clip-rule="evenodd" d="M1777.76 528.69c-148.65-42.795-234.3 58.966-334.82 21.235-74.06-27.801-64.54-48.623-147.44-88.871-64.5-31.315-123.22 20.892-187.13 2.495-44.44-12.794-83.57-105.737-179.602-119.24-96.027-13.502-135.804 24.704-225.716 7.473-75.914-14.548-156.513-102.903-240.44-148.172-83.927-45.27-210.139 32.564-288.815 9.002C64.195 179.79 61.559 38.749-72.783.073"/></mask><path fill-rule="evenodd" clip-rule="evenodd" d="M1777.76 528.69c-148.65-42.795-234.3 58.966-334.82 21.235-74.06-27.801-64.54-48.623-147.44-88.871-64.5-31.315-123.22 20.892-187.13 2.495-44.44-12.794-83.57-105.737-179.602-119.24-96.027-13.502-135.804 24.704-225.716 7.473-75.914-14.548-156.513-102.903-240.44-148.172-83.927-45.27-210.139 32.564-288.815 9.002C64.195 179.79 61.559 38.749-72.783.073" fill="url(#paint0_linear)" fill-opacity=".2"/><path d="M1442.94 549.925l-.35.936.35-.936zm-147.44-88.871l.44-.9-.44.9zM703.052 351.782l-.189.982.189-.982zm-529.255-139.17l.287-.958-.287.958zM1777.49 529.651c-74.04-21.315-132.38-6.646-184.91 8.717-52.45 15.345-99.35 31.5-149.99 12.493l.7-1.872c49.89 18.724 96.07 2.864 148.73-12.54 52.6-15.385 111.41-30.2 186.02-8.72l-.55 1.922zm-334.9 21.21c-37.16-13.948-53.38-26.167-70.68-39.921-17.22-13.696-35.5-28.91-76.85-48.987l.88-1.799c41.54 20.172 59.96 35.493 77.22 49.22 17.18 13.67 33.23 25.762 70.13 39.615l-.7 1.872zm-147.53-88.908c-31.91-15.494-62.41-10.355-93.13-3.52-30.64 6.818-61.58 15.362-93.83 6.077l.55-1.922c31.65 9.113 62.02.751 92.85-6.107 30.74-6.84 61.85-12.148 94.44 3.673l-.88 1.799zm-186.96 2.557c-11.36-3.269-22.28-11.624-33.72-22.362-5.73-5.379-11.61-11.385-17.76-17.691-6.15-6.311-12.58-12.925-19.4-19.544-27.29-26.474-60.894-52.906-108.591-59.613l.279-1.981c48.33 6.796 82.312 33.587 109.702 60.158 6.85 6.643 13.29 13.279 19.44 19.584 6.15 6.31 12.01 12.285 17.7 17.629 11.4 10.71 22.03 18.77 32.9 21.898l-.55 1.922zM928.629 345.3c-47.846-6.728-81.662-.579-114.843 5.129-33.207 5.714-65.78 10.987-110.923 2.335l.377-1.964c44.769 8.58 77.041 3.365 110.207-2.342 33.193-5.711 67.279-11.914 115.461-5.139l-.279 1.981zm-225.766 7.464c-38.209-7.322-77.506-33.189-117.619-62.742-40.188-29.609-81.225-62.942-123.107-85.532l.95-1.76c42.045 22.678 83.272 56.158 123.343 85.681 40.147 29.579 79.106 55.164 116.81 62.389l-.377 1.964zM462.137 204.49c-41.595-22.436-93.766-14.406-145.697-3.541-25.901 5.42-51.738 11.539-75.992 14.822-24.259 3.283-47.066 3.75-66.938-2.201l.574-1.916c19.466 5.83 41.939 5.404 66.095 2.135 24.161-3.27 49.874-9.362 75.852-14.797 51.826-10.844 104.725-19.095 147.056 3.738l-.95 1.76zm-288.627 9.08c-55.195-16.529-83.446-60.337-114.543-104.456C27.827 64.933-6.247 20.269-73.06 1.034l.553-1.922C-4.977 18.553 29.438 63.747 60.602 107.961c31.207 44.276 59.074 87.4 113.482 103.693l-.574 1.916z" fill="#1C9BF7" fill-opacity=".1" mask="url(#path-1-inside-1)"/><defs><linearGradient id="paint0_linear" x1="404.03" y1="287.342" x2="439.849" y2="162.92" gradientUnits="userSpaceOnUse"><stop offset=".141" stop-color="#1C9BF7" stop-opacity=".5"/><stop offset="1" stop-color="#fff" stop-opacity=".01"/></linearGradient></defs></svg>