<svg width="720" height="553" fill="none" xmlns="http://www.w3.org/2000/svg"><mask id="mask0" maskUnits="userSpaceOnUse" x="0" y="0" width="720" height="554"><path fill="#C4C4C4" d="M0 .685h720v552.316H0z"/></mask><g mask="url(#mask0)"><mask id="path-2-inside-1" fill="#fff"><path fill-rule="evenodd" clip-rule="evenodd" d="M-869.424 597.135c127.926-89.575 207.854 257.618 286.669 202.431 78.815-55.188 74.25-63.706 147.58-70.067 73.329-6.362 318.63-127.601 373.626-166.11 38.244-26.778 175.643-35.527 212.875-136.484 37.233-100.956 36.514-155.927 93.968-199.857 54.11-41.373 157.738 4.447 209.839-120.482 71.9-172.403 348.814-84.57 385.396-115.986 90.107-77.384-36.858-72.148 64.697-311.007"/></mask><path fill-rule="evenodd" clip-rule="evenodd" d="M-869.424 597.135c127.926-89.575 207.854 257.618 286.669 202.431 78.815-55.188 74.25-63.706 147.58-70.067 73.329-6.362 318.63-127.601 373.626-166.11 38.244-26.778 175.643-35.527 212.875-136.484 37.233-100.956 36.514-155.927 93.968-199.857 54.11-41.373 157.738 4.447 209.839-120.482 71.9-172.403 348.814-84.57 385.396-115.986 90.107-77.384-36.858-72.148 64.697-311.007" fill="url(#paint0_linear)" fill-opacity=".36"/><path d="M245.294 227.048l-1.822-2.383 1.822 2.383zm209.839-120.482l2.769 1.154-2.769-1.154zM840.529-9.42l-1.955-2.276 1.955 2.276zM-867.703 599.593c15.533-10.877 30.121-14.988 43.926-14.218 13.849.772 27.235 6.475 40.286 15.802 26.209 18.729 50.386 51.555 73.322 85.943 22.776 34.146 44.357 69.894 65.109 93.483 10.381 11.801 20.845 20.913 31.481 25.216 10.876 4.4 21.822 3.712 32.545-3.796l-3.442-4.915c-8.981 6.289-17.773 6.823-26.853 3.149-9.321-3.771-19.032-12.029-29.226-23.617-20.399-23.189-41.573-58.293-64.622-92.85-22.888-34.315-47.605-68.043-74.825-87.495-13.663-9.763-28.125-16.057-43.441-16.911-15.36-.857-31.253 3.777-47.702 15.294l3.442 4.915zm286.669 202.43c19.739-13.822 34.275-24.733 46.051-33.374 11.809-8.664 20.774-14.992 29.52-19.797 17.305-9.509 33.974-13.192 70.547-16.364l-.519-5.978c-36.756 3.189-54.47 6.946-72.918 17.083-9.131 5.018-18.385 11.565-30.179 20.218-11.826 8.677-26.276 19.525-45.944 33.297l3.442 4.915zm146.118-69.535c18.79-1.63 48.22-10.546 82.379-23.405 34.261-12.897 73.589-29.885 112.313-47.863 77.37-35.92 152.66-75.952 180.396-95.373l-3.441-4.915c-27.26 19.087-102.119 58.929-179.481 94.846-38.642 17.94-77.826 34.862-111.901 47.69-34.178 12.866-62.909 21.491-80.784 23.042l.519 5.978zm375.088-166.641c9.122-6.388 24.406-11.828 43.372-18.032 18.776-6.142 40.845-12.946 62.873-22.08 44.03-18.256 88.667-46.119 107.724-97.792l-5.629-2.076c-18.176 49.284-60.855 76.274-104.393 94.326-21.756 9.021-43.535 15.735-62.44 21.919-18.716 6.123-34.948 11.818-44.948 18.82l3.44 4.915zM154.14 427.943c9.34-25.324 16.296-47.758 22.367-67.809 6.081-20.085 11.246-37.686 17.036-53.511 11.533-31.516 25.442-55.683 53.572-77.192l-3.644-4.766c-29.324 22.421-43.782 47.705-55.562 79.896-5.865 16.028-11.093 33.845-17.145 53.834-6.061 20.022-12.977 42.319-22.253 67.472l5.629 2.076zm92.975-198.512c12.958-9.907 29.014-14.696 47.031-18.148 9.007-1.725 18.373-3.095 28.054-4.635 9.646-1.534 19.55-3.228 29.461-5.589 19.84-4.726 39.815-12.142 58.155-26.414 18.354-14.282 34.891-35.288 48.085-66.925l-5.538-2.309c-12.856 30.828-28.811 50.943-46.232 64.499-17.434 13.566-36.517 20.705-55.86 25.312-9.681 2.306-19.4 3.972-29.014 5.501-9.578 1.523-19.109 2.918-28.24 4.667-18.26 3.498-35.449 8.496-49.546 19.275l3.644 4.766zM457.902 107.72C493.116 23.284 578.573 2.213 661.203-1.3c41.241-1.753 81.334.884 113.681 2.01 16.117.562 30.373.75 41.782-.208 5.709-.48 10.796-1.252 15.097-2.445 4.28-1.187 7.971-2.84 10.72-5.201l-3.909-4.552c-1.823 1.566-4.582 2.908-8.414 3.97-3.809 1.057-8.492 1.787-13.996 2.25-11.019.924-24.959.752-41.071.19-32.11-1.118-72.597-3.774-114.145-2.008C578-3.768 489.051 17.444 452.364 105.41l5.538 2.309zM842.483-7.144c22.725-19.516 32.319-34.28 34.847-49.434 1.253-7.517.731-14.927-.549-22.757-1.265-7.735-3.346-16.252-5.257-25.634-3.851-18.912-7.339-42.741-3.597-76.647 3.746-33.95 14.756-78.121 40.06-137.637l-5.522-2.348c-25.473 59.914-36.676 104.66-40.502 139.326-3.831 34.71-.25 59.194 3.682 78.504 1.981 9.728 3.971 17.799 5.214 25.405 1.229 7.511 1.654 14.195.552 20.801-2.183 13.093-10.508 26.693-32.837 45.87l3.909 4.551z" fill="#3CA9F8" fill-opacity=".1" mask="url(#path-2-inside-1)"/></g><defs><linearGradient id="paint0_linear" x1="479.339" y1="246.719" x2="304.149" y2="57.143" gradientUnits="userSpaceOnUse"><stop stop-color="#3CA9F8" stop-opacity=".5"/><stop offset="1" stop-color="#fff" stop-opacity=".01"/></linearGradient></defs></svg>