<svg width="1440" height="775" fill="none" xmlns="http://www.w3.org/2000/svg"><g opacity=".3"><path fill-rule="evenodd" clip-rule="evenodd" d="M-189.809 653.316c136.642-52.452 224.904 34.495 316.64-9.123 67.594-32.139 67.278-65.349 142.243-109.785 58.326-34.572 108.562 33.642 167.304 11.093 40.849-15.681 69.415-115.338 158.752-136.114 89.337-20.777 129.644 11.212 212.946-12.493 70.332-20.014 139.509-108.839 215.064-158.016 75.56-49.178 200.18 12.103 272.43-16.503 100.66-39.851 92.5-170.798 215.99-218.202" fill="url(#paint0_linear)" fill-opacity=".6"/><path d="M-189.809 653.316c136.642-52.452 224.904 34.495 316.64-9.123 67.594-32.139 67.278-65.349 142.243-109.785 58.326-34.572 108.562 33.642 167.304 11.093 40.849-15.681 69.415-115.338 158.752-136.114 89.337-20.777 129.644 11.212 212.946-12.493 70.332-20.014 139.509-108.839 215.064-158.016 75.56-49.178 200.18 12.103 272.43-16.503 100.66-39.851 92.5-170.798 215.99-218.202" stroke="#1C9BF7" stroke-opacity=".5"/></g><defs><linearGradient id="paint0_linear" x1="1084.58" y1="311.443" x2="1041.49" y2="199.207" gradientUnits="userSpaceOnUse"><stop offset=".141" stop-color="#1C9BF7" stop-opacity=".5"/><stop offset="1" stop-color="#fff" stop-opacity=".01"/></linearGradient></defs></svg>