<svg width="14" height="14" viewBox="0 0 14 14" fill="none" xmlns="http://www.w3.org/2000/svg">
<path d="M1.32811 13.9123C0.984869 13.9323 0.647305 13.8182 0.386599 13.5941C-0.127564 13.0768 -0.127564 12.2415 0.386599 11.7243L11.6451 0.465744C12.1799 -0.0346629 13.019 -0.00684552 13.5194 0.527929C13.9719 1.01152 13.9983 1.75482 13.5812 2.26924L2.25635 13.5941C1.999 13.8149 1.66685 13.9288 1.32811 13.9123Z" fill="#6A8ADD"/>
<path d="M12.5716 13.9124C12.2237 13.9109 11.8903 13.7728 11.6433 13.5278L0.384782 2.26923C-0.0915622 1.71297 -0.0268007 0.875829 0.529458 0.39944C1.02593 -0.0257248 1.75814 -0.0257248 2.25457 0.39944L13.5794 11.658C14.114 12.1585 14.1417 12.9977 13.6411 13.5323C13.6212 13.5536 13.6006 13.5742 13.5794 13.5941C13.3021 13.8352 12.9371 13.9505 12.5716 13.9124Z" fill="#6A8ADD"/>
</svg>
