<svg width="140" height="40" viewBox="0 0 140 40" fill="none" xmlns="http://www.w3.org/2000/svg">
<path d="M36.4272 -0.000396729H42.801V39.9996H36.4272V-0.000396729ZM65.109 27.2396C65.109 33.3612 59.9829 33.8492 58.458 33.8492C54.6481 33.8492 53.955 30.2684 53.955 28.1084V12.7996H47.5813V28.0764C47.5813 31.8684 48.7668 34.998 50.8446 37.0844C52.6802 38.9292 55.4305 39.9372 58.4102 39.9372C60.5231 39.9372 63.5155 39.2764 65.109 37.8156V39.9996H71.4827V12.7996H65.109V27.2396ZM84.2301 3.1996H77.8564V12.7996H73.0761V19.1996H77.8564V39.9996H84.2301V19.1996H89.0104V12.7996H84.2301V3.1996ZM109.083 31.8668C107.695 33.1196 105.863 33.814 103.852 33.814C99.4187 33.814 96.1633 30.5452 96.1633 26.0572C96.1633 21.5692 99.3151 18.438 103.852 18.438C105.827 18.438 107.695 19.0988 109.118 20.3516L110.085 21.1868L114.383 16.8732L113.307 15.8988C110.778 13.606 107.421 12.3196 103.85 12.3196C95.8829 12.3196 90.0971 18.0924 90.0971 26.0236C90.0971 33.9212 96.0215 39.9004 103.85 39.9004C107.488 39.9004 110.88 38.614 113.377 36.2844L114.416 35.31L110.052 30.9996L109.083 31.8668ZM137.132 15.1708C135.296 13.3276 133.145 12.3196 130.166 12.3196C128.053 12.3196 125.659 12.9804 124.066 14.4396V-0.000396729H117.692V39.9996H124.066V25.0156C124.066 18.894 128.397 18.4076 129.922 18.4076C133.732 18.4076 133.626 21.99 133.626 24.1468V39.9996H140V24.1804C140 20.3884 139.211 17.2588 137.132 15.1708Z" fill="#1D303A"/>
<path d="M103.641 21.5005C104.864 21.5005 106.036 21.9881 106.9 22.8558C107.764 23.7236 108.25 24.9005 108.25 26.1277C108.25 27.355 107.764 28.5319 106.9 29.3997C106.036 30.2674 104.864 30.755 103.641 30.755C102.419 30.755 101.247 30.2674 100.383 29.3997C99.5187 28.5319 99.0332 27.355 99.0332 26.1277C99.0332 24.9005 99.5187 23.7236 100.383 22.8558C101.247 21.9881 102.419 21.5005 103.641 21.5005Z" fill="#FF3D2E"/>
<path d="M27.5042 29.9534C25.0806 32.4574 21.7886 33.8142 18.3244 33.8142C11.2241 33.8142 6.06141 28.2142 6.06141 20.5278C6.06141 12.8062 11.2241 7.20615 18.3244 7.20615C21.7551 7.20615 25.0105 8.56135 27.4707 11.0318L28.4395 12.0062L32.7004 7.72775L31.765 6.75335C28.2324 3.10055 23.4521 1.11975 18.3244 1.11975C7.86357 1.11975 0 9.46695 0 20.5614C0 31.6222 7.89863 39.9357 18.3244 39.9357C23.4872 39.9357 28.2674 37.9198 31.8001 34.2669L32.7354 33.2926L28.5096 28.9453L27.5042 29.9534Z" fill="#1D303A"/>
</svg>
