<svg width="9" height="16" viewBox="0 0 9 16" fill="none" xmlns="http://www.w3.org/2000/svg">
<path fill-rule="evenodd" clip-rule="evenodd" d="M4.50037 0.464355C5.0739 0.464355 5.53883 0.902737 5.53883 1.44351V2.24458H5.65385C7.58508 2.24458 9 3.82764 9 5.59743C9 6.1382 8.53506 6.57658 7.96154 6.57658C7.38801 6.57658 6.92308 6.1382 6.92308 5.59743C6.92308 4.7453 6.27162 4.20288 5.65385 4.20288H5.53883V7.28544L6.94093 7.76617C8.21505 8.20303 9 9.39111 9 10.6494C9 12.251 7.71763 13.6977 5.9499 13.6977H5.53883V14.4989C5.53883 15.0396 5.0739 15.478 4.50037 15.478C3.92684 15.478 3.46191 15.0396 3.46191 14.4989V13.6977H3.34615C1.41492 13.6977 0 12.1146 0 10.3448C0 9.80407 0.464935 9.36569 1.03846 9.36569C1.61199 9.36569 2.07692 9.80407 2.07692 10.3448C2.07692 11.197 2.72839 11.7394 3.34615 11.7394H3.46191V8.65709L2.05907 8.1761C0.784951 7.73924 0 6.55117 0 5.29291C0 3.6913 1.28237 2.24458 3.0501 2.24458H3.46191V1.44351C3.46191 0.902737 3.92684 0.464355 4.50037 0.464355ZM3.46191 4.20288H3.0501C2.59584 4.20288 2.07692 4.60896 2.07692 5.29291C2.07692 5.81592 2.4001 6.20927 2.76885 6.3357L3.46191 6.57333V4.20288ZM5.53883 9.3692V11.7394H5.9499C6.40416 11.7394 6.92308 11.3333 6.92308 10.6494C6.92308 10.1264 6.5999 9.733 6.23115 9.60657L5.53883 9.3692Z" fill="#404053"/>
</svg>
