<svg width="195" height="40" viewBox="0 0 195 40" fill="none" xmlns="http://www.w3.org/2000/svg">
<path d="M104.07 19.439C102.401 19.439 101.198 19.9865 99.9775 20.5443V33.167C101.146 33.2783 101.816 33.2783 102.925 33.2783C106.931 33.2783 107.48 31.4429 107.48 28.8802V22.8515C107.48 20.959 106.852 19.439 104.07 19.439ZM77.4628 18.7501C74.683 18.7501 74.0487 20.2767 74.0487 22.1673V23.2297H80.8731V22.1673C80.8731 20.2767 80.2388 18.7501 77.4628 18.7501ZM25.9195 31.8884C25.9195 33.3841 26.6249 34.161 28.1818 34.161C29.8519 34.161 30.8408 33.6162 32.0599 33.0565V30.0623H28.4082C26.6792 30.0623 25.9195 30.3843 25.9195 31.8884ZM129.952 19.439C127.168 19.439 126.203 20.959 126.203 22.8515V29.7581C126.203 31.6553 127.168 33.1801 129.952 33.1801C132.729 33.1801 133.701 31.6553 133.701 29.7581V22.8515C133.7 20.959 132.728 19.439 129.952 19.439ZM12.2744 39.6327H4.08959V19.8143H0V12.9854H4.09053V8.88392C4.09053 3.31203 6.3987 -0.000396729 12.9593 -0.000396729H18.4214V6.83038H15.0073C12.4531 6.83038 12.2847 7.78508 12.2847 9.56624L12.2744 12.9844H18.4588L17.7356 19.8133H12.2744V39.6327ZM40.2466 39.6842H33.425L33.1303 37.9582C30.0156 39.6842 27.2359 39.964 25.4021 39.964C20.3993 39.964 17.7365 36.6207 17.7365 31.997C17.7365 26.5421 20.8437 24.5953 26.4023 24.5953H32.0599V23.4159C32.0599 20.6314 31.7409 19.8143 27.4604 19.8143H20.462L21.1459 12.9854H28.7956C38.1873 12.9854 40.2466 15.9534 40.2466 23.4711V39.6842ZM63.4434 20.315C59.1985 19.5868 57.9794 19.4268 55.937 19.4268C52.2684 19.4268 51.1597 20.2364 51.1597 23.3532V29.2489C51.1597 32.3658 52.2684 33.1791 55.937 33.1791C57.9794 33.1791 59.1985 33.0163 63.4434 32.2853V38.9466C59.7253 39.7806 57.303 39.9996 55.2558 39.9996C46.4685 39.9996 42.9758 35.3768 42.9758 28.6986V23.9148C42.9758 17.231 46.4685 12.5998 55.2558 12.5998C57.303 12.5998 59.7253 12.8197 63.4434 13.6574V20.315ZM89.057 28.6986H74.0478V29.2489C74.0478 32.3658 75.1574 33.1791 78.825 33.1791C82.1222 33.1791 84.1347 33.0163 88.3721 32.2853V38.9466C84.2853 39.7806 82.1558 39.9996 78.1467 39.9996C69.3584 39.9996 65.8639 35.3768 65.8639 28.6986V23.2287C65.8639 17.3854 68.4565 12.5998 77.4618 12.5998C86.4672 12.5998 89.057 17.3302 89.057 23.2287V28.6986ZM115.663 28.8249C115.663 35.2795 113.819 39.9874 102.648 39.9874C98.6134 39.9874 96.2472 39.6327 91.7946 38.9476V2.05127L99.9766 0.685677V13.5919C101.745 12.9348 104.033 12.6007 106.116 12.6007C114.299 12.6007 115.662 16.2707 115.662 22.1683L115.663 28.8249ZM141.891 28.9653C141.891 34.5335 139.594 39.9341 129.979 39.9341C120.36 39.9341 118.019 34.5335 118.019 28.9653V23.5891C118.019 18.0181 120.36 12.6166 129.979 12.6166C139.594 12.6166 141.891 18.0181 141.891 23.5891V28.9653ZM168.102 28.9653C168.102 34.5335 165.801 39.9341 156.189 39.9341C146.57 39.9341 144.229 34.5335 144.229 28.9653V23.5891C144.229 18.0181 146.57 12.6166 156.189 12.6166C165.801 12.6166 168.102 18.0181 168.102 23.5891V28.9653ZM195 39.6327H186.131L178.63 27.1065V39.6327H170.446V2.05033L178.63 0.68474V24.8789L186.131 12.9854H195L186.811 25.9646L195 39.6327ZM156.161 19.439C153.381 19.439 152.416 20.959 152.416 22.8515V29.7581C152.416 31.6553 153.381 33.1801 156.161 33.1801C158.937 33.1801 159.919 31.6553 159.919 29.7581V22.8515C159.919 20.959 158.937 19.439 156.161 19.439Z" fill="#3B5998"/>
</svg>
