<svg width="13" height="17" viewBox="0 0 13 17" fill="none" xmlns="http://www.w3.org/2000/svg">
<path d="M12.4479 8.2341C12.0894 7.45202 11.5682 6.75006 10.917 6.17214L10.3797 5.69424C10.3614 5.67846 10.3395 5.66726 10.3157 5.66163C10.292 5.65599 10.2672 5.6561 10.2435 5.66193C10.2198 5.66776 10.1979 5.67914 10.1798 5.69508C10.1617 5.71101 10.1479 5.73101 10.1396 5.75331L9.89956 6.42094C9.74999 6.83977 9.47485 7.26756 9.08522 7.68818C9.05937 7.71503 9.02982 7.72219 9.00951 7.72398C8.9892 7.72577 8.9578 7.72219 8.9301 7.69713C8.90425 7.67565 8.89133 7.64344 8.89317 7.61122C8.9615 6.5337 8.62911 5.31837 7.90155 3.99564C7.29957 2.89664 6.46306 2.03929 5.41789 1.44146L4.79296 1.08506C4.70204 1.03321 4.58089 0.957861 4.496 1.01909C4.42066 1.07343 4.4359 1.18465 4.44029 1.27743L4.47428 1.99633C4.50198 2.58341 4.43181 3.10248 4.26562 3.53385C4.0625 4.06186 3.77073 4.55229 3.39772 4.99261C3.13814 5.29861 2.84391 5.57539 2.52059 5.81775C1.7419 6.39797 1.10872 7.14143 0.668465 7.99246C0.229298 8.85092 0.000535808 9.79606 0 10.7543C0 11.5991 0.171733 12.4171 0.511505 13.1885C0.839582 13.9313 1.31303 14.6053 1.90568 15.1735C2.50397 15.7463 3.19829 16.1973 3.97201 16.5106C4.77343 16.8363 5.62286 17.001 6.49999 17.001C7.37712 17.001 8.22655 16.8363 9.02797 16.5123C9.79979 16.2009 10.5016 15.7468 11.0943 15.1753C11.6926 14.6025 12.1616 13.9331 12.4885 13.1903C12.8277 12.421 13.0018 11.5927 13 10.7561C13 9.88259 12.8153 9.03418 12.4479 8.2341Z" fill="#FC5563"/>
</svg>
