<svg width="51" height="50" viewBox="0 0 51 50" fill="none" xmlns="http://www.w3.org/2000/svg">
<g id="search-2">
<path id="Shape" d="M11.0815 30.2156L9.34111 36.7128L2.97988 36.8474C1.07881 33.3213 0.000488281 29.2871 0.000488281 25C0.000488281 20.8543 1.00869 16.945 2.7958 13.5027H2.79717L8.46045 14.541L10.9413 20.1703C10.4221 21.684 10.1391 23.309 10.1391 25C10.1393 26.8351 10.4717 28.5934 11.0815 30.2156Z" fill="#FBBB00"/>
<path id="Shape_2" d="M49.5648 20.3296C49.852 21.8419 50.0017 23.4037 50.0017 24.9999C50.0017 26.7897 49.8135 28.5356 49.455 30.2197C48.238 35.9505 45.058 40.9546 40.6528 44.4958L40.6515 44.4944L33.5183 44.1305L32.5087 37.8282C35.4317 36.114 37.7161 33.4312 38.9194 30.2197H25.5513V20.3296H39.1145H49.5648Z" fill="#518EF8"/>
<path id="Shape_3" d="M40.6513 44.4946L40.6526 44.496C36.3684 47.9396 30.926 50.0001 25.0016 50.0001C15.481 50.0001 7.20352 44.6787 2.98096 36.8477L11.0826 30.2158C13.1938 35.8504 18.6293 39.8614 25.0016 39.8614C27.7405 39.8614 30.3065 39.121 32.5084 37.8284L40.6513 44.4946Z" fill="#28B446"/>
<path id="Shape_4" d="M40.9595 5.75547L32.8605 12.3859C30.5817 10.9615 27.888 10.1387 25.0021 10.1387C18.4855 10.1387 12.9484 14.3337 10.943 20.1703L2.79873 13.5027H2.79736C6.95811 5.48076 15.3399 0 25.0021 0C31.068 0 36.6298 2.16074 40.9595 5.75547Z" fill="#F14336"/>
</g>
</svg>
