<svg width="16" height="16" viewBox="0 0 16 16" fill="none" xmlns="http://www.w3.org/2000/svg">
<path fill-rule="evenodd" clip-rule="evenodd" d="M8 1.4533C4.38569 1.4533 1.45455 4.38371 1.45455 8C1.45455 11.6163 4.38569 14.5467 8 14.5467C11.6143 14.5467 14.5455 11.6163 14.5455 8C14.5455 4.38371 11.6143 1.4533 8 1.4533ZM0 8C0 3.58237 3.58108 0 8 0C12.4189 0 16 3.58237 16 8C16 12.4176 12.4189 16 8 16C3.58108 16 0 12.4176 0 8Z" fill="#6A8ADD"/>
<path fill-rule="evenodd" clip-rule="evenodd" d="M11.2615 5.71094C11.5644 6.00668 11.581 6.50354 11.2985 6.8207L7.79852 10.7503C7.65973 10.9061 7.46641 10.9962 7.26292 10.9999C7.05944 11.0036 6.86327 10.9205 6.71943 10.7698L4.71943 8.67398C4.42667 8.3672 4.42688 7.87004 4.71991 7.56354C5.01294 7.25704 5.48781 7.25727 5.78057 7.56405L7.23139 9.08434L10.2015 5.74971C10.484 5.43255 10.9585 5.41519 11.2615 5.71094Z" fill="#6A8ADD"/>
</svg>
