<svg width="16" height="8" viewBox="0 0 16 8" fill="none" xmlns="http://www.w3.org/2000/svg">
<path fill-rule="evenodd" clip-rule="evenodd" d="M5.82878 2.97695C5.69406 3.10445 5.54036 3.25767 5.34551 3.45208L2.2086 6.58196C1.68576 7.10363 0.858339 7.08239 0.360507 6.53452C-0.137325 5.98664 -0.117053 5.11961 0.405786 4.59794L3.5427 1.46806C3.55983 1.45097 3.57699 1.43384 3.59417 1.41669C3.93098 1.08042 4.27717 0.734784 4.60002 0.493793C4.96673 0.220055 5.50731 -0.0776451 6.19698 0.0184208C6.8815 0.113768 7.3299 0.544213 7.6178 0.902148C7.87425 1.22098 8.13064 1.64761 8.38284 2.06727C8.39535 2.08807 8.40784 2.10887 8.42032 2.12963L9.79154 4.40986C9.93683 4.65148 10.052 4.84278 10.1545 5.00401C10.1592 5.01137 10.1638 5.01861 10.1684 5.02573L10.1712 5.02305C10.3059 4.89555 10.4596 4.74233 10.6545 4.54792L13.7914 1.41804C14.3142 0.896369 15.1417 0.917611 15.6395 1.46548C16.1373 2.01335 16.1171 2.88039 15.5942 3.40205L12.4573 6.53194C12.4402 6.54903 12.423 6.56617 12.4058 6.58332C12.069 6.91958 11.7228 7.26522 11.4 7.50621C11.0333 7.77994 10.4927 8.07764 9.80302 7.98158C9.1185 7.88623 8.6701 7.45579 8.3822 7.09785C8.12575 6.77902 7.86936 6.35238 7.61715 5.93272C7.60465 5.91192 7.59216 5.89113 7.57968 5.87038L6.20846 3.59014C6.06316 3.34852 5.94802 3.15722 5.84547 2.99599C5.84078 2.98863 5.83616 2.98139 5.83161 2.97427L5.82878 2.97695Z" fill="#6A8ADD"/>
</svg>
