<svg width="14" height="13" viewBox="0 0 14 13" fill="none" xmlns="http://www.w3.org/2000/svg">
<path fill-rule="evenodd" clip-rule="evenodd" d="M7 0C7.70547 0 8.27737 0.563982 8.27737 1.25969V10.6654C8.27737 11.3611 7.70547 11.9251 7 11.9251C6.29453 11.9251 5.72263 11.3611 5.72263 10.6654V1.25969C5.72263 0.563982 6.29453 0 7 0ZM1.27737 2.95607C1.98285 2.95607 2.55474 3.52005 2.55474 4.21576V11.7403C2.55474 12.436 1.98285 13 1.27737 13C0.571899 13 0 12.436 0 11.7403V4.21576C0 3.52005 0.571899 2.95607 1.27737 2.95607ZM12.7226 4.03101C13.4281 4.03101 14 4.59499 14 5.2907V11.7403C14 12.436 13.4281 13 12.7226 13C12.0172 13 11.4453 12.436 11.4453 11.7403V5.2907C11.4453 4.59499 12.0172 4.03101 12.7226 4.03101Z" fill="#FC947D"/>
</svg>
