<svg width="12" height="15" viewBox="0 0 12 15" fill="none" xmlns="http://www.w3.org/2000/svg">
<path fill-rule="evenodd" clip-rule="evenodd" d="M6 2.36842C5.02788 2.36842 4.34532 3.11337 4.34532 3.90349C4.34532 4.69361 5.02788 5.43856 6 5.43856C6.97212 5.43856 7.65468 4.69361 7.65468 3.90349C7.65468 3.11337 6.97212 2.36842 6 2.36842ZM2.01439 3.90349C2.01439 1.68997 3.85708 0 6 0C8.14292 0 9.98561 1.68997 9.98561 3.90349C9.98561 6.117 8.14292 7.80698 6 7.80698C3.85708 7.80698 2.01439 6.117 2.01439 3.90349ZM3.64905 10.7137C2.84348 10.8376 2.33094 11.4846 2.33094 12.1528V12.4404C2.33094 12.4725 2.34247 12.5124 2.38553 12.5539C2.42965 12.5965 2.50004 12.6316 2.59192 12.6316H9.40808C9.49996 12.6316 9.57035 12.5965 9.61447 12.5539C9.65753 12.5124 9.66906 12.4725 9.66906 12.4404V12.1528C9.66906 11.4846 9.15652 10.8376 8.35095 10.7137C6.79358 10.474 5.20642 10.474 3.64905 10.7137ZM3.30001 8.37195C5.08876 8.09668 6.91124 8.09668 8.69999 8.37195C10.5549 8.65739 12 10.2232 12 12.1528V12.4404C12 13.9117 10.7813 15 9.40808 15H2.59192C1.21871 15 0 13.9117 0 12.4404V12.1528C0 10.2232 1.44509 8.65739 3.30001 8.37195Z" fill="#62CB74"/>
</svg>
