<svg width="40" height="41" viewBox="0 0 40 41" fill="none" xmlns="http://www.w3.org/2000/svg">
<circle cx="20" cy="20.5278" r="18.5" stroke="#62CB74" stroke-width="3"/>
<path d="M15.1992 25.2428C15.1992 23.9265 16.207 22.8054 17.5767 22.598C19.2993 22.3371 21.0547 22.3371 22.7773 22.598C24.147 22.8054 25.1548 23.9265 25.1548 25.2428V25.5342C25.1548 26.3039 24.4972 26.9279 23.6861 26.9279H16.6679C15.8568 26.9279 15.1992 26.3039 15.1992 25.5342V25.2428Z" stroke="#62CB74" stroke-width="2.4"/>
<path d="M23.0807 16.8835C23.0807 18.4053 21.7807 19.639 20.177 19.639C18.5733 19.639 17.2733 18.4053 17.2733 16.8835C17.2733 15.3616 18.5733 14.1279 20.177 14.1279C21.7807 14.1279 23.0807 15.3616 23.0807 16.8835Z" stroke="#62CB74" stroke-width="2.4"/>
</svg>
