<svg width="13" height="14" viewBox="0 0 13 14" fill="none" xmlns="http://www.w3.org/2000/svg">
<path fill-rule="evenodd" clip-rule="evenodd" d="M7.31722 1.05845C7.93391 0.388709 8.78362 0 9.68331 0C11.5706 0 13 1.64288 13 3.539C13 4.45861 12.6642 5.35186 12.0494 6.01954L8.41161 9.97029C6.71511 11.8127 4.58317 13.1263 2.24049 13.7624L1.53739 13.9533C0.53171 14.2263 -0.157336 13.2483 0.0310746 12.4298L0.206851 11.6662C0.785363 9.15311 1.98336 6.8512 3.67943 5.00921L7.31722 1.05845ZM8.97469 2.09924C8.95419 2.54954 9.17164 3.13786 9.65318 3.66083C10.1175 4.16514 10.5953 4.36629 10.9417 4.37191C11.0705 4.1243 11.1425 3.83809 11.1425 3.539C11.1425 2.57055 10.4336 1.89124 9.68331 1.89124C9.43785 1.89124 9.19324 1.96183 8.97469 2.09924ZM9.58582 5.92985C9.08666 5.68389 8.64356 5.32956 8.29805 4.95432C7.96983 4.59787 7.66973 4.15989 7.45364 3.67551L5.03456 6.30271C3.62417 7.83444 2.60297 9.74433 2.07629 11.8444C3.95085 11.2731 5.6673 10.1855 7.05648 8.6768L9.58582 5.92985Z" fill="#E278CB"/>
</svg>
