<svg width="30" height="30" viewBox="0 0 30 30" fill="none" xmlns="http://www.w3.org/2000/svg">
<path fill-rule="evenodd" clip-rule="evenodd" d="M15 30C23.2843 30 30 23.2843 30 15C30 6.71573 23.2843 0 15 0C6.71573 0 0 6.71573 0 15C0 23.2843 6.71573 30 15 30ZM23 19.3594V12.744L15.2784 16.852C15.1925 16.8977 15.097 16.9216 15 16.9216C14.903 16.9216 14.8075 16.8977 14.7216 16.852L7 12.744V19.3594L7.004 19.5089C7.0416 20.1823 7.33149 20.8155 7.81422 21.2788C8.29694 21.742 8.93589 22 9.6 22H20.4L20.5472 21.9959C21.2102 21.9578 21.8338 21.6633 22.2899 21.1731C22.746 20.6828 23 20.0339 23 19.3594ZM22.144 9.6819C21.666 9.24293 21.0445 8.99992 20.4 9H9.6L9.4512 9.00406C8.83335 9.03996 8.24836 9.29852 7.8014 9.73325C7.35444 10.168 7.07482 10.7504 7.0128 11.3757L15 15.6251L22.9872 11.3757C22.9226 10.7245 22.6221 10.1209 22.144 9.6819Z" fill="white"/>
</svg>
