<svg width="40" height="40" viewBox="0 0 40 40" fill="none" xmlns="http://www.w3.org/2000/svg">
<path fill-rule="evenodd" clip-rule="evenodd" d="M20 40C31.0457 40 40 31.0457 40 20C40 8.9543 31.0457 0 20 0C8.9543 0 0 8.9543 0 20C0 31.0457 8.9543 40 20 40ZM30 24.75V16.608L20.348 21.664C20.2406 21.7202 20.1212 21.7496 20 21.7496C19.8788 21.7496 19.7594 21.7202 19.652 21.664L10 16.608V24.75L10.005 24.934C10.052 25.7628 10.4144 26.5422 11.0178 27.1123C11.6212 27.6824 12.4199 28.0001 13.25 28H26.75L26.934 27.995C27.7628 27.948 28.5422 27.5856 29.1123 26.9822C29.6824 26.3788 30.0001 25.5801 30 24.75ZM28.93 12.8393C28.3325 12.299 27.5556 11.9999 26.75 12H13.25L13.064 12.005C12.2917 12.0492 11.5604 12.3674 11.0017 12.9025C10.4431 13.4375 10.0935 14.1543 10.016 14.924L20 20.154L29.984 14.924C29.9032 14.1225 29.5276 13.3795 28.93 12.8393Z" fill="#33A5F8"/>
</svg>
