<svg width="18" height="18" viewBox="0 0 18 18" fill="none" xmlns="http://www.w3.org/2000/svg">
<path fill-rule="evenodd" clip-rule="evenodd" d="M9 16.2581C4.98876 16.2581 1.74194 13.0126 1.74194 9C1.74194 4.9901 4.9889 1.74194 9 1.74194C13.0098 1.74194 16.2581 4.98887 16.2581 9C16.2581 13.0112 13.0126 16.2581 9 16.2581ZM10.2637 10.5968V10.3668C10.2637 10.0268 10.6394 9.81003 11.1067 9.54037C11.8754 9.09678 12.8919 8.51013 12.8919 6.99677C12.8919 5.16426 10.9911 3.77419 9.21027 3.77419C7.50992 3.77419 6.4178 4.48153 5.56037 5.74058C5.42947 5.93281 5.47098 6.19389 5.65632 6.3344L6.66606 7.10006C6.85499 7.24329 7.12364 7.20878 7.27087 7.02298C7.81697 6.33375 8.20546 5.93539 9.047 5.93539C9.69242 5.93539 10.4908 6.35081 10.4908 6.97667C10.4908 7.44982 10.1002 7.69282 9.46288 8.0501L9.40911 8.08021C8.67317 8.49206 7.73623 9.01639 7.73623 10.2825V10.5968C7.73623 10.8373 7.93121 11.0323 8.17171 11.0323H9.82825C10.0687 11.0323 10.2637 10.8373 10.2637 10.5968ZM9 14.5887C9.84045 14.5887 10.5242 13.905 10.5242 13.0645C10.5242 12.2241 9.84045 11.5403 9 11.5403C8.15955 11.5403 7.47581 12.2241 7.47581 13.0645C7.47581 13.905 8.15955 14.5887 9 14.5887Z" fill="#6A8ADD"/>
<path fill-rule="evenodd" clip-rule="evenodd" d="M9 0C4.02979 0 0 4.03124 0 9C0 13.9717 4.02979 18 9 18C13.9702 18 18 13.9717 18 9C18 4.03124 13.9702 0 9 0ZM1.74194 9C1.74194 13.0126 4.98876 16.2581 9 16.2581C13.0126 16.2581 16.2581 13.0112 16.2581 9C16.2581 4.98887 13.0098 1.74194 9 1.74194C4.9889 1.74194 1.74194 4.9901 1.74194 9Z" fill="#6A8ADD"/>
</svg>
