<svg width="18" height="17" viewBox="0 0 18 17" fill="none" xmlns="http://www.w3.org/2000/svg">
<path d="M17.4969 8.04772C17.9531 7.61053 18.1141 6.96888 17.9172 6.37346C17.7207 5.7778 17.2071 5.35182 16.5768 5.26173L12.6855 4.7055C12.4879 4.67714 12.3172 4.55516 12.2289 4.37919L10.4887 0.910033C10.2069 0.348546 9.63633 -0.000244141 8.99973 -0.000244141C8.36312 -0.000244141 7.79257 0.348546 7.51079 0.910033C7.51079 0.910068 5.77052 4.37915 5.77052 4.37915C5.68221 4.55519 5.51152 4.67717 5.3143 4.70546L1.42271 5.26169C0.792429 5.35182 0.278831 5.7778 0.0824131 6.37315C-0.114567 6.96888 0.0464132 7.61057 0.502425 8.04762L3.31837 10.7482C3.46121 10.8851 3.52639 11.0823 3.49275 11.2755L2.82787 15.0887C2.72043 15.706 2.97352 16.3181 3.48839 16.686C4.00335 17.0541 4.67343 17.1018 5.2372 16.8105L8.71774 15.0103C8.89429 14.919 9.10512 14.919 9.2815 15.0102L12.7623 16.8105C13.3261 17.1018 13.9962 17.0541 14.5111 16.686C15.026 16.3181 15.2791 15.706 15.1717 15.0887L14.5067 11.2757C14.4731 11.0823 14.5382 10.8851 14.6812 10.7481L17.4969 8.04772Z" fill="#F9DB6D"/>
</svg>
