<svg width="18" height="17" viewBox="0 0 18 17" fill="none" xmlns="http://www.w3.org/2000/svg">
<path d="M17.2049 6.60845L17.2051 6.60891C17.3104 6.92726 17.2273 7.26731 16.978 7.50626L16.9778 7.50642L14.1622 10.2066C14.1621 10.2067 14.1621 10.2067 14.1621 10.2067C13.8406 10.5149 13.691 10.9626 13.7678 11.4043L13.7679 11.4046L14.4328 15.2173C14.4901 15.547 14.3584 15.8733 14.075 16.0758L14.075 16.0759C13.7898 16.2797 13.4213 16.3067 13.1069 16.1443C13.1068 16.1443 13.1067 16.1442 13.1066 16.1442L9.62606 14.344L9.62577 14.3439C9.23341 14.1411 8.76587 14.1411 8.37332 14.344L8.37318 14.3441L4.8929 16.1442C4.57841 16.3067 4.20976 16.2798 3.92451 16.0759L3.92444 16.0758C3.64122 15.8734 3.50944 15.5472 3.56672 15.2175C3.56673 15.2175 3.56673 15.2175 3.56673 15.2175C3.56674 15.2174 3.56675 15.2173 3.56676 15.2173L4.2316 11.4044L4.23163 11.4042C4.30853 10.9625 4.15873 10.5149 3.83749 10.2068C3.83745 10.2068 3.83741 10.2068 3.83737 10.2067L1.02155 7.50631L1.02138 7.50615C0.772315 7.26744 0.689085 6.9274 0.794496 6.60861L0.794651 6.60813C0.900077 6.28859 1.17506 6.05475 1.52883 6.00415C1.52885 6.00414 1.52886 6.00414 1.52888 6.00414L5.42042 5.44792L5.42079 5.44786C5.85736 5.38524 6.24075 5.1144 6.44089 4.71546L6.4409 4.71545L8.1811 1.24646C8.18112 1.24642 8.18114 1.24637 8.18117 1.24633C8.33361 0.942718 8.64202 0.749756 8.99973 0.749756C9.35742 0.749756 9.66584 0.942718 9.81828 1.24632C9.81831 1.24637 9.81833 1.24642 9.81835 1.24646L11.5586 4.71548L11.5586 4.7156C11.7589 5.11461 12.1423 5.38521 12.5789 5.44789L12.5793 5.44795L16.4707 6.00418C16.8243 6.05473 17.0994 6.28848 17.2049 6.60845Z" stroke="#F9DB6D" stroke-width="1.5"/>
<path d="M7.51103 0.910034C7.79284 0.348546 8.36336 -0.000244141 8.99997 -0.000244141V14.9418C8.90313 14.9418 8.80627 14.9646 8.71798 15.0103L5.23744 16.8105C4.67368 17.1018 4.0036 17.0541 3.48863 16.686C2.97377 16.3181 2.72068 15.706 2.82811 15.0887L3.49299 11.2756C3.52663 11.0823 3.46145 10.8851 3.31861 10.7482L0.502669 8.04763C0.0466573 7.61058 -0.114323 6.96888 0.0826573 6.37316C0.279075 5.77781 0.792673 5.35183 1.42295 5.2617L5.31454 4.70547C5.51177 4.67718 5.68245 4.55519 5.77076 4.37916L7.51103 0.910034Z" fill="#F9DB6D"/>
</svg>
