<svg width="30" height="30" viewBox="0 0 30 30" fill="none" xmlns="http://www.w3.org/2000/svg">
<path fill-rule="evenodd" clip-rule="evenodd" d="M15 30C23.2843 30 30 23.2843 30 15C30 6.71573 23.2843 0 15 0C6.71573 0 0 6.71573 0 15C0 23.2843 6.71573 30 15 30ZM6.51886 14.8127C10.8914 12.9077 13.8089 11.6515 15.2676 11.044C19.432 9.31147 20.3001 9.0096 20.8626 9.00022C21.0699 8.99581 21.2732 9.05683 21.4439 9.1746C21.5637 9.27858 21.64 9.42383 21.6576 9.58147C21.6875 9.77684 21.6957 9.97493 21.682 10.1721C21.457 12.544 20.4801 18.2983 19.9832 20.9552C19.7732 22.0802 19.3589 22.4552 18.9576 22.4927C18.2695 22.5565 17.7089 22.159 17.0882 21.7165C17.0707 21.704 17.0531 21.6915 17.0355 21.6789C16.8888 21.5742 16.7376 21.4663 16.582 21.3658C15.892 20.9121 15.3595 20.5502 14.827 20.1865C14.3376 19.8527 13.8464 19.5208 13.2332 19.1159C11.9601 18.2759 12.4926 17.7621 13.2051 17.0758C13.3245 16.9615 13.442 16.8452 13.5576 16.7271C13.6004 16.6828 13.7786 16.5167 14.0387 16.2744C14.098 16.2191 14.1616 16.1598 14.2289 16.0971L14.2904 16.0399C15.4669 14.9452 17.6348 12.9279 17.6901 12.6902C17.6995 12.6508 17.7089 12.5027 17.6207 12.4258C17.5345 12.3471 17.4032 12.3733 17.3095 12.3958C17.1782 12.4258 15.0689 13.819 10.9832 16.5771C10.3851 16.9896 9.84323 17.1883 9.35573 17.1771C8.82135 17.1658 7.79011 16.8752 7.02511 16.6258L6.69698 16.5227L6.69444 16.5219C5.91761 16.2767 5.34704 16.0966 5.40323 15.6415C5.43698 15.3715 5.81011 15.094 6.51886 14.8127Z" fill="white"/>
</svg>
