<svg width="40" height="40" viewBox="0 0 40 40" fill="none" xmlns="http://www.w3.org/2000/svg">
<path fill-rule="evenodd" clip-rule="evenodd" d="M20 40C31.0457 40 40 31.0457 40 20C40 8.9543 31.0457 0 20 0C8.9543 0 0 8.9543 0 20C0 31.0457 8.9543 40 20 40ZM8.69181 19.7503C14.5218 17.2103 18.4118 15.5353 20.3568 14.7253C25.9093 12.4153 27.0668 12.0128 27.8168 12.0003C28.0932 11.9944 28.3643 12.0758 28.5918 12.2328C28.7515 12.3714 28.8533 12.5651 28.8768 12.7753C28.9167 13.0358 28.9276 13.2999 28.9093 13.5628C28.6093 16.7253 27.3068 24.3978 26.6443 27.9403C26.3643 29.4403 25.8118 29.9403 25.2768 29.9903C24.3593 30.0753 23.6118 29.5453 22.7843 28.9553C22.761 28.9387 22.7375 28.9219 22.714 28.9052C22.5184 28.7656 22.3169 28.6217 22.1093 28.4878C21.1893 27.8828 20.4793 27.4003 19.7693 26.9153C19.1168 26.4703 18.4618 26.0278 17.6443 25.4878C15.9468 24.3678 16.6568 23.6828 17.6068 22.7678C17.766 22.6153 17.9227 22.4603 18.0768 22.3028C18.1338 22.2438 18.3714 22.0223 18.7182 21.6992C18.7973 21.6255 18.8821 21.5464 18.9718 21.4628L19.0538 21.3865C20.6225 19.9269 23.5131 17.2372 23.5868 16.9203C23.5993 16.8678 23.6118 16.6703 23.4943 16.5678C23.3793 16.4628 23.2043 16.4978 23.0793 16.5278C22.9043 16.5678 20.0918 18.4253 14.6443 22.1028C13.8468 22.6528 13.1243 22.9178 12.4743 22.9028C11.7618 22.8878 10.3868 22.5003 9.36681 22.1678L8.92931 22.0303L8.92591 22.0292C7.89014 21.7023 7.12939 21.4621 7.20431 20.8553C7.24931 20.4953 7.74681 20.1253 8.69181 19.7503Z" fill="#33A5F8"/>
</svg>
