<svg width="85" height="59" viewBox="0 0 85 59" fill="none" xmlns="http://www.w3.org/2000/svg">
<path d="M60.6876 20.9214L61.0726 20.7798C60.7226 20.1426 60.501 19.3992 60.501 18.703C60.501 16.284 61.9826 15.7058 64.1758 15.7058C66.3807 15.7058 67.8507 16.3902 67.8507 18.8092C67.8507 19.3874 67.7223 19.8594 67.4657 20.4258H69.8689V21.889H60.6876V20.9214ZM64.1758 17.2044C62.9159 17.2044 61.8309 17.4168 61.8309 18.821C61.8309 19.529 61.9709 20.0246 62.1692 20.4376H66.2057C66.2874 20.2724 66.5207 19.6234 66.5207 18.821C66.5207 17.4168 65.4358 17.2044 64.1758 17.2044ZM59.626 54.575V51.9082H58.2844V58.7404H59.626V56.0854H67.6523V54.575H59.626ZM67.6407 46.1734L67.664 44.7102H62.7525C61.3409 44.7102 60.501 45.4182 60.501 47.2C60.501 47.7664 60.6993 48.557 60.9443 49.0762H58.2727V50.5394H67.6523V49.0762H62.1692C61.9942 48.6868 61.8309 48.0968 61.8309 47.377C61.8309 46.7162 62.0409 46.1852 62.7059 46.1852H67.6407V46.1734ZM62.9742 31.2464C60.431 31.2464 58.0861 30.4912 58.0861 27.3642C58.0861 24.1428 60.4193 23.4938 62.9742 23.4938C65.5174 23.4938 67.8507 24.2372 67.8507 27.3642C67.8507 30.5856 65.5058 31.2464 62.9742 31.2464ZM62.9742 29.677C64.9225 29.677 66.4974 29.3466 66.4974 27.3642C66.4974 25.37 64.9225 25.075 62.9742 25.075C61.0143 25.075 59.451 25.3936 59.451 27.376C59.4393 29.3584 61.0143 29.677 62.9742 29.677ZM61.8309 3.54C61.8309 3.3748 61.8076 2.3836 62.7292 2.3836H67.6757V0.8968H62.7525C61.3409 0.8968 60.5126 1.6284 60.5126 3.3866C60.5126 4.071 60.711 4.9088 61.0843 5.5342L60.6993 5.6758V6.6552H67.6757V5.192H62.1692C61.9826 4.8144 61.8309 4.248 61.8309 3.54ZM64.7941 12.8856C66.0191 12.7794 66.4974 12.2366 66.4974 10.8088C66.4974 10.148 66.3691 9.4754 66.1007 8.6376H67.3724C67.7223 9.5108 67.839 10.3604 67.839 11.1628C67.839 13.6054 66.3691 14.3842 64.1641 14.3842C62.0059 14.3842 60.4893 13.5228 60.4893 11.1628C60.4893 8.6612 62.2859 8.2954 64.2225 8.2836H64.7825V12.8856H64.7941ZM63.6042 12.8856V9.794C62.6709 9.794 61.7026 10.03 61.7026 11.2218C61.7026 12.4726 62.4959 12.8148 63.6042 12.8856ZM64.7941 41.831C66.0074 41.7248 66.4974 41.1702 66.4974 39.7542C66.4974 39.0934 66.3691 38.4208 66.1124 37.5948H67.384C67.734 38.468 67.8507 39.3176 67.8507 40.12C67.8507 42.5626 66.3807 43.3414 64.1758 43.3414C62.0176 43.3414 60.501 42.48 60.501 40.12C60.501 37.6184 62.2976 37.2408 64.2341 37.2408H64.7941V41.831ZM63.6625 41.8074V38.7276C62.7292 38.7276 61.7609 38.9754 61.7609 40.1554C61.7609 41.3944 62.5542 41.7484 63.6625 41.8074ZM73.3805 52.9112H79.3302C81.4418 52.9112 81.5935 54.1856 81.5935 54.9762C81.5935 55.7668 81.4301 57.0412 79.3302 57.0412H73.3921V58.4926H79.5169C82.5268 58.4926 83.0051 56.2978 83.0051 54.9644C83.0051 53.631 82.5384 51.4362 79.5169 51.4362H73.3921V52.9112H73.3805ZM73.7771 41.3236C73.2405 41.3236 72.8205 41.7484 72.8205 42.2912C72.8205 42.8222 73.2405 43.2588 73.7771 43.2588C74.3021 43.2588 74.7221 42.834 74.7221 42.2912C74.7221 41.7484 74.3021 41.3236 73.7771 41.3236ZM81.4418 43.011C82.5501 43.011 82.9701 42.4328 82.9701 41.5832C82.9701 41.241 82.9584 41.0758 82.9467 40.9106H81.6751V41.1584C81.6751 41.5478 81.5585 41.5596 81.3135 41.5596H75.807V43.011H81.4418ZM81.4418 14.7618C82.5501 14.7618 82.9701 14.1836 82.9701 13.334C82.9701 12.9918 82.9584 12.8148 82.9351 12.6614H81.6751V12.9092C81.6751 13.2986 81.5585 13.3104 81.3135 13.3104H75.807V14.7736H81.4418V14.7618ZM81.2435 36.8632L75.807 38.6332V40.2262L82.9701 37.4532V36.2614L75.8187 33.5002V35.0814L81.2435 36.8632ZM79.9252 31.5532C81.1385 31.447 81.6285 30.916 81.6285 29.5236C81.6285 28.8746 81.5118 28.2256 81.2435 27.4114H82.5151C82.8651 28.2728 82.9817 29.087 82.9817 29.8776C82.9817 32.2612 81.5118 33.0282 79.3186 33.0282C77.1603 33.0282 75.6437 32.1904 75.6437 29.8776C75.6437 27.435 77.4403 27.0692 79.3769 27.0692H79.9369V31.5532H79.9252ZM78.7352 28.5206C77.8019 28.5206 76.8337 28.7566 76.8337 29.9248C76.8337 31.1638 77.627 31.506 78.7352 31.565V28.5206ZM75.702 21.9598C75.6437 22.2194 75.6437 22.597 75.6437 22.9038C75.6437 23.4112 75.8654 24.2136 76.192 24.6502L75.807 24.7918V25.7712H82.8068V24.3198H77.2886C77.1136 23.954 76.997 23.482 76.997 22.9392C76.997 22.5734 77.0086 22.2548 77.067 21.9598H75.702ZM80.6835 15.9418C79.4469 15.9418 78.7469 16.4138 78.5486 18.4552C78.4553 19.529 78.2453 19.7296 77.8369 19.7296C77.3353 19.7296 76.9386 19.5054 76.9386 18.4198C76.9386 17.5938 77.1253 16.9448 77.347 16.2604H76.0287C75.7137 16.992 75.6204 17.759 75.6204 18.408C75.6204 20.4376 76.787 21.0984 77.8369 21.0984C78.8752 21.0984 79.6452 20.6736 79.8202 18.5968C79.9135 17.4994 80.2285 17.3342 80.6952 17.3342C81.1618 17.3342 81.6401 17.6646 81.6401 18.7974C81.6401 19.6824 81.4185 20.473 81.2201 21.0276H82.5734C82.7834 20.5084 82.9584 19.4818 82.9584 18.8092C82.9701 16.6498 81.8035 15.9418 80.6835 15.9418ZM81.6051 7.4458C81.6285 7.5756 81.6518 8.0594 81.6518 8.3426C81.6518 9.0742 81.4301 9.3928 80.8468 9.3928H77.0436V7.4458H75.8187V9.3928H73.8588L74.0571 10.8206H75.8187L75.8887 12.0478H77.0436V10.8206H81.0218C82.3868 10.8206 82.9701 9.9238 82.9701 8.7792C82.9701 8.2364 82.9467 7.7644 82.8767 7.434H81.6051V7.4458ZM75.8187 0V1.5104L80.8585 3.2686L75.8187 4.8026V6.4192L82.4684 3.9648L85 4.956V3.5872L75.8187 0ZM76.962 46.9286C76.962 46.7634 76.9387 45.7958 77.8486 45.7958H82.7951V44.3562H77.8836C76.472 44.3562 75.632 45.0642 75.632 46.787C75.632 47.4596 75.8304 48.2738 76.2037 48.8874L75.8187 49.029V49.9848H82.7951V48.557H77.3003C77.1253 48.1676 76.962 47.6248 76.962 46.9286ZM73.7771 12.9682C73.2405 12.9682 72.8205 13.393 72.8205 13.9358C72.8205 14.4786 73.2405 14.9034 73.7771 14.9034C74.3021 14.9034 74.7221 14.4786 74.7221 13.9358C74.7221 13.393 74.3021 12.9682 73.7771 12.9682ZM21.3958 29.2286C15.3877 30.8098 9.2863 27.2462 7.7697 21.2636C6.24142 15.281 9.86961 9.1568 15.866 7.5756C21.8625 5.9944 27.9639 9.5698 29.4922 15.5406C31.0204 21.5114 27.3806 27.6592 21.3958 29.2286ZM46.3382 0.4012H2.93988C1.5866 0.4012 0 1.7464 0 3.1388V35.0696C0 49.0998 10.9896 59 24.5457 59C38.1018 59 49.1031 49.0998 49.1031 35.0696V3.2804C49.0914 1.888 47.6915 0.4012 46.3382 0.4012Z" fill="#284C96"/>
</svg>
