<svg width="140" height="40" fill="none" xmlns="http://www.w3.org/2000/svg"><path d="M36.427 0h6.374v40h-6.374V0zM65.11 27.24c0 6.121-5.126 6.61-6.651 6.61-3.81 0-4.503-3.582-4.503-5.742V12.8h-6.374v15.276c0 3.792 1.186 6.922 3.264 9.008 1.835 1.845 4.586 2.853 7.565 2.853 2.113 0 5.106-.66 6.699-2.121V40h6.374V12.8H65.11v14.44zM84.23 3.2h-6.374v9.6h-4.78v6.4h4.78V40h6.374V19.2h4.78v-6.4h-4.78V3.2zm24.853 28.667c-1.388 1.253-3.22 1.947-5.231 1.947-4.433 0-7.689-3.269-7.689-7.757 0-4.488 3.152-7.619 7.689-7.619 1.975 0 3.843.66 5.266 1.914l.967.835 4.298-4.314-1.076-.974c-2.529-2.293-5.886-3.58-9.457-3.58-7.967 0-13.753 5.773-13.753 13.705 0 7.897 5.925 13.876 13.753 13.876 3.638 0 7.03-1.286 9.527-3.616l1.039-.974-4.364-4.31-.969.867zm28.049-16.696c-1.836-1.843-3.987-2.851-6.966-2.851-2.113 0-4.507.66-6.1 2.12V0h-6.374v40h6.374V25.016c0-6.122 4.331-6.608 5.856-6.608 3.81 0 3.704 3.582 3.704 5.739V40H140V24.18c0-3.792-.789-6.921-2.868-9.01z" fill="#1D303A"/><path d="M103.641 21.5c1.223 0 2.395.488 3.259 1.356a4.638 4.638 0 010 6.544 4.598 4.598 0 01-6.517 0 4.637 4.637 0 010-6.544 4.598 4.598 0 013.258-1.356z" fill="#FF3D2E"/><path d="M27.504 29.953c-2.423 2.504-5.715 3.861-9.18 3.861-7.1 0-12.263-5.6-12.263-13.286 0-7.722 5.163-13.322 12.263-13.322 3.431 0 6.686 1.355 9.147 3.826l.968.974L32.7 7.728l-.935-.975c-3.533-3.652-8.313-5.633-13.44-5.633C7.863 1.12 0 9.467 0 20.56c0 11.061 7.899 19.375 18.324 19.375 5.163 0 9.943-2.016 13.476-5.67l.935-.973-4.225-4.348-1.006 1.008z" fill="#1D303A"/></svg>