<svg width="9" height="16" fill="none" xmlns="http://www.w3.org/2000/svg"><path fill-rule="evenodd" clip-rule="evenodd" d="M4.5.464c.574 0 1.039.439 1.039.98v.8h.115C7.585 2.245 9 3.829 9 5.598c0 .541-.465.98-1.038.98-.574 0-1.039-.439-1.039-.98 0-.852-.651-1.394-1.27-1.394H5.54v3.082l1.402.481A3.047 3.047 0 019 10.65c0 1.602-1.282 3.049-3.05 3.049h-.411v.8c0 .542-.465.98-1.039.98-.573 0-1.038-.438-1.038-.98v-.8h-.116C1.415 13.698 0 12.115 0 10.345c0-.54.465-.98 1.038-.98.574 0 1.039.44 1.039.98 0 .852.651 1.394 1.27 1.394h.115V8.657l-1.403-.48A3.047 3.047 0 010 5.292C0 3.69 1.282 2.245 3.05 2.245h.412v-.801c0-.541.465-.98 1.038-.98zM3.462 4.203H3.05c-.454 0-.973.406-.973 1.09 0 .523.323.916.692 1.043l.693.237v-2.37zm2.077 5.166v2.37h.41c.455 0 .974-.406.974-1.09 0-.523-.323-.916-.692-1.042l-.692-.238z" fill="#404053"/></svg>