<svg width="195" height="40" fill="none" xmlns="http://www.w3.org/2000/svg"><path d="M104.07 19.439c-1.669 0-2.872.547-4.092 1.105v12.623c1.168.111 1.838.111 2.947.111 4.006 0 4.555-1.835 4.555-4.398v-6.028c0-1.893-.628-3.413-3.41-3.413zm-26.607-.689c-2.78 0-3.414 1.527-3.414 3.417v1.063h6.824v-1.063c0-1.89-.634-3.417-3.41-3.417zM25.92 31.888c0 1.496.705 2.273 2.262 2.273 1.67 0 2.659-.545 3.878-1.105v-2.994h-3.652c-1.729 0-2.489.322-2.489 1.826zM129.952 19.44c-2.784 0-3.749 1.52-3.749 3.413v6.906c0 1.897.965 3.422 3.749 3.422 2.777 0 3.749-1.525 3.749-3.422v-6.906c-.001-1.893-.973-3.413-3.749-3.413zM12.274 39.633H4.09V19.814H0v-6.829h4.09V8.884C4.09 3.312 6.4 0 12.96 0h5.461v6.83h-3.414c-2.554 0-2.722.955-2.722 2.736l-.01 3.418h6.184l-.723 6.83h-5.462v19.819zm27.973.051h-6.822l-.295-1.726c-3.114 1.726-5.894 2.006-7.728 2.006-5.003 0-7.666-3.343-7.666-7.967 0-5.455 3.108-7.402 8.666-7.402h5.658v-1.18c0-2.784-.32-3.6-4.6-3.6h-6.998l.684-6.83h7.65c9.391 0 11.45 2.968 11.45 10.486v16.213zm23.196-19.369c-4.244-.728-5.464-.888-7.506-.888-3.669 0-4.777.81-4.777 3.926v5.896c0 3.117 1.108 3.93 4.777 3.93 2.042 0 3.262-.163 7.506-.894v6.662C59.725 39.78 57.303 40 55.256 40c-8.788 0-12.28-4.623-12.28-11.301v-4.784c0-6.684 3.492-11.315 12.28-11.315 2.047 0 4.47.22 8.187 1.057v6.658zm25.614 8.384h-15.01v.55c0 3.117 1.11 3.93 4.778 3.93 3.297 0 5.31-.163 9.547-.894v6.662C84.285 39.78 82.156 40 78.147 40c-8.789 0-12.283-4.623-12.283-11.301v-5.47c0-5.844 2.593-10.63 11.598-10.63s11.595 4.731 11.595 10.63v5.47zm26.606.126c0 6.454-1.844 11.162-13.015 11.162-4.035 0-6.4-.354-10.853-1.04V2.052L99.977.686v12.906c1.768-.657 4.056-.991 6.139-.991 8.183 0 9.546 3.67 9.546 9.567l.001 6.657zm26.228.14c0 5.568-2.297 10.97-11.912 10.97-9.619 0-11.96-5.402-11.96-10.97V23.59c0-5.57 2.341-10.972 11.96-10.972 9.615 0 11.912 5.401 11.912 10.972v5.376zm26.211 0c0 5.568-2.301 10.97-11.913 10.97-9.619 0-11.96-5.402-11.96-10.97V23.59c0-5.57 2.341-10.972 11.96-10.972 9.612 0 11.913 5.401 11.913 10.972v5.376zM195 39.633h-8.869l-7.501-12.527v12.527h-8.184V2.05L178.63.685v24.194l7.501-11.894H195l-8.189 12.98L195 39.633zm-38.839-20.194c-2.78 0-3.745 1.52-3.745 3.413v6.906c0 1.897.965 3.422 3.745 3.422 2.776 0 3.758-1.525 3.758-3.422v-6.906c0-1.893-.982-3.413-3.758-3.413z" fill="#3B5998"/></svg>