<svg width="13" height="17" fill="none" xmlns="http://www.w3.org/2000/svg"><path d="M12.448 8.234a6.23 6.23 0 00-1.531-2.062l-.537-.478a.151.151 0 00-.137-.032.15.15 0 00-.103.091l-.24.668c-.15.419-.425.847-.815 1.267a.117.117 0 01-.075.036.104.104 0 01-.08-.027.104.104 0 01-.037-.086c.068-1.077-.264-2.293-.991-3.615A6.466 6.466 0 005.418 1.44l-.625-.356c-.091-.052-.212-.127-.297-.066-.075.054-.06.166-.056.258l.034.72c.028.586-.042 1.105-.208 1.537a5.068 5.068 0 01-.868 1.459c-.26.306-.554.582-.877.825A6.36 6.36 0 00.668 7.992 6.068 6.068 0 000 10.754c0 .845.172 1.663.512 2.434a6.25 6.25 0 001.394 1.986 6.506 6.506 0 002.066 1.337c.801.325 1.65.49 2.528.49.877 0 1.727-.165 2.528-.489a6.455 6.455 0 002.066-1.337 6.193 6.193 0 001.395-1.985A5.995 5.995 0 0013 10.756c0-.873-.185-1.722-.552-2.522z" fill="#FC5563"/></svg>