<svg width="51" height="50" fill="none" xmlns="http://www.w3.org/2000/svg"><g id="search-2"><path id="Shape" d="M11.082 30.216l-1.74 6.497-6.362.134A24.888 24.888 0 010 25c0-4.146 1.009-8.055 2.796-11.497h.001L8.46 14.54l2.481 5.63A14.861 14.861 0 0010.14 25c0 1.835.333 3.593.943 5.216z" fill="#FBBB00"/><path id="Shape_2" d="M49.565 20.33a25.02 25.02 0 01.437 4.67c0 1.79-.189 3.536-.547 5.22a24.995 24.995 0 01-8.802 14.276l-.002-.002-7.133-.364-1.01-6.302a14.9 14.9 0 006.411-7.608H25.551v-9.89h24.014z" fill="#518EF8"/><path id="Shape_3" d="M40.651 44.495l.002.001A24.894 24.894 0 0125.002 50C15.48 50 7.204 44.68 2.98 36.848l8.102-6.632c2.11 5.634 7.546 9.645 13.919 9.645 2.739 0 5.305-.74 7.506-2.033l8.143 6.667z" fill="#28B446"/><path id="Shape_4" d="M40.96 5.755l-8.1 6.63a14.777 14.777 0 00-7.858-2.246c-6.517 0-12.054 4.195-14.059 10.031l-8.144-6.667h-.002C6.958 5.48 15.34 0 25.002 0 31.068 0 36.63 2.16 40.96 5.755z" fill="#F14336"/></g></svg>