<svg width="40" height="41" fill="none" xmlns="http://www.w3.org/2000/svg"><circle cx="20" cy="20.528" r="18.5" stroke="#62CB74" stroke-width="3"/><path d="M15.2 25.243c0-1.316 1.007-2.438 2.377-2.645a17.43 17.43 0 015.2 0c1.37.207 2.378 1.329 2.378 2.645v.291c0 .77-.658 1.394-1.469 1.394h-7.018c-.811 0-1.469-.624-1.469-1.394v-.291zm7.88-8.359c0 1.521-1.3 2.755-2.903 2.755-1.604 0-2.904-1.234-2.904-2.755 0-1.522 1.3-2.756 2.904-2.756 1.604 0 2.904 1.234 2.904 2.756z" stroke="#62CB74" stroke-width="2.4"/></svg>