<svg width="12" height="15" fill="none" xmlns="http://www.w3.org/2000/svg"><path fill-rule="evenodd" clip-rule="evenodd" d="M6 2.368c-.972 0-1.655.745-1.655 1.535 0 .79.683 1.536 1.655 1.536s1.655-.745 1.655-1.536c0-.79-.683-1.535-1.655-1.535zM2.014 3.903C2.014 1.69 3.857 0 6 0c2.143 0 3.986 1.69 3.986 3.903 0 2.214-1.843 3.904-3.986 3.904-2.143 0-3.986-1.69-3.986-3.904zm1.635 6.81c-.806.125-1.318.772-1.318 1.44v.287c0 .033.011.072.055.114a.294.294 0 00.206.078h6.816a.294.294 0 00.206-.078c.044-.042.055-.082.055-.114v-.287c0-.668-.512-1.315-1.318-1.44a15.462 15.462 0 00-4.702 0zM3.3 8.373a17.758 17.758 0 015.4 0c1.855.285 3.3 1.851 3.3 3.78v.288C12 13.912 10.781 15 9.408 15H2.592C1.219 15 0 13.912 0 12.44v-.287c0-1.93 1.445-3.496 3.3-3.781z" fill="#62CB74"/></svg>