<svg width="16" height="8" fill="none" xmlns="http://www.w3.org/2000/svg"><path fill-rule="evenodd" clip-rule="evenodd" d="M5.829 2.977c-.135.127-.289.28-.483.475l-3.137 3.13c-.523.522-1.35.5-1.848-.047a1.417 1.417 0 01.045-1.937l3.137-3.13.051-.051C3.931 1.08 4.277.735 4.6.494c.367-.274.907-.572 1.597-.476.684.096 1.133.526 1.42.884.257.319.514.746.766 1.165l.037.063 1.372 2.28c.145.241.26.433.363.594l.013.022.003-.003c.135-.127.289-.28.484-.475l3.136-3.13c.523-.522 1.35-.5 1.848.047a1.416 1.416 0 01-.045 1.937l-3.137 3.13-.051.051c-.337.337-.683.682-1.006.923-.367.274-.907.572-1.597.476-.685-.096-1.133-.526-1.42-.884-.257-.319-.514-.746-.766-1.165L7.58 5.87 6.208 3.59a29.474 29.474 0 00-.376-.616l-.003.003z" fill="#6A8ADD"/></svg>