<svg width="14" height="13" fill="none" xmlns="http://www.w3.org/2000/svg"><path fill-rule="evenodd" clip-rule="evenodd" d="M7 0c.705 0 1.277.564 1.277 1.26v9.405c0 .696-.572 1.26-1.277 1.26a1.269 1.269 0 01-1.277-1.26V1.26C5.723.564 6.295 0 7 0zM1.277 2.956c.706 0 1.278.564 1.278 1.26v7.524c0 .696-.572 1.26-1.278 1.26A1.269 1.269 0 010 11.74V4.216c0-.696.572-1.26 1.277-1.26zm11.446 1.075c.705 0 1.277.564 1.277 1.26v6.45c0 .695-.572 1.259-1.277 1.259a1.269 1.269 0 01-1.278-1.26V5.29c0-.695.572-1.259 1.278-1.259z" fill="#FC947D"/></svg>