<svg width="13" height="14" fill="none" xmlns="http://www.w3.org/2000/svg"><path fill-rule="evenodd" clip-rule="evenodd" d="M7.317 1.058A3.217 3.217 0 019.683 0C11.571 0 13 1.643 13 3.539c0 .92-.336 1.813-.95 2.48L8.411 9.97c-1.697 1.843-3.829 3.156-6.172 3.792l-.703.191C.531 14.226-.158 13.248.03 12.43l.176-.764C.785 9.153 1.983 6.851 3.679 5.01l3.638-3.95zM8.975 2.1c-.02.45.197 1.039.678 1.562.464.504.942.705 1.289.71.128-.247.2-.533.2-.832 0-.968-.708-1.648-1.459-1.648-.245 0-.49.07-.708.208zm.61 3.83a4.482 4.482 0 01-1.287-.975 4.8 4.8 0 01-.844-1.278l-2.42 2.627c-1.41 1.531-2.431 3.441-2.958 5.541 1.875-.57 3.591-1.659 4.98-3.167l2.53-2.747z" fill="#E278CB"/></svg>