<svg width="30" height="30" fill="none" xmlns="http://www.w3.org/2000/svg"><path fill-rule="evenodd" clip-rule="evenodd" d="M15 30c8.284 0 15-6.716 15-15 0-8.284-6.716-15-15-15C6.716 0 0 6.716 0 15c0 8.284 6.716 15 15 15zm8-10.64v-6.616l-7.722 4.108a.593.593 0 01-.556 0L7 12.744v6.615l.004.15c.038.673.327 1.306.81 1.77A2.579 2.579 0 009.6 22h10.8l.147-.004a2.583 2.583 0 001.743-.823c.456-.49.71-1.14.71-1.814zm-.856-9.678A2.577 2.577 0 0020.4 9H9.6l-.149.004a2.581 2.581 0 00-1.65.73 2.657 2.657 0 00-.788 1.642L15 15.626l7.987-4.25a2.655 2.655 0 00-.843-1.694z" fill="#fff"/></svg>