<svg width="18" height="18" fill="none" xmlns="http://www.w3.org/2000/svg"><path fill-rule="evenodd" clip-rule="evenodd" d="M9 16.258A7.254 7.254 0 011.742 9 7.256 7.256 0 019 1.742 7.256 7.256 0 0116.258 9 7.254 7.254 0 019 16.258zm1.264-5.661v-.23c0-.34.375-.557.843-.827.768-.443 1.785-1.03 1.785-2.543 0-1.833-1.9-3.223-3.682-3.223-1.7 0-2.792.708-3.65 1.967a.436.436 0 00.096.593l1.01.766a.436.436 0 00.605-.077c.546-.69.934-1.088 1.776-1.088.645 0 1.444.416 1.444 1.042 0 .473-.39.716-1.028 1.073l-.054.03c-.736.412-1.673.936-1.673 2.203v.314c0 .24.195.435.436.435h1.656c.24 0 .436-.195.436-.435zM9 14.589c.84 0 1.524-.684 1.524-1.524S9.84 11.54 9 11.54s-1.524.684-1.524 1.525c0 .84.684 1.524 1.524 1.524z" fill="#6A8ADD"/><path fill-rule="evenodd" clip-rule="evenodd" d="M9 0C4.03 0 0 4.031 0 9a9 9 0 009 9 9 9 0 009-9c0-4.969-4.03-9-9-9zM1.742 9A7.254 7.254 0 009 16.258 7.254 7.254 0 0016.258 9 7.256 7.256 0 009 1.742 7.256 7.256 0 001.742 9z" fill="#6A8ADD"/></svg>