<svg width="18" height="17" fill="none" xmlns="http://www.w3.org/2000/svg"><path d="M17.205 6.608h0a.854.854 0 01-.227.898h0l-2.816 2.7s0 0 0 0a1.34 1.34 0 00-.394 1.198h0l.665 3.813a.862.862 0 01-.358.859h0a.924.924 0 01-.968.068s0 0 0 0l-3.48-1.8h-.001a1.365 1.365 0 00-1.253 0h0l-3.48 1.8a.924.924 0 01-.968-.068h0a.861.861 0 01-.358-.859s0 0 0 0 0 0 0 0l.665-3.813h0a1.34 1.34 0 00-.395-1.197s0 0 0 0l-2.815-2.7h0a.854.854 0 01-.228-.898h0a.893.893 0 01.735-.605s0 0 0 0l3.891-.556h0c.437-.063.82-.334 1.02-.733h0l1.741-3.469s0 0 0 0A.903.903 0 019 .75c.357 0 .666.193.818.496 0 0 0 0 0 0l1.74 3.47h0c.2.399.584.67 1.02.732h.001l3.892.556c.353.05.628.284.734.604z" stroke="#F9DB6D" stroke-width="1.5"/><path d="M7.511.91C7.793.349 8.363 0 9 0v14.942a.613.613 0 00-.282.068l-3.48 1.8a1.674 1.674 0 01-1.75-.124 1.611 1.611 0 01-.66-1.597l.665-3.813a.59.59 0 00-.174-.528l-2.816-2.7a1.604 1.604 0 01-.42-1.675 1.643 1.643 0 011.34-1.111l3.892-.557a.606.606 0 00.456-.326L7.51.91z" fill="#F9DB6D"/></svg>