<svg width="18" height="17" fill="none" xmlns="http://www.w3.org/2000/svg"><path d="M17.205 6.608h0a.854.854 0 01-.227.898h0l-2.816 2.7s0 0 0 0a1.34 1.34 0 00-.394 1.198h0l.665 3.813a.862.862 0 01-.358.859h0a.924.924 0 01-.968.068s0 0 0 0l-3.48-1.8h-.001a1.365 1.365 0 00-1.253 0h0l-3.48 1.8a.924.924 0 01-.968-.068h0a.861.861 0 01-.358-.859s0 0 0 0 0 0 0 0l.665-3.813h0a1.34 1.34 0 00-.395-1.197s0 0 0 0l-2.815-2.7h0a.854.854 0 01-.228-.898h0a.893.893 0 01.735-.605s0 0 0 0l3.891-.556h0c.437-.063.82-.334 1.02-.733h0l1.741-3.469s0 0 0 0A.903.903 0 019 .75c.357 0 .666.193.818.496 0 0 0 0 0 0l1.74 3.47h0c.2.399.584.67 1.02.732h.001l3.892.556c.353.05.628.284.734.604z" stroke="#F9DB6D" stroke-width="1.5"/></svg>