<svg width="18" height="17" fill="none" xmlns="http://www.w3.org/2000/svg"><path d="M17.497 8.048a1.604 1.604 0 00.42-1.675 1.643 1.643 0 00-1.34-1.111l-3.892-.556a.606.606 0 01-.456-.327L10.489.91A1.653 1.653 0 008.999 0c-.636 0-1.206.349-1.488.91L5.77 4.38a.606.606 0 01-.457.325l-3.891.557c-.63.09-1.144.516-1.34 1.111a1.604 1.604 0 00.42 1.675l2.815 2.7a.59.59 0 01.175.527l-.665 3.814a1.61 1.61 0 00.66 1.597 1.674 1.674 0 001.75.125l3.48-1.8a.615.615 0 01.563 0l3.481 1.8a1.674 1.674 0 001.75-.125c.514-.368.767-.98.66-1.597l-.665-3.813a.59.59 0 01.174-.528l2.816-2.7z" fill="#F9DB6D"/></svg>