<svg width="30" height="30" fill="none" xmlns="http://www.w3.org/2000/svg"><path fill-rule="evenodd" clip-rule="evenodd" d="M15 30c8.284 0 15-6.716 15-15 0-8.284-6.716-15-15-15C6.716 0 0 6.716 0 15c0 8.284 6.716 15 15 15zM6.519 14.813c4.372-1.905 7.29-3.162 8.749-3.769C19.432 9.311 20.3 9.01 20.863 9a.987.987 0 01.58.175c.12.104.197.249.215.406.03.196.038.394.024.591-.225 2.372-1.202 8.126-1.699 10.783-.21 1.125-.624 1.5-1.025 1.538-.688.064-1.25-.334-1.87-.776l-.053-.038a11.893 11.893 0 00-.453-.313c-.69-.454-1.223-.816-1.755-1.18-.49-.333-.98-.665-1.594-1.07-1.273-.84-.74-1.354-.028-2.04.12-.114.237-.23.353-.349.042-.044.22-.21.48-.453.06-.055.124-.114.19-.177l.062-.057c1.177-1.095 3.345-3.112 3.4-3.35.01-.04.019-.187-.07-.264-.085-.079-.217-.053-.31-.03-.132.03-2.241 1.423-6.327 4.181-.598.413-1.14.611-1.627.6-.535-.011-1.566-.302-2.33-.551l-.329-.103-.003-.001c-.776-.245-1.347-.425-1.29-.88.033-.27.406-.548 1.115-.83z" fill="#fff"/></svg>