<svg width="40" height="40" fill="none" xmlns="http://www.w3.org/2000/svg"><path fill-rule="evenodd" clip-rule="evenodd" d="M20 40c11.046 0 20-8.954 20-20S31.046 0 20 0 0 8.954 0 20s8.954 20 20 20zM8.692 19.75c5.83-2.54 9.72-4.215 11.665-5.025 5.552-2.31 6.71-2.712 7.46-2.725.276-.006.547.076.775.233.16.138.261.332.285.542.04.26.05.525.032.788-.3 3.162-1.602 10.835-2.265 14.377-.28 1.5-.832 2-1.367 2.05-.918.085-1.665-.445-2.493-1.035l-.07-.05c-.196-.14-.397-.283-.605-.417a150.51 150.51 0 01-2.34-1.573c-.652-.445-1.307-.887-2.125-1.427-1.697-1.12-.987-1.805-.037-2.72.159-.153.316-.308.47-.465.057-.06.294-.28.641-.604l.254-.236.082-.076c1.569-1.46 4.46-4.15 4.533-4.467.012-.052.025-.25-.093-.352-.115-.105-.29-.07-.415-.04-.175.04-2.987 1.897-8.435 5.575-.797.55-1.52.815-2.17.8-.712-.015-2.087-.403-3.107-.735l-.438-.138h-.003c-1.036-.328-1.797-.568-1.722-1.175.045-.36.543-.73 1.488-1.105z" fill="#33A5F8"/></svg>