<svg width="85" height="59" fill="none" xmlns="http://www.w3.org/2000/svg"><path d="M60.688 20.921l.385-.141c-.35-.637-.572-1.38-.572-2.077 0-2.419 1.482-2.997 3.675-2.997 2.205 0 3.675.684 3.675 3.103 0 .578-.129 1.05-.385 1.617h2.403v1.463h-9.181v-.968zm3.488-3.717c-1.26 0-2.345.213-2.345 1.617 0 .708.14 1.204.338 1.617h4.037c.081-.166.315-.815.315-1.617 0-1.404-1.085-1.617-2.345-1.617zm-4.55 37.371v-2.667h-1.342v6.832h1.342v-2.655h8.026v-1.51h-8.026zm8.015-8.402l.023-1.463h-4.912c-1.411 0-2.251.708-2.251 2.49 0 .566.198 1.357.443 1.876h-2.671v1.463h9.38v-1.463h-5.484a4.216 4.216 0 01-.338-1.699c0-.66.21-1.192.875-1.192h4.935v-.012zm-4.667-14.927c-2.543 0-4.888-.755-4.888-3.882 0-3.221 2.333-3.87 4.888-3.87 2.543 0 4.877.743 4.877 3.87 0 3.222-2.345 3.882-4.877 3.882zm0-1.569c1.949 0 3.523-.33 3.523-2.313 0-1.994-1.575-2.289-3.523-2.289-1.96 0-3.523.319-3.523 2.301-.012 1.982 1.563 2.301 3.523 2.301zM61.831 3.54c0-.165-.023-1.156.898-1.156h4.947V.897h-4.924c-1.411 0-2.24.731-2.24 2.49 0 .684.199 1.522.572 2.147l-.385.142v.98h6.977V5.191h-5.507c-.186-.378-.338-.944-.338-1.652zm2.963 9.346c1.225-.107 1.703-.65 1.703-2.077 0-.661-.128-1.334-.396-2.171h1.271c.35.873.467 1.722.467 2.525 0 2.442-1.47 3.221-3.675 3.221-2.158 0-3.675-.861-3.675-3.221 0-2.502 1.797-2.868 3.733-2.88h.56v4.603h.012zm-1.19 0V9.794c-.933 0-1.901.236-1.901 1.428 0 1.25.793 1.593 1.901 1.664zm1.19 28.945c1.213-.106 1.703-.66 1.703-2.077 0-.66-.128-1.333-.385-2.16h1.272c.35.874.467 1.724.467 2.526 0 2.443-1.47 3.221-3.675 3.221-2.158 0-3.675-.861-3.675-3.221 0-2.502 1.797-2.88 3.733-2.88h.56v4.591zm-1.131-.024v-3.08c-.934 0-1.902.248-1.902 1.428 0 1.24.793 1.593 1.901 1.652zm9.718 11.104h5.95c2.11 0 2.263 1.275 2.263 2.065s-.164 2.065-2.264 2.065h-5.938v1.452h6.125c3.01 0 3.488-2.195 3.488-3.529 0-1.333-.467-3.528-3.488-3.528h-6.125v1.475h-.011zm.396-11.587a.952.952 0 00-.957.967c0 .531.42.968.957.968a.95.95 0 00.945-.968.95.95 0 00-.945-.967zm7.665 1.687c1.108 0 1.528-.578 1.528-1.428 0-.342-.012-.507-.023-.672h-1.272v.247c0 .39-.117.402-.361.402h-5.507v1.451h5.635zm0-28.25c1.108 0 1.528-.577 1.528-1.427 0-.342-.012-.52-.035-.673h-1.26v.248c0 .39-.117.401-.361.401h-5.507v1.464h5.635v-.012zm-.198 22.102l-5.437 1.77v1.593l7.163-2.773v-1.192l-7.151-2.76v1.58l5.424 1.782zm-1.319-5.31c1.213-.106 1.704-.637 1.704-2.03 0-.648-.117-1.297-.386-2.112h1.272c.35.862.467 1.676.467 2.467 0 2.383-1.47 3.15-3.663 3.15-2.159 0-3.675-.838-3.675-3.15 0-2.443 1.796-2.809 3.733-2.809h.56v4.484h-.012zm-1.19-3.032c-.933 0-1.901.236-1.901 1.404 0 1.239.793 1.581 1.901 1.64v-3.044zm-3.033-6.561c-.058.26-.058.637-.058.944 0 .507.221 1.31.548 1.746l-.385.142v.98h7V24.32h-5.518a3.216 3.216 0 01-.292-1.38c0-.367.012-.685.07-.98h-1.365zm4.981-6.018c-1.236 0-1.936.472-2.134 2.513-.094 1.074-.304 1.275-.712 1.275-.502 0-.898-.225-.898-1.31 0-.826.186-1.475.408-2.16h-1.318c-.315.732-.409 1.499-.409 2.148 0 2.03 1.167 2.69 2.217 2.69 1.038 0 1.808-.424 1.983-2.501.094-1.098.409-1.263.875-1.263.467 0 .945.33.945 1.463 0 .885-.222 1.676-.42 2.23h1.353c.21-.519.385-1.545.385-2.218.012-2.16-1.154-2.867-2.275-2.867zm.922-8.496c.023.13.047.613.047.897 0 .731-.222 1.05-.805 1.05h-3.803V7.446h-1.225v1.947h-1.96l.198 1.428h1.762l.07 1.227h1.155V10.82h3.978c1.365 0 1.948-.897 1.948-2.042 0-.543-.023-1.015-.093-1.345h-1.272v.012zM75.82 0v1.51l5.04 1.759-5.04 1.534v1.616l6.65-2.454 2.53.991V3.587L75.819 0zm1.143 46.929c0-.166-.023-1.133.887-1.133h4.946v-1.44h-4.911c-1.412 0-2.252.708-2.252 2.431 0 .673.198 1.487.572 2.1l-.385.142v.956h6.976v-1.428H77.3a3.933 3.933 0 01-.338-1.628zm-3.185-33.96a.952.952 0 00-.957.967c0 .543.42.967.957.967a.95.95 0 00.945-.967.95.95 0 00-.945-.968zm-52.381 16.26c-6.008 1.58-12.11-1.983-13.626-7.965C6.24 15.28 9.87 9.157 15.866 7.576c5.997-1.582 12.098 1.994 13.626 7.965 1.528 5.97-2.111 12.118-8.096 13.688zM46.338.4H2.94C1.587.401 0 1.746 0 3.14v31.93C0 49.1 10.99 59 24.546 59s24.557-9.9 24.557-23.93V3.28C49.091 1.888 47.691.401 46.338.401z" fill="#284C96"/></svg>