<svg width="389" height="252" viewBox="0 0 389 252" fill="none" xmlns="http://www.w3.org/2000/svg">
<path opacity="0.2" d="M-215.799 240.908C-141.32 185.768 -116.942 238.814 -58.3561 210.195C13.9912 174.854 -10.9724 119.282 45.3557 94.8091C101.684 70.336 135.963 109.481 197.264 89.9356C258.566 70.3907 273.925 12.9907 360.253 2.33433" stroke="url(#paint0_linear)" stroke-width="3"/>
<path d="M269.579 45.7425C271.339 45.6192 272.663 44.0893 272.54 42.3281C272.418 40.5669 270.894 39.2366 269.134 39.3599C267.374 39.4832 266.05 41.0131 266.172 42.7743C266.295 44.5355 267.819 45.8658 269.579 45.7425Z" fill="#BFE3FD" stroke="#E4F3FE"/>
<path d="M70.3271 91.3736C72.3834 91.2296 73.9317 89.4418 73.7882 87.3831C73.6448 85.3245 71.8637 83.77 69.8074 83.9141C67.751 84.0582 66.2028 85.846 66.3462 87.9046C66.4897 89.9632 68.2708 91.5177 70.3271 91.3736Z" fill="#BFE3FD" stroke="#E4F3FE"/>
<defs>
<linearGradient id="paint0_linear" x1="-176.538" y1="206.062" x2="633.222" y2="-154.375" gradientUnits="userSpaceOnUse">
<stop offset="0.238133" stop-color="#1C9BF7"/>
<stop offset="0.400637" stop-color="#7EE2DB"/>
<stop offset="0.631424" stop-color="#1C9BF7" stop-opacity="0"/>
</linearGradient>
</defs>
</svg>
