<svg width="588" height="347" viewBox="0 0 588 347" fill="none" xmlns="http://www.w3.org/2000/svg">
<path opacity="0.2" d="M826.695 34.0937C724.969 109.8 710.148 45.649 621.71 70.2195C535.449 94.1848 553.601 158.738 455.475 198.553C375.565 230.977 304.975 171.236 221.039 204.895C137.102 238.553 159.779 305.145 13.5489 313.538" stroke="url(#paint0_linear)" stroke-width="3"/>
<path d="M429.629 211.583C432.342 211.393 434.386 209.033 434.196 206.315C434.007 203.597 431.656 201.545 428.943 201.735C426.229 201.925 424.185 204.285 424.375 207.003C424.564 209.721 426.915 211.773 429.629 211.583Z" fill="#BFE3FD" stroke="#E4F3FE"/>
<path d="M158.248 254.47C160.556 254.308 162.293 252.301 162.132 249.991C161.971 247.68 159.972 245.935 157.665 246.097C155.357 246.259 153.62 248.265 153.781 250.576C153.942 252.887 155.941 254.631 158.248 254.47Z" fill="#BFE3FD" stroke="#E4F3FE"/>
<defs>
<linearGradient id="paint0_linear" x1="766.008" y1="-28.0846" x2="-291.949" y2="612.465" gradientUnits="userSpaceOnUse">
<stop offset="0.150479" stop-color="#1C9BF7"/>
<stop offset="0.341302" stop-color="#76D7E4"/>
<stop offset="0.698428" stop-color="#1C9BF7" stop-opacity="0"/>
</linearGradient>
</defs>
</svg>
