<svg width="744" height="518" viewBox="0 0 744 518" fill="none" xmlns="http://www.w3.org/2000/svg">
<mask id="mask0" mask-type="alpha" maskUnits="userSpaceOnUse" x="0" y="0" width="745" height="518">
<rect y="0.981445" width="744" height="516.515" fill="#C4C4C4"/>
</mask>
<g mask="url(#mask0)">
<path opacity="0.7" d="M-59.7799 36.6838C-151.208 49.7643 -200.41 10.5753 -313.501 10.5753V473.91C-237.862 472.439 -129.177 513.834 -37.7491 500.754C53.6788 487.673 145.107 464.579 229.925 472.439C349.626 483.532 455.007 510.315 551.208 505.166C647.409 500.018 677.518 473.91 743.978 473.91V10.5753C694.408 10.5753 650.714 8.73688 529.177 34.4775C407.641 60.218 320.252 20.197 200.551 9.10437C115.732 1.24421 31.648 23.6033 -59.7799 36.6838Z" fill="url(#paint0_linear)"/>
<path opacity="0.15" d="M-313.431 123.776C-261.662 123.776 -249.546 184.505 -198.143 182.664C-146.741 180.824 -95.7064 105.005 -36.2267 101.692C23.2529 98.3799 27.6588 133.713 76.4908 131.137C125.323 128.56 145.884 72.6161 196.552 72.248C247.219 71.88 283.935 125.248 327.627 123.776C371.319 122.304 394.817 89.1254 453.929 91.3869C513.042 93.6484 546.82 167.033 602.261 165.366C657.702 163.699 681.2 123.776 743.984 123.776" stroke="white" stroke-width="2"/>
<ellipse cx="75.0222" cy="131.137" rx="2.20308" ry="2.20833" fill="#8CD9F1"/>
<ellipse cx="196.305" cy="72.4925" rx="2.20308" ry="2.20833" fill="#8ED4F5"/>
<ellipse cx="319.67" cy="123.284" rx="2.20308" ry="2.20833" fill="#91D1F9"/>
<ellipse cx="448.175" cy="91.6317" rx="2.20308" ry="2.20833" fill="#8FD4F5"/>
<ellipse cx="595.039" cy="165.243" rx="2.20308" ry="2.20833" fill="#8ADBED"/>
<ellipse cx="709.409" cy="128.192" rx="2.20308" ry="2.20833" fill="#85E3E4"/>
<path opacity="0.15" d="M-313.416 157.443C-263.482 157.443 -243.655 132.448 -215.017 135.36C-186.379 138.272 -161.779 200.603 -119.556 194.113C-77.3328 187.624 -45.3901 72.8444 13.7224 79.9237C72.8349 87.003 106.613 151.554 151.407 143.133C196.2 134.712 233.65 81.9421 286.521 81.9421C339.392 81.9421 376.475 150.279 440.728 146.402C504.981 142.525 517.762 116.958 572.906 114.381C628.049 111.804 641.196 157.443 744 157.443" stroke="white"/>
<ellipse cx="650.48" cy="145.736" rx="1.8359" ry="1.84027" fill="#7FDFE5"/>
<ellipse cx="571.174" cy="123.653" rx="1.8359" ry="1.84027" fill="#84D7EF"/>
<ellipse cx="401.547" cy="139.847" rx="1.8359" ry="1.84027" fill="#8ACEF8"/>
<ellipse cx="287.658" cy="82.186" rx="1.8359" ry="1.84027" fill="#89CEF7"/>
<ellipse cx="159.223" cy="141.319" rx="1.8359" ry="1.84027" fill="#86D4F2"/>
<ellipse cx="14.5593" cy="80.2221" rx="1.8359" ry="1.84027" fill="#83D9EC"/>
<mask id="path-17-inside-1" fill="white">
<path fill-rule="evenodd" clip-rule="evenodd" d="M-313.415 342.767C-312.678 342.768 -313.045 342.768 -312.678 342.768C-241.452 342.768 -206.572 411.963 -127.633 411.963C-48.694 411.963 -28.5003 350.128 43.8298 350.128C116.16 350.128 153.61 411.963 229.612 411.963C305.614 411.963 328.377 357.489 401.075 357.489C473.772 357.489 490.661 411.963 565.562 411.963C640.462 411.963 689.661 342.768 744.001 342.768"/>
</mask>
<path fill-rule="evenodd" clip-rule="evenodd" d="M-313.415 342.767C-312.678 342.768 -313.045 342.768 -312.678 342.768C-241.452 342.768 -206.572 411.963 -127.633 411.963C-48.694 411.963 -28.5003 350.128 43.8298 350.128C116.16 350.128 153.61 411.963 229.612 411.963C305.614 411.963 328.377 357.489 401.075 357.489C473.772 357.489 490.661 411.963 565.562 411.963C640.462 411.963 689.661 342.768 744.001 342.768" fill="url(#paint1_linear)" fill-opacity="0.4"/>
<path d="M-313.419 345.767C-313.051 345.768 -312.962 345.768 -312.919 345.768C-312.867 345.768 -312.862 345.768 -312.678 345.768V339.768C-312.861 339.768 -312.856 339.768 -312.896 339.768C-312.946 339.768 -313.042 339.768 -313.411 339.767L-313.419 345.767ZM-312.678 345.768C-278.069 345.768 -252.266 362.525 -224.646 379.905C-197.166 397.196 -168.053 414.963 -127.633 414.963V408.963C-166.153 408.963 -193.949 392.132 -221.45 374.826C-248.811 357.609 -276.061 339.768 -312.678 339.768V345.768ZM-127.633 414.963C-87.2329 414.963 -61.8156 399.065 -37.7967 383.566C-13.797 368.08 8.65019 353.128 43.8298 353.128L43.8298 347.128C6.67933 347.128 -17.1355 363.093 -41.0498 378.525C-64.9451 393.943 -89.0941 408.963 -127.633 408.963V414.963ZM43.8298 353.128C79.1093 353.128 105.904 368.166 133.89 383.67C161.765 399.112 190.749 414.963 229.612 414.963V408.963C192.473 408.963 164.731 393.896 136.798 378.421C108.976 363.008 80.8805 347.128 43.8298 347.128L43.8298 353.128ZM229.612 414.963C268.448 414.963 293.728 400.985 318.05 387.342C342.334 373.721 365.586 360.489 401.075 360.489L401.075 354.489C363.866 354.489 339.388 368.494 315.115 382.109C290.88 395.703 266.777 408.963 229.612 408.963V414.963ZM401.075 360.489C436.528 360.489 458.301 373.695 480.947 387.298C503.679 400.952 527.235 414.963 565.562 414.963V408.963C528.988 408.963 506.649 395.737 484.037 382.154C461.339 368.521 438.319 354.489 401.075 354.489L401.075 360.489ZM565.562 414.963C603.933 414.963 635.602 397.223 664.05 379.929C678.365 371.226 691.777 362.687 705.033 356.281C718.257 349.891 731.052 345.768 744.001 345.768V339.768C729.779 339.768 716.047 344.295 702.423 350.879C688.831 357.447 675.073 366.206 660.933 374.802C632.471 392.105 602.09 408.963 565.562 408.963V414.963Z" fill="white" fill-opacity="0.2" mask="url(#path-17-inside-1)"/>
<ellipse cx="445.868" cy="365.219" rx="2.93744" ry="2.94444" fill="#A4DDF7"/>
<ellipse cx="627.244" cy="396.872" rx="2.93744" ry="2.94444" fill="#90E6E9"/>
<ellipse cx="11.8871" cy="354.178" rx="2.93744" ry="2.94444" fill="#96E0EF"/>
</g>
<defs>
<linearGradient id="paint0_linear" x1="-1339" y1="244.497" x2="1690.91" y2="-330.135" gradientUnits="userSpaceOnUse">
<stop stop-color="#3CCBF8"/>
<stop offset="0.064236" stop-color="#20D5D5"/>
<stop offset="0.220486" stop-color="#3CB3F8"/>
<stop offset="0.324653" stop-color="#20D5CC"/>
<stop offset="0.522569" stop-color="#3CA9F8"/>
<stop offset="0.579861" stop-color="#30BCE5"/>
<stop offset="0.631944" stop-color="#20D5CC"/>
<stop offset="0.850694" stop-color="#20D5D5"/>
<stop offset="1" stop-color="#3CCBF8"/>
</linearGradient>
<linearGradient id="paint1_linear" x1="468.999" y1="495.511" x2="469.337" y2="352.7" gradientUnits="userSpaceOnUse">
<stop stop-color="#A4DDF7"/>
<stop offset="1" stop-color="white" stop-opacity="0.01"/>
</linearGradient>
</defs>
</svg>
