<svg width="1440" height="677" viewBox="0 0 1440 677" fill="none" xmlns="http://www.w3.org/2000/svg">
<path opacity="0.7" d="M345.5 39.6858C221 57.4556 154 4.21754 0 4.21754V633.655C103 631.657 251 687.892 375.5 670.122C500 652.353 624.5 620.979 740 631.657C903 646.726 1046.5 683.111 1177.5 676.117C1308.5 669.123 1349.5 633.655 1440 633.655V4.21754C1372.5 4.21754 1313 1.72009 1147.5 36.6885C982 71.657 863 17.2887 700 2.21932C584.5 -8.45865 470 21.9161 345.5 39.6858Z" fill="url(#paint0_linear)"/>
<path opacity="0.15" d="M0.0957031 158C70.5915 158 87.0905 240.5 157.086 238C227.082 235.5 296.578 132.5 377.573 128C458.568 123.5 464.568 171.5 531.064 168C597.56 164.5 625.558 88.5002 694.554 88.0002C763.55 87.5002 813.547 160 873.043 158C932.54 156 964.538 110.928 1045.03 114C1125.53 117.072 1171.53 216.765 1247.02 214.5C1322.52 212.235 1354.51 158 1440.01 158" stroke="white" stroke-width="2"/>
<circle cx="106.117" cy="222" r="3" fill="#84E5E2"/>
<circle cx="253.245" cy="191.333" r="3" fill="#86E1E7"/>
<circle cx="397.072" cy="128" r="3" fill="#89DDEC"/>
<circle cx="529.064" cy="168" r="3" fill="#8CD9F1"/>
<circle cx="694.218" cy="88.3325" r="3" fill="#8ED4F5"/>
<circle cx="862.208" cy="157.333" r="3" fill="#91D1F9"/>
<circle cx="1037.2" cy="114.333" r="3" fill="#8FD4F5"/>
<circle cx="1237.19" cy="214.333" r="3" fill="#8ADBED"/>
<circle cx="1392.93" cy="164" r="3" fill="#85E3E4"/>
<path opacity="0.15" d="M0.117188 203.736C68.1131 203.736 95.1115 169.78 134.109 173.737C173.107 177.693 206.605 262.369 264.101 253.553C321.598 244.737 365.095 88.8098 445.59 98.427C526.085 108.044 572.083 195.736 633.079 184.297C694.075 172.857 745.072 101.169 817.068 101.169C889.064 101.169 939.561 194.004 1027.06 188.737C1114.55 183.47 1131.96 148.738 1207.05 145.237C1282.14 141.737 1300.04 203.737 1440.03 203.737" stroke="white"/>
<circle cx="1312.68" cy="187.832" r="2.5" fill="#7FDFE5"/>
<circle cx="1204.69" cy="157.832" r="2.5" fill="#84D7EF"/>
<circle cx="973.703" cy="179.832" r="2.5" fill="#8ACEF8"/>
<circle cx="818.617" cy="101.5" r="2.5" fill="#89CEF7"/>
<circle cx="643.723" cy="181.832" r="2.5" fill="#86D4F2"/>
<circle cx="446.73" cy="98.832" r="2.5" fill="#83D9EC"/>
<circle cx="301.617" cy="228.5" r="2.5" fill="#80DDE7"/>
<circle cx="130.59" cy="173.5" r="2.5" fill="#7DE2E1"/>
<mask id="path-21-inside-1" fill="white">
<path fill-rule="evenodd" clip-rule="evenodd" d="M0.117188 455.499C1.12103 455.5 0.621063 455.5 1.12103 455.5C98.1113 455.5 145.608 549.5 253.102 549.5C360.595 549.5 388.094 465.498 486.588 465.499C585.082 465.499 636.079 549.5 739.573 549.5C843.066 549.5 874.065 475.498 973.059 475.499C1072.05 475.499 1095.05 549.5 1197.05 549.5C1299.04 549.5 1366.03 455.5 1440.03 455.5"/>
</mask>
<path fill-rule="evenodd" clip-rule="evenodd" d="M0.117188 455.499C1.12103 455.5 0.621063 455.5 1.12103 455.5C98.1113 455.5 145.608 549.5 253.102 549.5C360.595 549.5 388.094 465.498 486.588 465.499C585.082 465.499 636.079 549.5 739.573 549.5C843.066 549.5 874.065 475.498 973.059 475.499C1072.05 475.499 1095.05 549.5 1197.05 549.5C1299.04 549.5 1366.03 455.5 1440.03 455.5" fill="url(#paint1_linear)" fill-opacity="0.4"/>
<path d="M0.113199 458.499C1.07395 458.5 0.638276 458.5 1.12103 458.5V452.5C0.603851 452.5 1.16811 452.5 0.121176 452.499L0.113199 458.499ZM1.12103 458.5C48.6146 458.5 84.0144 481.46 121.578 505.041C159.002 528.534 198.407 552.5 253.102 552.5V546.5C200.303 546.5 162.213 523.466 124.768 499.959C87.4616 476.54 50.6177 452.5 1.12103 452.5V458.5ZM253.102 552.5C307.777 552.5 342.158 531.062 374.844 510.022C407.509 488.994 438.324 468.498 486.588 468.499L486.588 462.499C436.358 462.498 404.177 484.003 371.596 504.977C339.035 525.937 305.92 546.5 253.102 546.5V552.5ZM486.588 468.499C534.951 468.499 571.675 489.08 609.754 510.125C647.723 531.11 686.965 552.5 739.573 552.5V546.5C688.686 546.5 650.683 525.89 612.656 504.874C574.74 483.918 536.719 462.499 486.588 462.499L486.588 468.499ZM739.573 552.5C792.153 552.5 826.364 533.642 859.468 515.117C892.534 496.614 924.42 478.498 973.059 478.499V472.499C922.703 472.498 889.593 491.384 856.538 509.881C823.521 528.357 790.486 546.5 739.573 546.5V552.5ZM973.059 478.499C1021.66 478.499 1051.54 496.588 1082.38 515.073C1113.32 533.609 1145.17 552.5 1197.05 552.5V546.5C1146.92 546.5 1116.28 528.39 1085.47 509.926C1054.57 491.41 1023.45 472.499 973.059 472.499V478.499ZM1197.05 552.5C1248.96 552.5 1291.85 528.561 1330.59 505.065C1350.05 493.262 1368.38 481.622 1386.49 472.89C1404.57 464.174 1422.17 458.5 1440.03 458.5V452.5C1420.9 452.5 1402.37 458.576 1383.89 467.485C1365.44 476.378 1346.77 488.238 1327.48 499.935C1288.73 523.439 1247.12 546.5 1197.05 546.5V552.5Z" fill="white" fill-opacity="0.2" mask="url(#path-21-inside-1)"/>
<circle cx="1034.06" cy="486" r="4" fill="#A4DDF7"/>
<circle cx="1281.04" cy="529" r="4" fill="#90E6E9"/>
<circle cx="188.106" cy="537" r="4" fill="#AFECEE"/>
<circle cx="443.091" cy="471" r="4" fill="#96E0EF"/>
<defs>
<linearGradient id="paint0_linear" x1="-1396.44" y1="321.999" x2="2728.79" y2="-462.228" gradientUnits="userSpaceOnUse">
<stop stop-color="#3CCBF8"/>
<stop offset="0.064236" stop-color="#20D5D5"/>
<stop offset="0.220486" stop-color="#3CB3F8"/>
<stop offset="0.324653" stop-color="#20D5CC"/>
<stop offset="0.522569" stop-color="#3CA9F8"/>
<stop offset="0.579861" stop-color="#30BCE5"/>
<stop offset="0.631944" stop-color="#20D5CC"/>
<stop offset="0.850694" stop-color="#20D5D5"/>
<stop offset="1" stop-color="#3CCBF8"/>
</linearGradient>
<linearGradient id="paint1_linear" x1="1065.55" y1="663" x2="1066.01" y2="468.993" gradientUnits="userSpaceOnUse">
<stop stop-color="#A4DDF7"/>
<stop offset="1" stop-color="white" stop-opacity="0.01"/>
</linearGradient>
</defs>
</svg>
