<svg width="1440" height="500" viewBox="0 0 1440 500" fill="none" xmlns="http://www.w3.org/2000/svg">
<g opacity="0.3">
<mask id="path-1-inside-1" fill="white">
<path fill-rule="evenodd" clip-rule="evenodd" d="M-288 330.888C-98.6605 303.361 -156.413 515.993 -39.7614 499.034C52.5262 485.617 78.2671 403.973 183.297 393.059C288.326 382.146 360.216 453.837 441.613 442.003C523.011 430.169 609.578 330.248 715.244 314.822C820.911 299.395 823.589 347.231 950.205 347.141C1122.95 347.018 1166.01 245.816 1279.83 212.896C1393.64 179.975 1460.95 281.16 1576.28 249.581C1691.62 218.001 1816.88 24.8762 1988 -0.000976562"/>
</mask>
<path fill-rule="evenodd" clip-rule="evenodd" d="M-288 330.888C-98.6605 303.361 -156.413 515.993 -39.7614 499.034C52.5262 485.617 78.2671 403.973 183.297 393.059C288.326 382.146 360.216 453.837 441.613 442.003C523.011 430.169 609.578 330.248 715.244 314.822C820.911 299.395 823.589 347.231 950.205 347.141C1122.95 347.018 1166.01 245.816 1279.83 212.896C1393.64 179.975 1460.95 281.16 1576.28 249.581C1691.62 218.001 1816.88 24.8762 1988 -0.000976562" fill="url(#paint0_linear)" fill-opacity="0.9"/>
<path d="M-39.7614 499.034L-40.0491 497.055L-39.7614 499.034ZM950.205 347.141L950.207 349.141L950.205 347.141ZM-287.712 332.867C-240.747 326.039 -209.394 334.134 -186.871 349.582C-164.277 365.078 -150.287 388.153 -138.412 411.893C-135.446 417.822 -132.62 423.773 -129.823 429.654C-127.029 435.527 -124.263 441.331 -121.43 446.929C-115.769 458.117 -109.797 468.581 -102.686 477.308C-95.5623 486.052 -87.2575 493.1 -76.9215 497.396C-66.5784 501.695 -54.3484 503.176 -39.4736 501.014L-40.0491 497.055C-54.3374 499.132 -65.8202 497.678 -75.3863 493.703C-84.9594 489.724 -92.7602 483.158 -99.5849 474.782C-106.422 466.39 -112.241 456.23 -117.861 445.123C-120.668 439.575 -123.414 433.814 -126.211 427.935C-129.004 422.063 -131.847 416.074 -134.834 410.103C-146.769 386.246 -161.133 362.384 -184.608 346.283C-208.153 330.135 -240.583 321.973 -288.288 328.908L-287.712 332.867ZM-39.4736 501.014C7.25677 494.22 37.1595 470.108 68.1936 446.705C99.241 423.292 131.563 400.446 183.503 395.048L183.09 391.07C130.001 396.586 96.9375 420.019 65.7852 443.511C34.6195 467.013 5.50803 490.432 -40.0491 497.055L-39.4736 501.014ZM183.503 395.048C235.514 389.644 279.354 404.675 320.631 419.755C361.762 434.781 400.602 449.986 441.901 443.982L441.326 440.024C401.228 445.853 363.423 431.13 322.003 415.998C280.728 400.918 236.108 385.561 183.09 391.07L183.503 395.048ZM441.901 443.982C462.579 440.976 483.486 432.393 504.787 421.074C526.083 409.757 547.919 395.622 570.395 381.451C615.456 353.04 663.177 324.444 715.533 316.801L714.955 312.843C661.645 320.625 613.249 349.703 568.261 378.068C545.712 392.285 524.04 406.313 502.91 417.542C481.784 428.768 461.346 437.113 441.326 440.024L441.901 443.982ZM715.533 316.801C767.946 309.149 794.697 317.164 824.229 327.125C853.996 337.166 886.568 349.187 950.207 349.141L950.204 345.141C887.226 345.186 855.151 333.334 825.508 323.335C795.631 313.258 768.21 305.068 714.955 312.843L715.533 316.801ZM950.207 349.141C1037.06 349.079 1091.38 323.579 1138.18 294.008C1185.05 264.397 1223.84 231.172 1280.38 214.817L1279.27 210.974C1222 227.539 1182.35 261.376 1136.05 290.627C1089.68 319.918 1036.1 345.08 950.204 345.141L950.207 349.141ZM1280.38 214.817C1336.58 198.562 1381.27 215.359 1426.78 232.605C1472.21 249.825 1518.44 267.491 1576.81 251.51L1575.75 247.652C1518.79 263.25 1473.7 246.113 1428.19 228.865C1382.76 211.644 1336.89 194.308 1279.27 210.974L1280.38 214.817ZM1576.81 251.51C1606.02 243.513 1635.72 225.335 1666.41 202.36C1697.09 179.388 1729 151.433 1762.5 123.819C1829.63 68.4718 1903.34 14.3281 1988.29 1.97822L1987.71 -1.98017C1901.54 10.5472 1827.06 65.4043 1759.95 120.733C1726.32 148.458 1694.6 176.26 1664.01 199.158C1633.43 222.053 1604.22 239.858 1575.75 247.652L1576.81 251.51Z" fill="white" fill-opacity="0.4" mask="url(#path-1-inside-1)"/>
</g>
<defs>
<linearGradient id="paint0_linear" x1="1362.82" y1="318.455" x2="1342.95" y2="181.738" gradientUnits="userSpaceOnUse">
<stop offset="0.0829094" stop-color="white"/>
<stop offset="1" stop-color="white" stop-opacity="0.01"/>
</linearGradient>
</defs>
</svg>
