<svg width="720" height="553" viewBox="0 0 720 553" fill="none" xmlns="http://www.w3.org/2000/svg">
<mask id="mask0" mask-type="alpha" maskUnits="userSpaceOnUse" x="0" y="0" width="720" height="554">
<rect y="0.68457" width="720" height="552.316" fill="#C4C4C4"/>
</mask>
<g mask="url(#mask0)">
<mask id="path-2-inside-1" fill="white">
<path fill-rule="evenodd" clip-rule="evenodd" d="M-869.424 597.135C-741.498 507.56 -661.57 854.753 -582.755 799.566C-503.94 744.378 -508.505 735.86 -435.175 729.499C-361.846 723.137 -116.545 601.898 -61.5488 563.389C-23.305 536.611 114.094 527.862 151.326 426.905C188.559 325.949 187.84 270.978 245.294 227.048C299.404 185.675 403.032 231.495 455.133 106.566C527.033 -65.8369 803.947 21.9963 840.529 -9.41991C930.636 -86.8038 803.671 -81.5676 905.226 -320.427"/>
</mask>
<path fill-rule="evenodd" clip-rule="evenodd" d="M-869.424 597.135C-741.498 507.56 -661.57 854.753 -582.755 799.566C-503.94 744.378 -508.505 735.86 -435.175 729.499C-361.846 723.137 -116.545 601.898 -61.5488 563.389C-23.305 536.611 114.094 527.862 151.326 426.905C188.559 325.949 187.84 270.978 245.294 227.048C299.404 185.675 403.032 231.495 455.133 106.566C527.033 -65.8369 803.947 21.9963 840.529 -9.41991C930.636 -86.8038 803.671 -81.5676 905.226 -320.427" fill="url(#paint0_linear)" fill-opacity="0.36"/>
<path d="M245.294 227.048L243.472 224.665L245.294 227.048ZM455.133 106.566L457.902 107.72L455.133 106.566ZM840.529 -9.41991L838.574 -11.6958L840.529 -9.41991ZM-867.703 599.593C-852.17 588.716 -837.582 584.605 -823.777 585.375C-809.928 586.147 -796.542 591.85 -783.491 601.177C-757.282 619.906 -733.105 652.732 -710.169 687.12C-687.393 721.266 -665.812 757.014 -645.06 780.603C-634.679 792.404 -624.215 801.516 -613.579 805.819C-602.703 810.219 -591.757 809.531 -581.034 802.023L-584.476 797.108C-593.457 803.397 -602.249 803.931 -611.329 800.257C-620.65 796.486 -630.361 788.228 -640.555 776.64C-660.954 753.451 -682.128 718.347 -705.177 683.79C-728.065 649.475 -752.782 615.747 -780.002 596.295C-793.665 586.532 -808.127 580.238 -823.443 579.384C-838.803 578.527 -854.696 583.161 -871.145 594.678L-867.703 599.593ZM-581.034 802.023C-561.295 788.201 -546.759 777.29 -534.983 768.649C-523.174 759.985 -514.209 753.657 -505.463 748.852C-488.158 739.343 -471.489 735.66 -434.916 732.488L-435.435 726.51C-472.191 729.699 -489.905 733.456 -508.353 743.593C-517.484 748.611 -526.738 755.158 -538.532 763.811C-550.358 772.488 -564.808 783.336 -584.476 797.108L-581.034 802.023ZM-434.916 732.488C-416.126 730.858 -386.696 721.942 -352.537 709.083C-318.276 696.186 -278.948 679.198 -240.224 661.22C-162.854 625.3 -87.5641 585.268 -59.8281 565.847L-63.2695 560.932C-90.5292 580.019 -165.388 619.861 -242.75 655.778C-281.392 673.718 -320.576 690.64 -354.651 703.468C-388.829 716.334 -417.56 724.959 -435.435 726.51L-434.916 732.488ZM-59.8281 565.847C-50.7062 559.459 -35.4219 554.019 -16.456 547.815C2.32015 541.673 24.3892 534.869 46.417 525.735C90.4471 507.479 135.084 479.616 154.141 427.943L148.512 425.867C130.336 475.151 87.6573 502.141 44.1189 520.193C22.3625 529.214 0.584123 535.928 -18.3216 542.112C-37.0375 548.235 -53.2695 553.93 -63.2695 560.932L-59.8281 565.847ZM154.141 427.943C163.481 402.619 170.437 380.185 176.508 360.134C182.589 340.049 187.754 322.448 193.544 306.623C205.077 275.107 218.986 250.94 247.116 229.431L243.472 224.665C214.148 247.086 199.69 272.37 187.91 304.561C182.045 320.589 176.817 338.406 170.765 358.395C164.704 378.417 157.788 400.714 148.512 425.867L154.141 427.943ZM247.116 229.431C260.074 219.524 276.13 214.735 294.147 211.283C303.154 209.558 312.52 208.188 322.201 206.648C331.847 205.114 341.751 203.42 351.662 201.059C371.502 196.333 391.477 188.917 409.817 174.645C428.171 160.363 444.708 139.357 457.902 107.72L452.364 105.411C439.508 136.239 423.553 156.354 406.132 169.91C388.698 183.476 369.615 190.615 350.272 195.222C340.591 197.528 330.872 199.194 321.258 200.723C311.68 202.246 302.149 203.641 293.018 205.39C274.758 208.888 257.569 213.886 243.472 224.665L247.116 229.431ZM457.902 107.72C493.116 23.2844 578.573 2.2126 661.203 -1.29973C702.444 -3.05271 742.537 -0.416168 774.884 0.710621C791.001 1.27208 805.257 1.46009 816.666 0.502019C822.375 0.0225902 827.462 -0.750443 831.763 -1.94326C836.043 -3.12983 839.734 -4.78285 842.483 -7.14398L838.574 -11.6958C836.751 -10.1299 833.992 -8.78754 830.16 -7.72505C826.351 -6.66879 821.668 -5.93914 816.164 -5.47692C805.145 -4.55161 791.205 -4.72447 775.093 -5.28576C742.983 -6.40426 702.496 -9.06029 660.948 -7.2943C578 -3.76847 489.051 17.4444 452.364 105.411L457.902 107.72ZM842.483 -7.14398C865.208 -26.6602 874.802 -41.4236 877.33 -56.578C878.583 -64.0948 878.061 -71.5055 876.781 -79.3348C875.516 -87.0696 873.435 -95.587 871.524 -104.969C867.673 -123.881 864.185 -147.71 867.927 -181.616C871.673 -215.566 882.683 -259.737 907.987 -319.253L902.465 -321.601C876.992 -261.687 865.789 -216.941 861.963 -182.275C858.132 -147.565 861.713 -123.081 865.645 -103.771C867.626 -94.0425 869.616 -85.9723 870.859 -78.3663C872.088 -70.8548 872.513 -64.1714 871.411 -57.5649C869.228 -44.4725 860.903 -30.8715 838.574 -11.6958L842.483 -7.14398Z" fill="#3CA9F8" fill-opacity="0.1" mask="url(#path-2-inside-1)"/>
</g>
<defs>
<linearGradient id="paint0_linear" x1="479.339" y1="246.719" x2="304.149" y2="57.143" gradientUnits="userSpaceOnUse">
<stop stop-color="#3CA9F8" stop-opacity="0.5"/>
<stop offset="1" stop-color="white" stop-opacity="0.01"/>
</linearGradient>
</defs>
</svg>
