<svg width="1440" height="559" viewBox="0 0 1440 559" fill="none" xmlns="http://www.w3.org/2000/svg">
<mask id="path-1-inside-1" fill="white">
<path fill-rule="evenodd" clip-rule="evenodd" d="M1777.76 528.69C1629.11 485.895 1543.46 587.656 1442.94 549.925C1368.88 522.124 1378.4 501.302 1295.5 461.054C1231 429.739 1172.28 481.946 1108.37 463.549C1063.93 450.755 1024.8 357.812 928.768 344.309C832.741 330.807 792.964 369.013 703.052 351.782C627.138 337.234 546.539 248.879 462.612 203.61C378.685 158.34 252.473 236.174 173.797 212.612C64.1948 179.79 61.5591 38.7488 -72.7833 0.0730254"/>
</mask>
<path fill-rule="evenodd" clip-rule="evenodd" d="M1777.76 528.69C1629.11 485.895 1543.46 587.656 1442.94 549.925C1368.88 522.124 1378.4 501.302 1295.5 461.054C1231 429.739 1172.28 481.946 1108.37 463.549C1063.93 450.755 1024.8 357.812 928.768 344.309C832.741 330.807 792.964 369.013 703.052 351.782C627.138 337.234 546.539 248.879 462.612 203.61C378.685 158.34 252.473 236.174 173.797 212.612C64.1948 179.79 61.5591 38.7488 -72.7833 0.0730254" fill="url(#paint0_linear)" fill-opacity="0.2"/>
<path d="M1442.94 549.925L1442.59 550.861L1442.94 549.925ZM1295.5 461.054L1295.94 460.154L1295.5 461.054ZM703.052 351.782L702.863 352.764L703.052 351.782ZM173.797 212.612L174.084 211.654L173.797 212.612ZM1777.49 529.651C1703.45 508.336 1645.11 523.005 1592.58 538.368C1540.13 553.713 1493.23 569.868 1442.59 550.861L1443.29 548.989C1493.18 567.713 1539.36 551.853 1592.02 536.449C1644.62 521.064 1703.43 506.249 1778.04 527.729L1777.49 529.651ZM1442.59 550.861C1405.43 536.913 1389.21 524.694 1371.91 510.94C1354.69 497.244 1336.41 482.03 1295.06 461.953L1295.94 460.154C1337.48 480.326 1355.9 495.647 1373.16 509.374C1390.34 523.044 1406.39 535.136 1443.29 548.989L1442.59 550.861ZM1295.06 461.953C1263.15 446.459 1232.65 451.598 1201.93 458.433C1171.29 465.251 1140.35 473.795 1108.1 464.51L1108.65 462.588C1140.3 471.701 1170.67 463.339 1201.5 456.481C1232.24 449.641 1263.35 444.333 1295.94 460.154L1295.06 461.953ZM1108.1 464.51C1096.74 461.241 1085.82 452.886 1074.38 442.148C1068.65 436.769 1062.77 430.763 1056.62 424.457C1050.47 418.146 1044.04 411.532 1037.22 404.913C1009.93 378.439 976.326 352.007 928.629 345.3L928.908 343.319C977.238 350.115 1011.22 376.906 1038.61 403.477C1045.46 410.12 1051.9 416.756 1058.05 423.061C1064.2 429.371 1070.06 435.346 1075.75 440.69C1087.15 451.4 1097.78 459.46 1108.65 462.588L1108.1 464.51ZM928.629 345.3C880.783 338.572 846.967 344.721 813.786 350.429C780.579 356.143 748.006 361.416 702.863 352.764L703.24 350.8C748.009 359.38 780.281 354.165 813.447 348.458C846.64 342.747 880.726 336.544 928.908 343.319L928.629 345.3ZM702.863 352.764C664.654 345.442 625.357 319.575 585.244 290.022C545.056 260.413 504.019 227.08 462.137 204.49L463.087 202.73C505.132 225.408 546.359 258.888 586.43 288.411C626.577 317.99 665.536 343.575 703.24 350.8L702.863 352.764ZM462.137 204.49C420.542 182.054 368.371 190.084 316.44 200.949C290.539 206.369 264.702 212.488 240.448 215.771C216.189 219.054 193.382 219.521 173.51 213.57L174.084 211.654C193.55 217.484 216.023 217.058 240.179 213.789C264.34 210.519 290.053 204.427 316.031 198.992C367.857 188.148 420.756 179.897 463.087 202.73L462.137 204.49ZM173.51 213.57C118.315 197.041 90.0642 153.233 58.9671 109.114C27.8268 64.9327 -6.24671 20.2688 -73.0599 1.034L-72.5066 -0.887944C-4.97749 18.553 29.4382 63.7474 60.6018 107.961C91.8087 152.237 119.676 195.361 174.084 211.654L173.51 213.57Z" fill="#1C9BF7" fill-opacity="0.1" mask="url(#path-1-inside-1)"/>
<defs>
<linearGradient id="paint0_linear" x1="404.03" y1="287.342" x2="439.849" y2="162.92" gradientUnits="userSpaceOnUse">
<stop offset="0.140625" stop-color="#1C9BF7" stop-opacity="0.5"/>
<stop offset="1" stop-color="white" stop-opacity="0.01"/>
</linearGradient>
</defs>
</svg>
