<svg width="1440" height="775" viewBox="0 0 1440 775" fill="none" xmlns="http://www.w3.org/2000/svg">
<g opacity="0.3">
<path fill-rule="evenodd" clip-rule="evenodd" d="M-189.809 653.316C-53.1671 600.864 35.0946 687.811 126.831 644.193C194.425 612.054 194.109 578.844 269.074 534.408C327.4 499.836 377.636 568.05 436.378 545.501C477.227 529.82 505.793 430.163 595.13 409.387C684.467 388.61 724.774 420.599 808.076 396.894C878.408 376.88 947.585 288.055 1023.14 238.878C1098.7 189.7 1223.32 250.981 1295.57 222.375C1396.23 182.524 1388.07 51.5765 1511.56 4.17297" fill="url(#paint0_linear)" fill-opacity="0.6"/>
<path d="M-189.809 653.316C-53.1671 600.864 35.0946 687.811 126.831 644.193C194.425 612.054 194.109 578.844 269.074 534.408C327.4 499.836 377.636 568.05 436.378 545.501C477.227 529.82 505.793 430.163 595.13 409.387C684.467 388.61 724.774 420.599 808.076 396.894C878.408 376.88 947.585 288.055 1023.14 238.878C1098.7 189.7 1223.32 250.981 1295.57 222.375C1396.23 182.524 1388.07 51.5765 1511.56 4.17296" stroke="#1C9BF7" stroke-opacity="0.5"/>
</g>
<defs>
<linearGradient id="paint0_linear" x1="1084.58" y1="311.443" x2="1041.49" y2="199.207" gradientUnits="userSpaceOnUse">
<stop offset="0.140625" stop-color="#1C9BF7" stop-opacity="0.5"/>
<stop offset="1" stop-color="white" stop-opacity="0.01"/>
</linearGradient>
</defs>
</svg>
