<svg width="1440" height="847" viewBox="0 0 1440 847" fill="none" xmlns="http://www.w3.org/2000/svg">
<mask id="path-1-inside-1" fill="white">
<path fill-rule="evenodd" clip-rule="evenodd" d="M-21.5065 770.001C89.9961 688.501 165.648 779.002 229.496 744.001C293.344 709 273.242 631.038 343.496 583.503C398.156 546.519 450.882 649.92 506.71 624.838C545.532 607.396 569.237 471.246 654.997 446.503C740.758 421.76 779.897 487.62 859.589 460.253C926.874 437.146 949.968 331.265 1020.5 279.001C1091.03 226.736 1263.38 275.715 1332 244.001C1427.58 199.821 1398.63 52.7298 1516 0.00110091"/>
</mask>
<path fill-rule="evenodd" clip-rule="evenodd" d="M-21.5065 770.001C89.9961 688.501 165.648 779.002 229.496 744.001C293.344 709 273.242 631.038 343.496 583.503C398.156 546.519 450.882 649.92 506.71 624.838C545.532 607.396 569.237 471.246 654.997 446.503C740.758 421.76 779.897 487.62 859.589 460.253C926.874 437.146 949.968 331.265 1020.5 279.001C1091.03 226.736 1263.38 275.715 1332 244.001C1427.58 199.821 1398.63 52.7298 1516 0.00110091" fill="url(#paint0_linear)" fill-opacity="0.2"/>
<path d="M343.496 583.503L342.935 582.675L343.496 583.503ZM859.589 460.253L859.265 459.307L859.589 460.253ZM1332 244.001L1331.58 243.093L1332 244.001ZM-20.9164 770.808C6.83716 750.523 32.3216 740.965 55.9208 737.467C79.5301 733.967 101.308 736.524 121.672 740.545C131.861 742.557 141.67 744.93 151.198 747.095C160.712 749.257 169.937 751.21 178.894 752.361C196.819 754.664 213.758 753.769 229.977 744.878L229.015 743.124C213.31 751.734 196.85 752.652 179.149 750.377C170.293 749.239 161.147 747.305 151.641 745.145C142.148 742.987 132.286 740.602 122.059 738.583C101.591 734.541 79.5585 731.941 55.6276 735.489C31.6867 739.037 5.90112 748.73 -22.0966 769.194L-20.9164 770.808ZM229.977 744.878C262.259 727.181 273.302 698.589 285.024 668.819C296.762 639.01 309.209 607.91 344.056 584.331L342.935 582.675C307.529 606.632 294.9 638.279 283.163 668.086C271.411 697.931 260.581 725.82 229.015 743.124L229.977 744.878ZM344.056 584.331C357.427 575.285 370.647 574.812 383.916 578.843C397.253 582.894 410.594 591.48 424.108 600.538C437.567 609.559 451.199 619.049 464.963 624.685C478.766 630.338 492.83 632.17 507.12 625.75L506.3 623.926C492.676 630.047 479.214 628.36 465.721 622.835C452.189 617.293 438.755 607.947 425.222 598.877C411.744 589.843 398.164 581.08 384.498 576.929C370.763 572.758 356.895 573.229 342.935 582.675L344.056 584.331ZM507.12 625.75C512.168 623.482 516.9 619.32 521.479 613.822C526.063 608.318 530.541 601.417 535.064 593.595C544.078 578.003 553.431 558.449 564.129 538.888C585.634 499.568 612.831 459.71 655.275 447.464L654.72 445.542C611.404 458.04 583.868 498.628 562.375 537.929C551.574 557.678 542.361 576.978 533.332 592.594C528.833 600.375 524.42 607.165 519.942 612.542C515.459 617.925 510.958 621.833 506.3 623.926L507.12 625.75ZM655.275 447.464C697.837 435.184 728.801 445.364 759.258 455.313C789.731 465.266 819.726 475 859.914 461.199L859.265 459.307C819.76 472.873 790.34 463.361 759.879 453.411C729.404 443.457 697.918 433.079 654.72 445.542L655.275 447.464ZM859.914 461.199C893.938 449.514 916.703 416.937 939.668 381.101C962.709 345.146 986.01 305.802 1021.09 279.804L1019.9 278.197C984.455 304.464 960.944 344.193 937.984 380.022C914.949 415.968 892.525 447.885 859.265 459.307L859.914 461.199ZM1021.09 279.804C1038.52 266.89 1062.31 260.181 1089.39 256.936C1116.46 253.692 1146.7 253.92 1176.94 254.794C1207.15 255.667 1237.38 257.185 1264.32 256.499C1291.25 255.814 1315.06 252.929 1332.42 244.909L1331.58 243.093C1314.62 250.93 1291.16 253.816 1264.27 254.5C1237.4 255.184 1207.27 253.67 1176.99 252.795C1146.75 251.921 1116.39 251.687 1089.16 254.95C1061.94 258.211 1037.74 264.979 1019.9 278.197L1021.09 279.804ZM1332.42 244.909C1380.64 222.617 1397.43 174.339 1416.76 125.575C1436.14 76.6874 1458.13 27.0979 1516.41 0.913268L1515.59 -0.911066C1456.51 25.6331 1434.28 75.9533 1414.9 124.838C1395.47 173.847 1378.93 221.205 1331.58 243.093L1332.42 244.909Z" fill="#1C9BF7" fill-opacity="0.1" mask="url(#path-1-inside-1)"/>
<defs>
<linearGradient id="paint0_linear" x1="1123.66" y1="362.705" x2="1074.55" y2="253.417" gradientUnits="userSpaceOnUse">
<stop offset="0.140625" stop-color="#1C9BF7" stop-opacity="0.5"/>
<stop offset="1" stop-color="white" stop-opacity="0.01"/>
</linearGradient>
</defs>
</svg>
