<svg width="902" height="517" viewBox="0 0 902 517" fill="none" xmlns="http://www.w3.org/2000/svg">
<mask id="mask0" mask-type="alpha" maskUnits="userSpaceOnUse" x="-182" y="0" width="1084" height="517">
<rect x="-181.068" width="1082.14" height="516.504" fill="#C4C4C4"/>
</mask>
<g mask="url(#mask0)">
<mask id="path-2-inside-1" fill="white">
<path fill-rule="evenodd" clip-rule="evenodd" d="M-1655.48 115.843C-1459.11 19.9739 -1304.74 765.443 -1195.59 727.939C-1086.44 690.436 -1095.73 569.593 -973.087 514.876C-877.663 472.305 -824.795 638.573 -730.908 614.013C-665.619 596.935 -594.794 422.405 -454.453 405.231C-314.111 388.057 -323.27 490.104 -192.34 463.78C-50.3095 435.223 -34.5284 348.803 96.2297 309.726C226.988 270.649 435.47 334.019 595.374 270.715C750.616 209.257 743.849 98.4924 910.838 88.0381"/>
</mask>
<path fill-rule="evenodd" clip-rule="evenodd" d="M-1655.48 115.843C-1459.11 19.9739 -1304.74 765.443 -1195.59 727.939C-1086.44 690.436 -1095.73 569.593 -973.087 514.876C-877.663 472.305 -824.795 638.573 -730.908 614.013C-665.619 596.935 -594.794 422.405 -454.453 405.231C-314.111 388.057 -323.27 490.104 -192.34 463.78C-50.3095 435.223 -34.5284 348.803 96.2297 309.726C226.988 270.649 435.47 334.019 595.374 270.715C750.616 209.257 743.849 98.4924 910.838 88.0381" fill="url(#paint0_linear)" fill-opacity="0.2"/>
<path d="M-973.087 514.876L-973.495 513.963L-973.087 514.876ZM-192.34 463.78L-192.143 464.76L-192.34 463.78ZM595.374 270.715L595.742 271.645L595.374 270.715ZM-1655.04 116.742C-1630.79 104.904 -1607.23 106.043 -1584.25 117.059C-1561.22 128.099 -1538.77 149.072 -1516.92 176.929C-1473.21 232.643 -1432.14 315.563 -1393.74 400.416C-1355.37 485.212 -1319.68 571.954 -1286.77 635.102C-1270.32 666.674 -1254.52 692.438 -1239.38 709.145C-1224.29 725.796 -1209.53 733.786 -1195.27 728.885L-1195.92 726.994C-1208.94 731.469 -1222.88 724.366 -1237.9 707.802C-1252.86 691.294 -1268.56 665.721 -1285 634.177C-1317.87 571.093 -1353.5 484.492 -1391.92 399.592C-1430.31 314.75 -1471.47 231.622 -1515.34 175.695C-1537.28 147.733 -1559.96 126.487 -1583.38 115.256C-1606.86 104 -1631.07 102.815 -1655.92 114.944L-1655.04 116.742ZM-1195.27 728.885C-1140.32 710.006 -1115.19 670.113 -1088.56 628.401C-1061.91 586.667 -1033.71 543.015 -972.68 515.79L-973.495 513.963C-1035.11 541.454 -1063.59 585.582 -1090.24 627.325C-1116.91 669.089 -1141.71 708.369 -1195.92 726.994L-1195.27 728.885ZM-972.68 515.79C-949.129 505.283 -928.237 507.652 -908.614 516.767C-888.928 525.912 -870.545 541.833 -852.09 558.434C-833.682 574.992 -815.202 592.229 -795.442 603.761C-775.644 615.317 -754.461 621.208 -730.655 614.981L-731.161 613.046C-754.299 619.098 -774.932 613.416 -794.434 602.034C-813.975 590.629 -832.279 573.564 -850.752 556.947C-869.178 540.373 -887.772 524.244 -907.771 514.953C-927.832 505.635 -949.333 503.184 -973.495 513.963L-972.68 515.79ZM-730.655 614.981C-714.028 610.631 -697.186 596.316 -679.177 577.289C-670.152 567.754 -660.795 556.99 -650.991 545.63C-641.183 534.264 -630.927 522.297 -620.084 510.329C-576.691 462.434 -524.113 414.763 -454.331 406.224L-454.574 404.239C-525.134 412.873 -578.14 461.054 -621.566 508.987C-632.429 520.976 -642.704 532.965 -652.506 544.323C-662.312 555.687 -671.641 566.417 -680.63 575.914C-698.649 594.951 -715.144 608.856 -731.161 613.046L-730.655 614.981ZM-454.331 406.224C-419.371 401.946 -393.777 405.097 -373.01 411.788C-352.225 418.484 -336.223 428.737 -320.403 438.781C-304.601 448.813 -288.973 458.643 -269.068 464.284C-249.144 469.931 -225.003 471.367 -192.143 464.76L-192.537 462.799C-225.142 469.355 -248.955 467.906 -268.523 462.36C-288.111 456.808 -303.513 447.135 -319.331 437.093C-335.13 427.062 -351.335 416.669 -372.396 409.884C-393.474 403.094 -419.364 399.93 -454.574 404.239L-454.331 406.224ZM-192.143 464.76C-120.9 450.436 -81.2989 421.579 -43.208 391.483C-5.15015 361.412 31.3453 330.16 96.5161 310.684L95.9434 308.768C30.356 328.368 -6.41819 359.865 -44.448 389.913C-82.4448 419.936 -121.75 448.567 -192.537 462.799L-192.143 464.76ZM96.5161 310.684C129.075 300.953 166.515 297.59 206.912 297.047C247.311 296.504 290.585 298.781 334.838 300.305C423.279 303.349 515.573 303.383 595.742 271.645L595.006 269.785C515.272 301.351 423.372 301.351 334.907 298.306C290.706 296.784 247.348 294.503 206.885 295.047C166.418 295.591 128.763 298.959 95.9434 308.768L96.5161 310.684ZM595.742 271.645C673.582 240.83 710.849 197.612 749.39 160.975C768.66 142.657 788.237 125.99 813.382 113.241C838.518 100.496 869.27 91.6424 910.9 89.0361L910.775 87.04C868.912 89.6609 837.888 98.5731 812.477 111.457C787.073 124.338 767.329 141.163 748.012 159.526C709.379 196.249 672.409 239.143 595.006 269.785L595.742 271.645Z" fill="#1C9BF7" fill-opacity="0.1" mask="url(#path-2-inside-1)"/>
</g>
<defs>
<linearGradient id="paint0_linear" x1="334.45" y1="530.662" x2="266.065" y2="149.66" gradientUnits="userSpaceOnUse">
<stop stop-color="#1C9BF7" stop-opacity="0.5"/>
<stop offset="1" stop-color="white" stop-opacity="0.01"/>
</linearGradient>
</defs>
</svg>
